<svg width="804" height="347" viewBox="0 0 804 347" fill="none" xmlns="http://www.w3.org/2000/svg">
<path d="M145.342 304.925C146.818 291.111 154.176 277.499 165.5 273.004C161.034 287.223 161.035 302.821 165.502 317.039C167.242 322.515 169.668 328.395 168.031 333.914C167.013 337.348 164.522 339.975 161.737 341.618C158.952 343.261 155.862 344.044 152.81 344.811L152.209 345.389C147.364 332.661 143.865 318.739 145.342 304.925Z" fill="#CCFF9B"/>
<path d="M165.435 273.474C158.841 282.071 154.742 292.866 153.722 304.327C153.464 306.79 153.542 309.284 153.953 311.719C154.418 314.075 155.418 316.244 156.847 317.999C158.151 319.667 159.652 321.197 160.585 323.204C161.05 324.24 161.321 325.379 161.381 326.545C161.441 327.711 161.289 328.879 160.933 329.972C160.109 332.723 158.485 334.964 156.831 337.092C154.995 339.455 153.055 341.875 152.275 345.007C152.18 345.386 151.68 345.194 151.774 344.815C153.132 339.365 157.679 336.27 159.847 331.362C160.859 329.071 161.283 326.412 160.335 323.995C159.505 321.881 157.959 320.301 156.626 318.626C155.21 316.938 154.171 314.871 153.599 312.608C153.084 310.206 152.923 307.719 153.125 305.254C153.503 299.696 154.63 294.242 156.464 289.091C158.529 283.199 161.445 277.762 165.086 273.014C165.312 272.72 165.659 273.182 165.435 273.474Z" fill="#0C9400"/>
<path d="M153.864 300.614C152.234 300.154 150.798 299.035 149.813 297.456C148.827 295.878 148.356 293.944 148.483 291.998C148.51 291.605 149.036 291.635 149.01 292.029C148.888 293.84 149.328 295.642 150.248 297.11C151.169 298.577 152.51 299.613 154.029 300.032C154.359 300.123 154.192 300.705 153.864 300.614Z" fill="#0C9400"/>
<path d="M156.089 317.255C159.032 315.21 161.205 311.95 162.174 308.125C162.27 307.746 162.77 307.939 162.675 308.317C161.66 312.296 159.393 315.683 156.327 317.803C156.034 318.005 155.799 317.456 156.089 317.255Z" fill="#0C9400"/>
<path d="M159.195 275.425C159.793 275.756 160.453 275.908 161.115 275.869C161.777 275.83 162.42 275.6 162.987 275.201C163.277 274.995 163.512 275.544 163.224 275.749C162.596 276.187 161.886 276.44 161.154 276.485C160.423 276.53 159.694 276.366 159.029 276.007C158.964 275.98 158.911 275.924 158.88 275.852C158.849 275.78 158.842 275.697 158.862 275.62C158.884 275.543 158.931 275.479 158.994 275.443C159.056 275.406 159.128 275.4 159.195 275.425Z" fill="#0C9400"/>
<path d="M200.014 297.678C199.836 297.812 199.658 297.947 199.48 298.087C197.095 299.911 194.842 301.958 192.742 304.207C192.578 304.378 192.413 304.554 192.253 304.73C187.243 310.212 183.152 316.727 180.188 323.946C179.01 326.82 178.022 329.794 177.232 332.842C176.142 337.052 175.247 341.718 173.089 345.161C172.867 345.523 172.626 345.869 172.368 346.197H152.861C152.817 346.171 152.773 346.15 152.728 346.124L151.949 346.166C151.981 346.005 152.016 345.839 152.047 345.679C152.065 345.586 152.087 345.492 152.105 345.399C152.118 345.337 152.132 345.275 152.141 345.218C152.145 345.197 152.15 345.177 152.154 345.161C152.163 345.104 152.176 345.052 152.185 345.001C152.381 344.074 152.583 343.147 152.79 342.22C152.79 342.215 152.79 342.215 152.795 342.21C154.319 335.129 156.56 328.284 159.47 321.818C159.56 321.627 159.648 321.43 159.746 321.238C161.094 318.376 162.641 315.647 164.371 313.078C165.322 311.674 166.333 310.328 167.401 309.044C170.167 305.732 173.363 302.946 176.872 300.79C183.868 296.492 191.968 294.845 199.445 297.471C199.636 297.538 199.823 297.605 200.014 297.678Z" fill="#CCFF9B"/>
<path d="M199.971 297.966C190.257 300.211 181.399 305.959 174.653 314.395C173.173 316.181 171.944 318.228 171.012 320.459C170.164 322.666 169.84 325.098 170.073 327.501C170.252 329.746 170.658 332.019 170.365 334.276C170.2 335.428 169.827 336.527 169.272 337.5C168.716 338.474 167.99 339.299 167.14 339.923C165.059 341.542 162.602 342.194 160.181 342.734C157.492 343.334 154.691 343.908 152.447 345.862C152.175 346.099 151.875 345.594 152.147 345.358C156.051 341.958 161.283 342.671 165.554 340.271C167.547 339.151 169.262 337.326 169.756 334.731C170.188 332.462 169.77 330.118 169.573 327.846C169.316 325.506 169.555 323.129 170.27 320.921C171.102 318.642 172.26 316.544 173.697 314.717C176.875 310.544 180.597 306.979 184.726 304.151C189.424 300.893 194.566 298.594 199.93 297.354C200.262 297.278 200.3 297.89 199.971 297.966Z" fill="#0C9400"/>
<path d="M176.687 311.53C175.625 310.021 175.057 308.122 175.087 306.171C175.117 304.22 175.741 302.346 176.849 300.881C177.075 300.586 177.48 300.979 177.254 301.275C176.22 302.636 175.639 304.383 175.614 306.199C175.59 308.015 176.124 309.782 177.121 311.181C177.337 311.485 176.903 311.832 176.687 311.53Z" fill="#0C9400"/>
<path d="M169.854 33.0888C173.261 33.5179 176.683 32.4369 179.436 30.0612C179.709 29.8255 180.009 30.3302 179.736 30.5655C176.867 33.0315 173.305 34.1481 169.759 33.6925C169.422 33.6488 169.518 33.0453 169.854 33.0888Z" fill="#0C9400"/>
<path d="M189.514 301.7C189.82 302.383 190.268 302.968 190.817 303.4C191.366 303.832 191.998 304.1 192.657 304.177C192.996 304.216 192.899 304.819 192.563 304.781C191.835 304.691 191.137 304.395 190.53 303.919C189.923 303.443 189.425 302.801 189.08 302.049C189.043 301.981 189.029 301.9 189.041 301.82C189.053 301.741 189.091 301.67 189.147 301.622C189.204 301.576 189.275 301.559 189.344 301.573C189.413 301.588 189.474 301.633 189.514 301.7Z" fill="#0C9400"/>
<path d="M36.0382 346.865L35.5341 345.932C42.2932 342.275 50.7052 337.723 55.0989 330.253C59.4301 322.889 59.5272 312.889 55.3525 304.156C51.7997 296.724 45.2734 290.065 36.4793 284.899C34.7447 283.88 32.9238 282.915 31.1628 281.981C26.9063 279.724 22.5048 277.389 18.8756 274.078C13.877 269.517 10.0949 261.863 12.9138 255.045C13.8409 252.869 15.3592 250.996 17.2963 249.64C19.2334 248.284 21.5117 247.498 23.8725 247.373L23.9323 248.432C21.7695 248.547 19.6821 249.266 17.9071 250.508C16.1321 251.749 14.7406 253.464 13.8903 255.457C11.2708 261.793 14.8648 268.983 19.5898 273.294C23.1198 276.515 27.461 278.817 31.6592 281.044C33.4301 281.983 35.2615 282.954 37.016 283.985C45.9931 289.258 52.6644 296.074 56.3087 303.698C60.6335 312.746 60.5201 323.127 56.0124 330.791C51.469 338.515 42.9131 343.145 36.0382 346.865Z" fill="#F1F1F1"/>
<path d="M30.5903 252.963C35.7126 252.963 39.865 250.945 39.865 248.455C39.865 245.966 35.7126 243.948 30.5903 243.948C25.4681 243.948 21.3157 245.966 21.3157 248.455C21.3157 250.945 25.4681 252.963 30.5903 252.963Z" fill="#F1F1F1"/>
<path d="M38.0103 282.66C43.1325 282.66 47.2849 280.642 47.2849 278.152C47.2849 275.663 43.1325 273.645 38.0103 273.645C32.888 273.645 28.7356 275.663 28.7356 278.152C28.7356 280.642 32.888 282.66 38.0103 282.66Z" fill="#F1F1F1"/>
<path d="M21.0508 287.432C26.173 287.432 30.3254 285.414 30.3254 282.925C30.3254 280.435 26.173 278.417 21.0508 278.417C15.9285 278.417 11.7761 280.435 11.7761 282.925C11.7761 285.414 15.9285 287.432 21.0508 287.432Z" fill="#F1F1F1"/>
<path d="M47.5498 312.356C52.6721 312.356 56.8245 310.338 56.8245 307.849C56.8245 305.359 52.6721 303.341 47.5498 303.341C42.4276 303.341 38.2751 305.359 38.2751 307.849C38.2751 310.338 42.4276 312.356 47.5498 312.356Z" fill="#F1F1F1"/>
<path d="M66.0991 312.356C71.2214 312.356 75.3738 310.338 75.3738 307.849C75.3738 305.359 71.2214 303.341 66.0991 303.341C60.9769 303.341 56.8245 305.359 56.8245 307.849C56.8245 310.338 60.9769 312.356 66.0991 312.356Z" fill="#F1F1F1"/>
<path d="M479 85.1823H180.729V226.802H479V85.1823Z" fill="#E6E6E6"/>
<path d="M470.471 97.3264H189.258V215.485H470.471V97.3264Z" fill="white"/>
<path d="M478.873 77H180.602V89.6791H478.873V77Z" fill="#FF5900"/>
<path d="M190.019 85.2147C191.316 85.2147 192.367 84.1626 192.367 82.8647C192.367 81.5668 191.316 80.5146 190.019 80.5146C188.721 80.5146 187.67 81.5668 187.67 82.8647C187.67 84.1626 188.721 85.2147 190.019 85.2147Z" fill="white"/>
<path d="M198.933 85.2147C200.23 85.2147 201.282 84.1626 201.282 82.8647C201.282 81.5668 200.23 80.5146 198.933 80.5146C197.636 80.5146 196.584 81.5668 196.584 82.8647C196.584 84.1626 197.636 85.2147 198.933 85.2147Z" fill="white"/>
<path d="M207.848 85.2147C209.145 85.2147 210.196 84.1626 210.196 82.8647C210.196 81.5668 209.145 80.5146 207.848 80.5146C206.551 80.5146 205.499 81.5668 205.499 82.8647C205.499 84.1626 206.551 85.2147 207.848 85.2147Z" fill="white"/>
<path d="M315.037 125.368C314.736 125.368 314.446 125.488 314.233 125.701C314.02 125.915 313.9 126.204 313.9 126.506C313.9 126.808 314.02 127.098 314.233 127.311C314.446 127.525 314.736 127.645 315.037 127.645H377.471C377.773 127.645 378.062 127.525 378.276 127.311C378.489 127.098 378.609 126.808 378.609 126.506C378.609 126.204 378.489 125.915 378.276 125.701C378.062 125.488 377.773 125.368 377.471 125.368H315.037Z" fill="#E6E6E6"/>
<path d="M315.037 132.199C314.736 132.2 314.447 132.32 314.235 132.534C314.022 132.747 313.902 133.036 313.902 133.338C313.902 133.639 314.022 133.928 314.235 134.142C314.447 134.355 314.736 134.476 315.037 134.476H346.911C347.213 134.476 347.501 134.355 347.714 134.142C347.927 133.928 348.047 133.639 348.047 133.338C348.047 133.036 347.927 132.747 347.714 132.534C347.501 132.32 347.213 132.2 346.911 132.199H315.037Z" fill="#E6E6E6"/>
<path d="M313.466 165.265C313.165 165.265 312.875 165.385 312.662 165.599C312.449 165.812 312.329 166.102 312.329 166.404C312.329 166.706 312.449 166.995 312.662 167.209C312.875 167.422 313.165 167.542 313.466 167.542H430.53C430.832 167.542 431.121 167.422 431.335 167.209C431.548 166.995 431.668 166.706 431.668 166.404C431.668 166.102 431.548 165.812 431.335 165.599C431.121 165.385 430.832 165.265 430.53 165.265H313.466Z" fill="#E6E6E6"/>
<path d="M313.466 172.097C313.165 172.097 312.876 172.218 312.663 172.431C312.451 172.645 312.331 172.934 312.331 173.235C312.331 173.537 312.451 173.826 312.663 174.039C312.876 174.253 313.165 174.373 313.466 174.374H399.97C400.271 174.373 400.56 174.253 400.773 174.039C400.986 173.826 401.105 173.537 401.105 173.235C401.105 172.934 400.986 172.645 400.773 172.431C400.56 172.218 400.271 172.097 399.97 172.097H313.466Z" fill="#E6E6E6"/>
<path d="M313.466 178.774C313.165 178.774 312.876 178.895 312.663 179.108C312.451 179.322 312.331 179.611 312.331 179.912C312.331 180.214 312.451 180.503 312.663 180.716C312.876 180.93 313.165 181.05 313.466 181.051H430.53C430.831 181.05 431.12 180.93 431.333 180.716C431.546 180.503 431.665 180.214 431.665 179.912C431.665 179.611 431.546 179.322 431.333 179.108C431.12 178.895 430.831 178.774 430.53 178.774H313.466Z" fill="#E6E6E6"/>
<path d="M313.466 185.605C313.165 185.606 312.876 185.726 312.663 185.94C312.451 186.153 312.331 186.442 312.331 186.744C312.331 187.045 312.451 187.335 312.663 187.548C312.876 187.762 313.165 187.882 313.466 187.882H399.97C400.271 187.882 400.56 187.762 400.773 187.548C400.986 187.335 401.105 187.045 401.105 186.744C401.105 186.442 400.986 186.153 400.773 185.94C400.56 185.726 400.271 185.606 399.97 185.605H313.466Z" fill="#E6E6E6"/>
<path d="M252.265 169.886C257.737 169.886 262.172 165.447 262.172 159.972C262.172 154.497 257.737 150.058 252.265 150.058C246.793 150.058 242.357 154.497 242.357 159.972C242.357 165.447 246.793 169.886 252.265 169.886Z" fill="#A0616A"/>
<path d="M249.127 152.041C249.127 152.041 253.751 153.28 256.145 153.776C258.54 154.272 258.292 152.867 258.292 152.867C258.292 152.867 261.429 153.28 261.264 152.95C261.099 152.619 262.585 150.885 260.851 148.902C259.118 146.919 259.613 145.432 259.613 145.432H258.127L257.714 144.854H255.402C255.402 144.854 252.846 142.611 248.305 143.272C243.764 143.933 238.394 145.68 237.899 148.406C237.832 148.776 237.743 149.187 237.64 149.621C236.399 154.866 239.037 159.774 241.773 164.417C242.446 165.559 245.699 168.047 245.616 166.34C245.533 164.632 242.687 160.798 244.669 160.55C246.65 160.303 250.036 155.263 249.127 152.041Z" fill="#2F2E41"/>
<path d="M246.644 192.021C244.732 191.868 242.835 191.556 240.974 191.089L241.078 189.112L241.946 173.393L241.954 173.272H259.406L262.145 187.746L262.514 189.698C261.792 189.98 261.061 190.245 260.314 190.478C260.306 190.478 260.306 190.486 260.298 190.486C259.262 190.807 258.21 191.089 257.149 191.322C255.739 191.626 254.313 191.846 252.877 191.981C251.766 192.091 250.651 192.145 249.536 192.141C248.572 192.142 247.6 192.101 246.644 192.021Z" fill="#FF5900"/>
<path d="M235.424 189.224C234.701 188.911 234.003 188.573 233.312 188.22L233.015 188.067C232.814 187.963 232.605 187.85 232.404 187.737C232.131 187.585 231.866 187.432 231.609 187.279C231.36 187.135 231.103 186.982 230.854 186.829C230.838 186.821 230.83 186.813 230.814 186.813C229.947 186.259 229.095 185.688 228.276 185.069C228.14 184.965 228.003 184.86 227.866 184.756L227.722 182.442L227.931 182.313L241.946 173.392L242.138 173.272L242.155 173.264L244.13 173.272V180.633C245.247 182.249 246.002 185.632 246.468 190.06C246.532 190.695 246.588 191.346 246.644 192.021C244.732 191.868 242.835 191.556 240.974 191.089C240.773 191.048 240.58 191 240.38 190.944C239.209 190.638 238.056 190.267 236.926 189.835C236.581 189.706 236.243 189.57 235.906 189.433L235.874 189.417C235.729 189.353 235.569 189.289 235.424 189.224Z" fill="#2F2E41"/>
<path d="M232.404 187.737C232.131 187.585 231.866 187.432 231.609 187.279C231.36 187.135 231.103 186.982 230.854 186.829C230.838 186.821 230.83 186.813 230.814 186.813C229.947 186.259 229.095 185.688 228.276 185.069C228.14 184.965 228.003 184.86 227.866 184.756C227.802 184.7 227.738 184.652 227.666 184.595C227.152 184.202 226.654 183.792 226.172 183.358C226.148 183.342 226.132 183.317 226.107 183.301C226.594 182.927 227.14 182.636 227.722 182.442L228.292 182.61L232.356 183.832L232.38 185.479L232.404 187.737Z" fill="#2F2E41"/>
<path d="M266.627 187.762C266.386 187.89 266.145 188.019 265.904 188.139C265.847 188.172 265.8 188.196 265.751 188.22C265.43 188.38 265.117 188.541 264.796 188.694C264.787 188.702 264.771 188.702 264.771 188.71C264.755 188.718 264.731 188.726 264.715 188.734C263.993 189.08 263.262 189.401 262.514 189.698C261.792 189.98 261.061 190.245 260.314 190.478C260.306 190.478 260.306 190.486 260.298 190.486C259.262 190.807 258.21 191.089 257.149 191.322C257.137 190.662 257.224 190.003 257.407 189.369L257.414 189.256L258.105 178.07L257.181 173.272L259.832 172.878L274.409 180.73C274.409 180.73 272.803 182.337 266.209 185.761C265.626 186.063 266.482 187.071 266.627 187.762Z" fill="#2F2E41"/>
<path d="M252.7 190.052C251.656 190.148 250.596 190.197 249.536 190.197C248.508 190.197 247.488 190.156 246.468 190.06C246.532 190.695 246.588 191.346 246.644 192.021C247.6 192.101 248.572 192.141 249.536 192.141C250.651 192.145 251.767 192.091 252.877 191.981C254.313 191.846 255.739 191.626 257.149 191.322C257.137 190.662 257.224 190.003 257.407 189.369L257.414 189.256C255.864 189.634 254.289 189.9 252.7 190.052ZM283.051 144.952C281.354 140.073 278.614 135.624 275.022 131.915C271.429 128.205 267.072 125.324 262.253 123.473C257.433 121.621 252.269 120.844 247.118 121.195C241.968 121.546 236.956 123.017 232.433 125.505C227.909 127.993 223.982 131.439 220.926 135.602C217.869 139.764 215.757 144.544 214.737 149.608C213.717 154.671 213.812 159.896 215.017 164.919C216.222 169.941 218.508 174.641 221.714 178.689C222.036 179.09 222.365 179.492 222.702 179.878C222.734 179.91 222.75 179.934 222.774 179.958C223.604 180.915 224.486 181.825 225.417 182.683C225.642 182.892 225.874 183.101 226.107 183.301C226.132 183.317 226.148 183.342 226.172 183.358C226.654 183.792 227.152 184.201 227.666 184.595C227.738 184.652 227.802 184.7 227.866 184.756C228.003 184.86 228.14 184.965 228.276 185.069C229.095 185.688 229.947 186.259 230.814 186.813C230.83 186.813 230.838 186.821 230.854 186.829C231.103 186.982 231.36 187.135 231.609 187.279C231.866 187.432 232.131 187.585 232.404 187.737C232.605 187.85 232.814 187.962 233.015 188.067L233.312 188.22C234.002 188.573 234.701 188.911 235.424 189.224C235.569 189.289 235.729 189.353 235.874 189.417L235.906 189.433C236.243 189.57 236.581 189.706 236.926 189.835C238.056 190.267 239.209 190.638 240.379 190.944C240.58 191 240.773 191.048 240.974 191.089C242.835 191.556 244.732 191.868 246.644 192.021C247.6 192.101 248.572 192.141 249.536 192.141C250.651 192.145 251.767 192.091 252.877 191.981C254.313 191.846 255.739 191.626 257.149 191.322C258.21 191.089 259.262 190.807 260.298 190.486C260.306 190.486 260.306 190.478 260.314 190.478C261.061 190.245 261.792 189.98 262.515 189.698C263.262 189.401 263.993 189.08 264.715 188.734C264.731 188.726 264.755 188.718 264.771 188.71C264.771 188.702 264.787 188.702 264.796 188.694C265.117 188.541 265.43 188.38 265.751 188.22C265.8 188.196 265.848 188.171 265.904 188.139C266.145 188.019 266.386 187.89 266.627 187.762C266.643 187.754 266.651 187.746 266.667 187.737C267.301 187.384 267.928 187.014 268.546 186.62C268.715 186.516 268.884 186.412 269.052 186.291C269.301 186.138 269.542 185.97 269.775 185.801C270.088 185.584 270.401 185.359 270.707 185.126C270.808 185.06 270.905 184.988 270.996 184.909C271.743 184.346 272.466 183.751 273.156 183.125C278.394 178.455 282.13 172.335 283.891 165.54C285.653 158.745 285.36 151.58 283.051 144.952ZM272.554 181.051C271.685 181.87 270.773 182.642 269.823 183.366C269.615 183.526 269.397 183.687 269.181 183.832C268.972 183.993 268.763 184.145 268.546 184.29C268.362 184.418 268.177 184.547 267.984 184.668C267.968 184.684 267.944 184.692 267.928 184.708C267.791 184.804 267.647 184.893 267.51 184.981C267.084 185.246 266.643 185.511 266.209 185.761C266.105 185.817 266.008 185.881 265.904 185.937C265.848 185.969 265.792 186.002 265.727 186.034C265.486 186.17 265.245 186.291 265.004 186.42C264.972 186.444 264.932 186.452 264.9 186.476C264.888 186.478 264.877 186.483 264.868 186.492C264.699 186.58 264.531 186.661 264.362 186.741C264.217 186.813 264.081 186.886 263.936 186.95C263.35 187.231 262.748 187.496 262.145 187.746C261.511 188.003 260.868 188.236 260.218 188.453C260.057 188.509 259.888 188.573 259.72 188.621C258.956 188.863 258.194 189.08 257.414 189.256C255.864 189.634 254.289 189.9 252.7 190.052C251.656 190.148 250.596 190.197 249.536 190.197C248.508 190.197 247.488 190.156 246.468 190.06C244.648 189.893 242.846 189.576 241.078 189.112C241.014 189.096 240.942 189.08 240.878 189.063C239.428 188.685 238.008 188.202 236.629 187.617C236.557 187.585 236.476 187.561 236.412 187.529C236.332 187.496 236.259 187.472 236.195 187.44C236.115 187.408 236.043 187.376 235.97 187.344C235.368 187.079 234.782 186.789 234.195 186.492L233.922 186.347C233.4 186.074 232.886 185.793 232.38 185.479C232.204 185.383 232.019 185.27 231.842 185.158C231.641 185.037 231.441 184.909 231.248 184.78C231.2 184.748 231.152 184.716 231.103 184.684C230.653 184.378 230.196 184.073 229.762 183.743C229.457 183.518 229.16 183.301 228.862 183.068C228.669 182.924 228.477 182.771 228.292 182.61C228.172 182.522 228.051 182.417 227.931 182.313C227.77 182.176 227.609 182.04 227.449 181.895C227.2 181.694 226.967 181.469 226.742 181.26C225.838 180.426 224.982 179.541 224.18 178.608C223.907 178.303 223.65 177.997 223.401 177.676C223.343 177.613 223.289 177.545 223.24 177.475C219.197 172.368 216.726 166.193 216.13 159.705C215.534 153.216 216.838 146.694 219.883 140.935C222.929 135.176 227.583 130.427 233.279 127.27C238.975 124.112 245.467 122.682 251.961 123.153C258.456 123.624 264.674 125.976 269.855 129.922C275.037 133.869 278.958 139.239 281.141 145.377C283.325 151.516 283.675 158.158 282.151 164.492C280.626 170.827 277.291 176.581 272.554 181.051Z" fill="#3F3D56"/>
<path d="M86.6179 340.399L93.1154 340.399L96.2063 315.322L86.6168 315.322L86.6179 340.399Z" fill="#A0616A"/>
<path d="M84.9607 338.277L97.7565 338.276H97.7571C99.9197 338.276 101.994 339.136 103.523 340.666C105.052 342.196 105.911 344.271 105.912 346.435V346.7L84.9611 346.701L84.9607 338.277Z" fill="#FF5900"/>
<path d="M110.997 340.399L117.494 340.399L120.585 315.322L110.996 315.322L110.997 340.399Z" fill="#A0616A"/>
<path d="M109.34 338.277L122.136 338.276H122.136C124.299 338.276 126.373 339.136 127.902 340.666C129.431 342.196 130.29 344.271 130.291 346.435V346.7L109.34 346.701L109.34 338.277Z" fill="#FF5900"/>
<path d="M66.9029 241.308C67.4347 240.739 67.8351 240.059 68.0761 239.318C68.317 238.576 68.3926 237.791 68.2974 237.017C68.2022 236.244 67.9387 235.5 67.5253 234.839C67.1119 234.178 66.5588 233.616 65.9048 233.193L70.4193 214.789L61.1487 218.094L58.2829 235.064C57.6443 236.21 57.4481 237.552 57.7316 238.833C58.0151 240.115 58.7586 241.248 59.8211 242.017C60.8836 242.787 62.1914 243.14 63.4966 243.009C64.8018 242.879 66.0138 242.273 66.9029 241.308Z" fill="#9E616A"/>
<path d="M135.875 239.717C135.343 239.148 134.943 238.468 134.702 237.727C134.461 236.985 134.385 236.2 134.481 235.426C134.576 234.653 134.839 233.909 135.253 233.248C135.666 232.588 136.219 232.026 136.873 231.602L132.359 213.198L141.629 216.503L144.495 233.473C145.134 234.62 145.33 235.961 145.046 237.242C144.763 238.524 144.019 239.657 142.957 240.426C141.894 241.196 140.587 241.549 139.281 241.418C137.976 241.288 136.764 240.683 135.875 239.717Z" fill="#9E616A"/>
<path d="M75.4517 228.408L84.4576 333.972L97.635 332.77L102.909 251.183L107.603 283.488L108.544 334.803L120.468 334.008L127.09 278.803L125.465 225.34L80.196 220.753L75.4517 228.408Z" fill="#2F2E41"/>
<path d="M100.226 132.347C107.773 132.347 113.892 126.224 113.892 118.672C113.892 111.12 107.773 104.998 100.226 104.998C92.6783 104.998 86.5598 111.12 86.5598 118.672C86.5598 126.224 92.6783 132.347 100.226 132.347Z" fill="#A0616A"/>
<path d="M95.8981 107.733C95.8981 107.733 102.276 109.442 105.578 110.126C108.881 110.81 108.539 108.872 108.539 108.872C108.539 108.872 112.867 109.442 112.639 108.986C112.411 108.531 114.461 106.138 112.069 103.403C109.678 100.668 110.361 98.6168 110.361 98.6168H108.311L107.742 97.8191H104.553C104.553 97.8191 101.028 94.7259 94.7642 95.6375C88.5006 96.549 81.0933 98.9586 80.41 102.719C80.3173 103.229 80.1953 103.796 80.0536 104.394C78.3409 111.629 81.98 118.399 85.7545 124.804C86.6821 126.378 91.1691 129.81 91.0543 127.455C90.9395 125.101 87.0152 119.812 89.7484 119.47C92.4816 119.128 97.1508 112.177 95.8981 107.733Z" fill="#2F2E41"/>
<path d="M86.005 137.018H110.072L127.09 226.943C127.09 226.943 112.254 228.213 103.774 231.394C95.2943 234.576 81.1976 224.126 81.1976 224.126L86.005 137.018Z" fill="#FF5900"/>
<path d="M89.0095 147.173V137.018L86.2845 137.001L66.3748 149.667L70.695 219.064C70.695 219.064 75.8082 242.216 83.5637 241.975C91.3193 241.735 97.2993 159.201 89.0095 147.173Z" fill="#2F2E41"/>
<path d="M72.77 151.584L66.3748 149.667C66.3748 149.667 61.6405 151.054 61.6405 155.827C61.6405 160.599 57.5613 228.408 57.5613 228.408L70.5197 229.554L73.3 195.069L72.77 151.584Z" fill="#2F2E41"/>
<path d="M108.279 143.63L107.004 137.018L110.664 136.471L123.913 141.774C123.913 141.774 135.838 229.008 130.538 231.66C125.238 234.311 121.66 232.257 121.66 232.257C121.66 232.257 104.228 167.918 107.313 159.221L108.279 143.63Z" fill="#2F2E41"/>
<path d="M114.639 143.099L116.9 142.115C116.9 142.115 123.537 138.824 127.302 145.469C131.068 152.115 144.317 226.357 144.317 226.357L133.416 228.408L125.265 201.689L114.639 143.099Z" fill="#2F2E41"/>
<path d="M202.452 347H0.52998C0.389421 347 0.254618 346.944 0.155227 346.845C0.0558367 346.745 0 346.61 0 346.47C0 346.329 0.0558367 346.194 0.155227 346.095C0.254618 345.995 0.389421 345.939 0.52998 345.939H202.452C202.593 345.939 202.728 345.995 202.827 346.095C202.927 346.194 202.982 346.329 202.982 346.47C202.982 346.61 202.927 346.745 202.827 346.845C202.728 346.944 202.593 347 202.452 347Z" fill="#FF5900"/>
<path d="M570.296 49.0122C565.744 55.2453 562.242 62.1808 559.93 69.5441C557.866 75.971 556.326 82.5541 555.323 89.2292C554.833 89.0361 554.35 88.8281 553.874 88.5978C549.503 86.4775 545.981 82.938 543.883 78.5577C541.785 74.1773 541.235 69.2151 542.322 64.4817C543.41 59.7483 546.071 55.5237 549.872 52.498C553.672 49.4722 558.386 47.8244 563.244 47.8236C565.069 47.8207 566.887 48.0528 568.653 48.5145C569.211 48.6556 569.761 48.819 570.296 49.0122Z" fill="#FF6584"/>
<path d="M371.393 297.105C372.87 285.235 380.228 273.54 391.551 269.678C387.086 281.895 387.087 295.297 391.554 307.514C393.294 312.219 395.719 317.271 394.083 322.013C393.064 324.964 390.573 327.221 387.789 328.633C385.004 330.044 381.913 330.717 378.862 331.376L378.261 331.873C373.416 320.936 369.917 308.974 371.393 297.105Z" fill="#CCFF9B"/>
<path d="M391.487 270.082C384.893 277.468 380.794 286.744 379.774 296.591C379.516 298.707 379.594 300.851 380.004 302.942C380.47 304.967 381.469 306.83 382.899 308.338C384.203 309.771 385.704 311.086 386.637 312.811C387.102 313.701 387.373 314.679 387.433 315.681C387.493 316.684 387.34 317.687 386.985 318.626C386.161 320.989 384.537 322.915 382.883 324.744C381.047 326.774 379.107 328.853 378.327 331.544C378.232 331.87 377.731 331.705 377.826 331.379C379.184 326.697 383.73 324.037 385.899 319.82C386.91 317.852 387.335 315.567 386.387 313.49C385.557 311.674 384.011 310.317 382.678 308.877C381.262 307.426 380.223 305.651 379.651 303.706C379.136 301.642 378.975 299.505 379.177 297.387C379.555 292.612 380.681 287.926 382.515 283.5C384.581 278.438 387.497 273.766 391.138 269.686C391.363 269.434 391.711 269.831 391.487 270.082Z" fill="#0C9400"/>
<path d="M379.915 293.401C378.286 293.005 376.85 292.044 375.865 290.688C374.879 289.332 374.407 287.67 374.534 285.998C374.561 285.66 375.088 285.686 375.061 286.024C374.94 287.581 375.379 289.129 376.3 290.39C377.22 291.651 378.561 292.541 380.081 292.9C380.411 292.979 380.244 293.479 379.915 293.401Z" fill="#0C9400"/>
<path d="M382.141 307.699C385.084 305.942 387.257 303.141 388.226 299.854C388.321 299.529 388.822 299.694 388.726 300.02C387.712 303.438 385.445 306.349 382.378 308.17C382.086 308.343 381.85 307.872 382.141 307.699Z" fill="#0C9400"/>
<path d="M385.247 278.758C385.845 279.042 386.505 279.173 387.167 279.14C387.829 279.106 388.472 278.909 389.039 278.565C389.329 278.388 389.564 278.86 389.276 279.036C388.648 279.412 387.937 279.63 387.206 279.668C386.475 279.707 385.745 279.566 385.081 279.258C385.016 279.234 384.963 279.187 384.931 279.125C384.9 279.063 384.894 278.992 384.913 278.925C384.936 278.859 384.983 278.804 385.046 278.773C385.108 278.742 385.18 278.736 385.247 278.758Z" fill="#0C9400"/>
<path d="M426.066 290.878C425.888 290.994 425.71 291.109 425.532 291.23C423.147 292.797 420.894 294.556 418.794 296.488C418.629 296.635 418.465 296.787 418.304 296.938C413.295 301.647 409.204 307.246 406.239 313.449C405.062 315.918 404.074 318.473 403.284 321.092C402.194 324.71 401.299 328.718 399.141 331.677C398.919 331.988 398.678 332.285 398.42 332.567H378.913C378.869 332.544 378.824 332.527 378.78 332.504L378.001 332.54C378.032 332.402 378.068 332.26 378.099 332.122C378.117 332.042 378.139 331.962 378.157 331.882C378.17 331.828 378.184 331.775 378.192 331.726C378.197 331.708 378.201 331.69 378.206 331.677C378.215 331.628 378.228 331.583 378.237 331.539C378.433 330.743 378.635 329.946 378.842 329.15C378.842 329.145 378.842 329.145 378.847 329.141C380.371 323.057 382.612 317.176 385.522 311.62C385.611 311.455 385.7 311.286 385.798 311.122C387.146 308.662 388.692 306.317 390.422 304.11C391.373 302.904 392.385 301.747 393.453 300.644C396.218 297.798 399.414 295.405 402.924 293.552C409.92 289.859 418.02 288.444 425.496 290.7C425.688 290.758 425.875 290.816 426.066 290.878Z" fill="#CCFF9B"/>
<path d="M426.022 291.126C416.309 293.054 407.45 297.994 400.705 305.242C399.225 306.777 397.996 308.535 397.064 310.452C396.216 312.349 395.892 314.438 396.125 316.503C396.304 318.432 396.71 320.385 396.417 322.324C396.252 323.314 395.879 324.258 395.323 325.095C394.768 325.931 394.041 326.64 393.192 327.176C391.111 328.567 388.654 329.127 386.233 329.592C383.544 330.107 380.743 330.6 378.499 332.279C378.227 332.483 377.927 332.049 378.199 331.846C382.103 328.925 387.335 329.538 391.606 327.476C393.599 326.513 395.314 324.945 395.808 322.715C396.239 320.766 395.822 318.752 395.624 316.8C395.367 314.789 395.607 312.746 396.322 310.849C397.153 308.891 398.312 307.088 399.749 305.519C402.926 301.933 406.648 298.869 410.778 296.44C415.476 293.641 420.618 291.666 425.982 290.6C426.314 290.534 426.352 291.06 426.022 291.126Z" fill="#0C9400"/>
<path d="M402.739 302.78C401.676 301.484 401.109 299.852 401.139 298.176C401.168 296.5 401.793 294.889 402.901 293.631C403.126 293.377 403.531 293.714 403.306 293.969C402.272 295.138 401.69 296.639 401.666 298.2C401.641 299.76 402.176 301.278 403.173 302.48C403.389 302.741 402.954 303.04 402.739 302.78Z" fill="#0C9400"/>
<path d="M395.905 315.536C399.313 315.905 402.735 314.976 405.488 312.935C405.76 312.732 406.06 313.166 405.788 313.368C402.919 315.487 399.357 316.446 395.811 316.055C395.473 316.017 395.569 315.499 395.905 315.536Z" fill="#0C9400"/>
<path d="M415.566 294.334C415.872 294.921 416.32 295.423 416.869 295.795C417.417 296.166 418.05 296.396 418.709 296.463C419.047 296.496 418.951 297.014 418.615 296.981C417.887 296.904 417.189 296.65 416.582 296.24C415.974 295.831 415.477 295.28 415.132 294.634C415.094 294.576 415.08 294.506 415.093 294.437C415.105 294.369 415.143 294.308 415.199 294.267C415.256 294.228 415.327 294.213 415.396 294.225C415.464 294.238 415.525 294.277 415.566 294.334Z" fill="#0C9400"/>
<path d="M577.24 304.28C569.134 295.482 564.963 282.31 569.334 271.176C575.772 282.479 586.003 291.14 598.215 295.628C602.931 297.342 608.355 298.757 610.916 303.071C612.51 305.754 612.623 309.114 611.901 312.15C611.179 315.187 609.695 317.979 608.225 320.734L608.216 321.513C596.737 318.14 585.345 313.078 577.24 304.28Z" fill="#CCFF9B"/>
<path d="M569.539 271.373C570.915 281.177 575.346 290.299 582.203 297.442C583.652 299.006 585.338 300.332 587.2 301.371C589.046 302.325 591.114 302.767 593.189 302.651C595.126 302.582 597.099 302.287 599.019 302.69C599.999 302.911 600.921 303.336 601.725 303.938C602.528 304.54 603.196 305.305 603.683 306.183C604.954 308.339 605.374 310.823 605.701 313.266C606.063 315.979 606.397 318.803 607.947 321.137C608.134 321.42 607.684 321.695 607.497 321.413C604.801 317.35 605.709 312.163 603.892 307.783C603.044 305.739 601.574 303.939 599.376 303.32C597.453 302.779 595.418 303.081 593.458 303.168C591.435 303.31 589.408 302.955 587.555 302.135C585.646 301.194 583.911 299.935 582.425 298.412C579.024 295.037 576.175 291.149 573.983 286.89C571.453 282.042 569.772 276.798 569.012 271.384C568.965 271.049 569.492 271.04 569.539 271.373Z" fill="#0C9400"/>
<path d="M579.859 295.272C578.504 296.259 576.842 296.733 575.17 296.609C573.498 296.484 571.925 295.769 570.731 294.592C570.49 294.353 570.851 293.968 571.092 294.207C572.201 295.306 573.667 295.971 575.224 296.084C576.782 296.197 578.328 295.749 579.584 294.822C579.857 294.621 580.131 295.072 579.859 295.272Z" fill="#0C9400"/>
<path d="M592.212 302.815C592.773 299.435 592.039 295.967 590.156 293.104C589.97 292.82 590.42 292.545 590.606 292.828C592.56 295.812 593.316 299.422 592.724 302.939C592.668 303.274 592.155 303.149 592.212 302.815Z" fill="#0C9400"/>
<path d="M572.151 281.992C572.755 281.719 573.281 281.3 573.683 280.774C574.086 280.247 574.351 279.629 574.455 278.975C574.507 278.639 575.019 278.765 574.967 279.098C574.849 279.82 574.555 280.503 574.112 281.086C573.669 281.668 573.09 282.134 572.426 282.441C572.366 282.476 572.295 282.486 572.227 282.469C572.16 282.453 572.101 282.412 572.063 282.354C572.027 282.294 572.016 282.223 572.033 282.155C572.049 282.087 572.091 282.029 572.151 281.992Z" fill="#0C9400"/>
<path d="M607.823 258.549C607.797 258.76 607.77 258.97 607.746 259.184C607.402 262.016 607.288 264.872 607.406 267.723C607.411 267.943 607.42 268.167 607.432 268.386C607.789 275.252 609.418 281.991 612.236 288.262C613.36 290.756 614.672 293.161 616.161 295.456C618.217 298.626 620.699 301.899 621.562 305.458C621.656 305.828 621.727 306.204 621.775 306.583L609.167 321.463C609.122 321.483 609.079 321.505 609.034 321.525L608.557 322.142C608.472 322.029 608.387 321.91 608.302 321.797C608.252 321.732 608.205 321.663 608.156 321.598C608.123 321.553 608.091 321.508 608.06 321.47C608.049 321.455 608.038 321.44 608.031 321.428C607.999 321.39 607.974 321.351 607.946 321.315C607.465 320.651 606.987 319.982 606.513 319.309C606.51 319.306 606.51 319.306 606.509 319.3C602.851 314.205 599.81 308.695 597.451 302.884C597.383 302.709 597.311 302.532 597.249 302.351C596.243 299.733 595.452 297.038 594.885 294.291C594.58 292.787 594.351 291.267 594.199 289.739C593.814 285.791 594.053 281.806 594.907 277.931C596.61 270.207 600.765 263.114 607.319 258.869C607.487 258.76 607.652 258.655 607.823 258.549Z" fill="#CCFF9B"/>
<path d="M607.945 258.88C603.139 267.537 601.184 277.487 602.357 287.317C602.572 289.438 603.12 291.512 603.98 293.462C604.88 295.335 606.265 296.932 607.992 298.089C609.58 299.2 611.333 300.152 612.623 301.629C613.273 302.395 613.753 303.289 614.032 304.254C614.311 305.218 614.383 306.231 614.243 307.225C613.96 309.711 612.799 311.948 611.589 314.095C610.244 316.479 608.81 318.935 608.642 321.732C608.621 322.071 608.096 322.019 608.117 321.681C608.41 316.814 612.26 313.219 613.446 308.628C614 306.486 613.911 304.164 612.529 302.347C611.32 300.757 609.513 299.774 607.895 298.663C606.194 297.559 604.79 296.056 603.804 294.285C602.847 292.385 602.22 290.336 601.95 288.225C601.267 283.484 601.334 278.665 602.149 273.944C603.049 268.551 604.865 263.352 607.518 258.571C607.682 258.276 608.109 258.586 607.945 258.88Z" fill="#0C9400"/>
<path d="M601.793 284.174C600.116 284.147 598.504 283.525 597.244 282.419C595.984 281.313 595.158 279.795 594.914 278.137C594.865 277.801 595.385 277.711 595.433 278.047C595.658 279.591 596.427 281.005 597.603 282.033C598.778 283.06 600.282 283.633 601.844 283.65C602.183 283.653 602.13 284.178 601.793 284.174Z" fill="#0C9400"/>
<path d="M607.112 297.632C609.596 295.27 611.099 292.06 611.32 288.64C611.342 288.302 611.867 288.353 611.845 288.692C611.608 292.25 610.038 295.587 607.447 298.039C607.2 298.272 606.867 297.864 607.112 297.632Z" fill="#0C9400"/>
<path d="M603.636 268.931C604.282 269.076 604.955 269.059 605.593 268.881C606.231 268.702 606.815 268.368 607.292 267.909C607.536 267.672 607.87 268.081 607.627 268.316C607.098 268.821 606.452 269.189 605.748 269.388C605.043 269.587 604.3 269.61 603.585 269.455C603.516 269.446 603.453 269.412 603.409 269.358C603.365 269.305 603.343 269.237 603.348 269.167C603.355 269.098 603.389 269.034 603.443 268.99C603.497 268.946 603.566 268.924 603.636 268.931Z" fill="#0C9400"/>
<path d="M498.151 285.997C505.33 285.997 511.149 280.18 511.149 273.004C511.149 265.828 505.33 260.011 498.151 260.011C490.973 260.011 485.154 265.828 485.154 273.004C485.154 280.18 490.973 285.997 498.151 285.997Z" fill="#F2F2F2"/>
<path d="M488.492 160.768C491.162 160.768 493.326 158.604 493.326 155.935C493.326 153.265 491.162 151.101 488.492 151.101C485.822 151.101 483.657 153.265 483.657 155.935C483.657 158.604 485.822 160.768 488.492 160.768Z" fill="#FF5900"/>
<path d="M422.006 214.712C424.676 214.712 426.841 212.548 426.841 209.879C426.841 207.21 424.676 205.046 422.006 205.046C419.336 205.046 417.171 207.21 417.171 209.879C417.171 212.548 419.336 214.712 422.006 214.712Z" fill="#FF5900"/>
<path d="M708.109 0H350.999C350.469 0.00143123 349.962 0.212425 349.587 0.586856C349.212 0.961287 349.001 1.46871 349 1.99822V13.7573C349 14.288 349.21 14.7971 349.585 15.173C349.959 15.549 350.468 15.7611 350.999 15.7629H708.109C708.64 15.7611 709.148 15.549 709.523 15.173C709.898 14.7971 710.108 14.288 710.108 13.7573V1.99822C710.107 1.4687 709.896 0.961275 709.521 0.586845C709.146 0.212415 708.639 0.00142922 708.109 0Z" fill="#FF5900"/>
<path d="M360.61 10.1449C362.178 10.1449 363.45 8.87383 363.45 7.30586C363.45 5.73789 362.178 4.4668 360.61 4.4668C359.042 4.4668 357.77 5.73789 357.77 7.30586C357.77 8.87383 359.042 10.1449 360.61 10.1449Z" fill="white"/>
<path d="M371.389 10.1449C372.958 10.1449 374.229 8.87383 374.229 7.30586C374.229 5.73789 372.958 4.4668 371.389 4.4668C369.821 4.4668 368.549 5.73789 368.549 7.30586C368.549 8.87383 369.821 10.1449 371.389 10.1449Z" fill="white"/>
<path d="M382.169 10.1449C383.738 10.1449 385.009 8.87383 385.009 7.30586C385.009 5.73789 383.738 4.4668 382.169 4.4668C380.601 4.4668 379.329 5.73789 379.329 7.30586C379.329 8.87383 380.601 10.1449 382.169 10.1449Z" fill="white"/>
<path d="M697.55 3.51355H685.134C684.891 3.51355 684.657 3.61021 684.485 3.78225C684.313 3.9543 684.216 4.18764 684.216 4.43095C684.216 4.67426 684.313 4.9076 684.485 5.07965C684.657 5.25169 684.891 5.34835 685.134 5.34835H697.55C697.794 5.34835 698.027 5.25169 698.199 5.07965C698.371 4.9076 698.468 4.67426 698.468 4.43095C698.468 4.18764 698.371 3.9543 698.199 3.78225C698.027 3.61021 697.794 3.51355 697.55 3.51355Z" fill="white"/>
<path d="M697.55 6.96033H685.134C684.891 6.96033 684.657 7.05698 684.485 7.22903C684.313 7.40107 684.216 7.63442 684.216 7.87773C684.216 8.12104 684.313 8.35439 684.485 8.52644C684.657 8.69848 684.891 8.79513 685.134 8.79513H697.55C697.794 8.79513 698.027 8.69848 698.199 8.52644C698.371 8.35439 698.468 8.12104 698.468 7.87773C698.468 7.63442 698.371 7.40107 698.199 7.22903C698.027 7.05698 697.794 6.96033 697.55 6.96033Z" fill="white"/>
<path d="M697.551 10.4071H685.134C684.89 10.4071 684.655 10.5041 684.483 10.6769C684.31 10.8496 684.213 11.0839 684.213 11.3282C684.213 11.5725 684.31 11.8068 684.483 11.9795C684.655 12.1523 684.89 12.2493 685.134 12.2493H697.551C697.795 12.2493 698.029 12.1523 698.202 11.9795C698.375 11.8068 698.472 11.5725 698.472 11.3282C698.472 11.0839 698.375 10.8496 698.202 10.6769C698.029 10.5041 697.795 10.4071 697.551 10.4071Z" fill="white"/>
<path d="M475.376 103C475.168 103.003 475 104.349 475 106.006C475 107.658 475.168 108.997 475.376 109H503.624C503.832 108.997 504 107.651 504 105.994C504 104.342 503.832 103.003 503.624 103H475.376Z" fill="#E6E6E6"/>
<path d="M475.376 120C475.168 120.003 475 121.349 475 123.006C475 124.658 475.168 125.997 475.376 126H503.624C503.832 125.997 504 124.651 504 122.994C504 121.342 503.832 120.003 503.624 120H475.376Z" fill="#E6E6E6"/>
<path d="M470.458 136C470.204 136.003 469.999 137.349 470 139.006C470.001 140.658 470.205 141.997 470.458 142H492.542C492.796 141.997 493.001 140.651 493 138.994C492.999 137.342 492.795 136.003 492.542 136H470.458Z" fill="#E6E6E6"/>
<path d="M352.279 327.864C352.326 327.757 352.38 327.654 352.429 327.548C352.515 326.658 352.279 327.864 352.279 327.864Z" fill="#F2F2F2"/>
<path d="M377.723 314.412C375.949 314.41 374.178 314.538 372.423 314.795L372.17 314.832C366.554 315.731 361.459 318.65 357.843 323.039C354.227 327.428 352.339 332.986 352.533 338.669L352.6 340.807C352.644 342.158 352.691 343.611 352.73 345.223C352.735 345.598 352.887 345.956 353.154 346.219C353.422 346.482 353.782 346.629 354.157 346.628H638.062C658.078 346.418 678.022 346.153 697.337 345.841C700.974 345.853 704.604 345.527 708.181 344.868C713.549 343.769 717.274 341.589 719.572 338.204C722.428 334.007 722.519 328.721 722.346 322.75C721.995 310.692 721.646 298.024 721.297 285.395C720.99 274.265 720.683 263.165 720.377 252.537C720.188 246.23 719.767 240.664 716.523 236.409C713.006 231.808 706.593 229.475 697.461 229.475C697.35 229.475 697.241 229.475 697.129 229.476C668.51 229.652 640.153 246.688 626.567 271.868C625.002 274.767 623.545 277.871 622.135 280.874C620.128 285.379 617.855 289.76 615.327 293.995C614.01 296.146 612.505 298.177 610.831 300.063C610.72 300.195 610.594 300.337 610.461 300.471C610.155 300.816 609.836 301.148 609.525 301.444C607.809 303.182 605.882 304.698 603.79 305.957L603.589 306.074C603.438 306.168 603.274 306.261 603.11 306.347C601.972 306.981 600.788 307.528 599.568 307.986C594.389 309.962 588.5 310.436 582.065 309.392C575.96 308.34 570.076 306.265 564.663 303.253C558.704 299.993 553.127 295.928 547.734 291.998C545.364 290.271 542.914 288.486 540.467 286.794C540.007 286.476 539.554 286.164 539.095 285.853C536.106 283.836 533.396 282.171 530.811 280.761C524.719 277.355 518.006 275.202 511.069 274.431C503.951 273.757 497.679 275.029 492.43 278.204C490.929 279.117 489.517 280.17 488.214 281.349C481.998 286.938 478.165 295.186 474.459 303.162C469.85 313.084 465.082 323.344 455.669 328.663C444.808 334.806 428.953 332.254 417.737 327.816C414.21 326.42 410.688 324.815 407.281 323.262C405.905 322.634 404.53 322.007 403.151 321.392C400.444 320.182 398.228 319.255 396.178 318.472L395.53 318.223C395.169 318.087 394.808 317.952 394.44 317.823C392.169 316.987 389.854 316.277 387.505 315.693L386.977 315.56C385.918 315.318 384.928 315.117 383.956 314.948L383.568 314.882C381.636 314.567 379.681 314.41 377.723 314.412Z" fill="#FFB6B6"/>
<path d="M536.814 314.763C532.089 296.997 542.582 279.682 554.842 267.695C561.377 261.306 568.653 255.753 575.749 250.017C582.559 244.573 589.043 238.735 595.169 232.532C606.999 220.428 617.318 206.594 624.152 191.044C630.651 176.257 633.722 160.149 632.201 144.015C630.758 128.713 625.271 113.661 615.179 101.92C613.921 100.458 612.598 99.0553 611.21 97.7138C610.465 96.9911 609.325 98.1291 610.07 98.853C621.34 109.793 627.9 124.619 630.12 140.043C632.41 155.949 630.051 172.165 624.101 187.036C617.763 202.878 607.684 217.014 595.996 229.35C590.11 235.523 583.848 241.326 577.247 246.728C570.197 252.534 562.871 258.019 556.158 264.223C543.786 275.658 532.666 291.387 534.193 309.093C534.371 311.153 534.728 313.193 535.26 315.191C535.323 315.39 535.46 315.558 535.644 315.658C535.827 315.758 536.042 315.783 536.244 315.727C536.446 315.672 536.618 315.54 536.724 315.36C536.83 315.18 536.863 314.966 536.814 314.763Z" fill="#E6E6E6"/>
<path d="M586.293 213.624C586.393 213.808 586.417 214.023 586.361 214.224C586.305 214.426 586.173 214.597 585.993 214.703C585.813 214.809 585.599 214.841 585.396 214.792C585.192 214.743 585.016 214.617 584.904 214.441C583.054 211.269 581.308 208.043 579.665 204.762C578.558 202.534 577.496 200.275 576.5 197.995C565.323 172.665 560.536 144.979 562.56 117.368C563.111 109.814 564.201 102.31 565.822 94.9118C566.157 93.4113 566.513 91.9108 566.907 90.4251C567.502 90.3286 568.081 90.2023 568.653 90.0537C565.161 102.712 563.757 116.06 563.712 129.119C563.661 143.891 565.562 158.606 569.367 172.88C573.155 187.159 578.848 200.863 586.293 213.624Z" fill="#E6E6E6"/>
<path d="M692.134 169.946C686.093 182.938 675.943 193.605 664.559 202.103C651.652 211.737 637.036 218.69 622.554 225.591C621.626 226.037 620.808 224.648 621.744 224.202C625.2 222.553 628.655 220.904 632.088 219.225C645.819 212.488 659.432 205.074 670.927 194.868C681.56 185.426 690.224 173.667 694.177 159.873C698.301 145.514 697.521 129.989 693.085 115.8C690.332 107.184 686.383 98.9976 681.352 91.48C679.688 88.9618 677.927 86.5129 676.069 84.1334C674.717 82.4026 673.32 80.7064 671.878 79.045C667.167 73.643 662.044 68.6138 656.556 64.0026C650.848 59.079 644.53 54.9097 637.757 51.5973C630.8 48.2139 623.193 46.3742 615.458 46.2043C608.149 46.1035 600.951 48.0045 594.645 51.7013C590.334 54.2686 586.461 57.5086 583.173 61.2987C582.957 60.7564 582.719 60.2216 582.452 59.7016C588.129 53.4246 595.21 48.4922 603.451 46.1523C618.676 41.829 634.748 46.9025 647.595 55.2966C653.864 59.4783 659.718 64.2491 665.079 69.5441C667.078 71.4829 669.025 73.4811 670.897 75.5388C673.156 78.005 675.314 80.5579 677.369 83.1974C677.369 83.1974 677.384 83.2048 677.384 83.2123C678.075 84.0962 678.754 84.9926 679.42 85.9013C688.106 97.7124 694.593 111.269 697.179 125.762C699.824 140.581 698.517 156.211 692.134 169.946Z" fill="#E6E6E6"/>
<path d="M681.924 154.376C675.891 167.368 665.74 178.035 654.35 186.533C642.007 195.737 628.105 202.504 614.254 209.108C613.623 209.412 612.984 209.709 612.352 210.014C612.251 210.066 612.139 210.096 612.025 210.101C611.911 210.106 611.797 210.086 611.691 210.044C611.544 210.001 611.413 209.916 611.314 209.799C611.216 209.682 611.154 209.539 611.138 209.387C611.121 209.235 611.15 209.081 611.22 208.945C611.291 208.81 611.401 208.698 611.535 208.625C612.07 208.365 612.612 208.112 613.147 207.86C614.069 207.414 614.983 206.976 615.904 206.538C617.903 205.587 619.897 204.624 621.886 203.648C635.61 196.918 649.23 189.497 660.717 179.29C671.358 169.849 680.022 158.09 683.975 144.295C688.092 129.937 687.311 114.419 682.875 100.231C681.119 94.6625 678.84 89.2728 676.069 84.1334C674.486 81.1918 672.755 78.317 670.897 75.5388C668.085 71.3203 665.002 67.2882 661.669 63.4677C656.962 58.0664 651.842 53.0396 646.354 48.4328C640.644 43.5083 634.323 39.3389 627.548 36.0275C620.594 32.6418 612.989 30.7996 605.256 30.6271C597.944 30.5262 590.744 32.4271 584.436 36.124C578.915 39.441 574.108 43.8219 570.296 49.0122C565.744 55.2453 562.242 62.1809 559.93 69.5441C557.866 75.971 556.326 82.5542 555.323 89.2292C554.115 97.2773 553.506 105.404 553.503 113.542C553.455 128.317 555.356 143.033 559.157 157.31C562.95 171.588 568.643 185.292 576.084 198.054C576.104 198.088 576.122 198.122 576.136 198.158C576.204 198.346 576.201 198.552 576.127 198.737C576.052 198.922 575.912 199.072 575.733 199.16C575.554 199.248 575.349 199.266 575.157 199.211C574.965 199.157 574.8 199.033 574.694 198.864C572.844 195.7 571.101 192.473 569.463 189.185C556.047 162.107 550.138 131.928 552.351 101.791C552.678 97.3782 553.186 92.9806 553.874 88.5979C554.357 85.4928 554.939 82.4051 555.62 79.3347C557.196 71.7932 559.705 64.477 563.088 57.5548C564.682 54.3881 566.544 51.3636 568.653 48.5145C574.813 40.1873 583.165 33.4424 593.248 30.5825C608.473 26.2518 624.538 31.3253 637.393 39.7193C643.659 43.9048 649.513 48.6754 654.877 53.9669C660.1 59.0127 664.894 64.484 669.211 70.3241C672.229 74.4186 674.955 78.7203 677.369 83.1974C677.369 83.1974 677.384 83.2048 677.384 83.2123C678.833 85.9087 680.163 88.6647 681.352 91.48C683.92 97.4847 685.804 103.759 686.969 110.185C689.622 125.012 688.314 140.633 681.924 154.376Z" fill="#E6E6E6"/>
<path d="M632.224 159.979C639.332 159.935 646.205 157.427 651.67 152.883C657.233 148.206 660.895 141.657 661.965 134.469C662.594 130.405 662.391 126.256 661.37 122.273C661.307 122.074 661.17 121.906 660.986 121.806C660.803 121.706 660.587 121.682 660.386 121.737C660.184 121.793 660.012 121.924 659.906 122.104C659.8 122.284 659.767 122.498 659.816 122.701C661.538 129.465 660.761 136.622 657.627 142.858C655.22 147.521 651.577 151.433 647.098 154.168C642.618 156.903 637.473 158.356 632.224 158.368C632.015 158.375 631.818 158.463 631.672 158.613C631.527 158.764 631.446 158.965 631.446 159.173C631.446 159.382 631.527 159.583 631.672 159.734C631.818 159.884 632.015 159.972 632.224 159.979Z" fill="#E6E6E6"/>
<path d="M571.709 251.55L566.522 242.422C566.41 242.245 566.234 242.119 566.031 242.069C565.828 242.02 565.613 242.051 565.433 242.156C565.252 242.262 565.12 242.433 565.063 242.635C565.007 242.836 565.031 243.051 565.13 243.235L570.317 252.363C570.429 252.54 570.605 252.666 570.808 252.716C571.011 252.765 571.226 252.734 571.406 252.629C571.587 252.523 571.719 252.352 571.776 252.151C571.832 251.949 571.808 251.734 571.709 251.55Z" fill="#E6E6E6"/>
<path d="M541.424 65.3363C539.872 64.241 538.174 63.0987 536.274 63.1444C531.677 63.2549 529.198 69.9921 524.606 69.7552C521.677 69.6041 519.733 66.6298 517.006 65.5514C513.456 64.1474 508.938 66.8932 508.551 70.6902L509.007 70.2731C522.807 73.6364 537.128 74.2978 551.18 72.2208C547.928 69.926 544.676 67.6311 541.424 65.3363Z" fill="#E6E6E6"/>
<path d="M526.568 334.754C526.568 337.04 524.714 338.894 522.426 338.894C520.139 338.894 518.285 337.04 518.285 334.754C518.285 332.467 520.139 330.613 522.426 330.613C524.714 330.613 526.568 332.467 526.568 334.754Z" fill="black" stroke="#FF5900"/>
<path d="M535.887 339.394C538.45 339.394 540.528 337.316 540.528 334.754C540.528 332.191 538.45 330.113 535.887 330.113C533.323 330.113 531.245 332.191 531.245 334.754C531.245 337.316 533.323 339.394 535.887 339.394Z" fill="#FF5900"/>
<path d="M553.489 334.754C553.489 337.04 551.635 338.894 549.348 338.894C547.06 338.894 545.206 337.04 545.206 334.754C545.206 332.467 547.06 330.613 549.348 330.613C551.635 330.613 553.489 332.467 553.489 334.754Z" fill="black" stroke="#FF5900"/>
<path d="M535.929 338.466C537.98 338.466 539.643 336.804 539.643 334.753C539.643 332.703 537.98 331.041 535.929 331.041C533.879 331.041 532.216 332.703 532.216 334.753C532.216 336.804 533.879 338.466 535.929 338.466Z" fill="#FF5900"/>
<path d="M753.907 336.383H748.819L746.398 316.764H753.907V336.383Z" fill="#FFB6B6"/>
<path d="M756.411 344.87H752.762L752.111 341.426L750.443 344.87H740.766C740.302 344.87 739.851 344.722 739.477 344.447C739.103 344.172 738.827 343.785 738.689 343.342C738.551 342.9 738.558 342.424 738.71 341.986C738.861 341.548 739.148 341.169 739.53 340.906L747.258 335.57V332.089L755.386 332.574L756.411 344.87Z" fill="#FF5900"/>
<path d="M724.664 332.033L719.873 333.748L710.979 316.094L718.049 313.564L724.664 332.033Z" fill="#FFB6B6"/>
<path d="M730.636 336.693L727.484 338.531L725.186 335.884L725.481 339.699L717.122 344.574C716.721 344.808 716.256 344.907 715.795 344.858C715.334 344.809 714.901 344.614 714.558 344.301C714.216 343.988 713.982 343.574 713.892 343.119C713.802 342.664 713.859 342.192 714.056 341.772L718.042 333.271L716.287 330.264L723.553 326.588L730.636 336.693Z" fill="#FF5900"/>
<path d="M754.869 324.396H754.808L753.727 289.139C754.427 287.789 754.782 286.288 754.761 284.768C754.74 283.248 754.343 281.757 753.606 280.427L753.451 280.147L753.852 278.286C754.368 275.896 754.131 273.405 753.175 271.155L752.166 238.267C755.771 214.914 738.875 196.628 738.875 196.628H711.842L707.336 218.659L692.912 273.784C692.272 274.755 691.874 275.866 691.751 277.022C691.628 278.179 691.783 279.348 692.204 280.432L712.69 320.947L712.532 321.027C712.232 321.194 712.008 321.47 711.907 321.798C711.805 322.126 711.834 322.48 711.987 322.787C712.254 323.563 712.933 324.032 713.501 323.836L721.487 319.798C721.787 319.631 722.01 319.355 722.112 319.027C722.213 318.7 722.185 318.346 722.032 318.038C721.764 317.263 721.086 316.793 720.517 316.989L719.593 317.457L713.412 287.001L713.194 280.786L713.644 273.737L726.935 243.554L734.82 282.549L746.44 324.788C746.218 324.989 746.062 325.253 745.993 325.544C745.924 325.836 745.945 326.141 746.053 326.421C746.161 326.7 746.351 326.94 746.599 327.109C746.846 327.278 747.139 327.368 747.439 327.367H754.869C755.264 327.367 755.642 327.21 755.92 326.932C756.199 326.653 756.356 326.275 756.356 325.881C756.356 325.487 756.199 325.109 755.92 324.831C755.642 324.552 755.264 324.396 754.869 324.396Z" fill="#2F2E41"/>
<path d="M741.896 181.029L741.175 189.081C741.175 189.081 740.863 195.767 739.875 197.245C738.894 198.716 712.129 198.901 712.129 198.901C712.129 198.901 710.361 189.371 708.837 181.029H741.896Z" fill="#FFB6B6"/>
<path d="M728.493 130.857C736.088 130.857 742.245 124.702 742.245 117.109C742.245 109.516 736.088 103.361 728.493 103.361C720.898 103.361 714.741 109.516 714.741 117.109C714.741 124.702 720.898 130.857 728.493 130.857Z" fill="#FFB6B6"/>
<path d="M735.505 135.228L724.468 136.526C724.002 136.581 723.565 136.779 723.218 137.094C722.871 137.409 722.631 137.824 722.53 138.282L720.775 146.311L709.833 159.193C709.833 159.193 705.904 166.558 707.377 174.905C708.851 183.253 709.498 189.455 709.498 189.455C709.498 189.455 738.85 200.457 739.833 198.984C740.815 197.511 741.134 190.82 741.134 190.82L745.063 147.12C745.063 147.12 740.642 139.755 738.187 139.755C736.602 139.702 736.805 136.136 735.505 135.228Z" fill="#FF5900"/>
<path opacity="0.2" d="M730.676 161.722L725.766 198.057L720.614 198.325L730.676 161.722Z" fill="black"/>
<path d="M709.245 190.401C710.793 190.401 712.047 188.896 712.047 187.039C712.047 185.182 710.793 183.677 709.245 183.677C707.697 183.677 706.442 185.182 706.442 187.039C706.442 188.896 707.697 190.401 709.245 190.401Z" fill="#FF5900"/>
<path d="M728.446 231.937C729.03 231.356 729.48 230.654 729.763 229.881C730.047 229.107 730.157 228.281 730.086 227.46C730.016 226.64 729.766 225.844 729.355 225.131C728.943 224.417 728.381 223.802 727.706 223.329L736.906 178.814L726.98 181.945L719.578 225.009C718.858 226.195 718.599 227.604 718.849 228.968C719.099 230.332 719.841 231.557 720.934 232.411C722.027 233.265 723.395 233.689 724.78 233.601C726.164 233.514 727.469 232.922 728.446 231.937Z" fill="#FFB6B6"/>
<path d="M735.719 140.952C735.719 140.952 742.333 138.089 746.349 145.296C750.365 152.502 744.569 177.548 743.756 181.613C742.943 185.678 731.79 205.054 731.79 205.054L720.644 202.826L735.719 140.952Z" fill="#FF5900"/>
<path d="M722.238 103.966C727.006 100.688 731.206 100.188 734.655 101.118C735.102 100.427 735.729 99.87 736.469 99.5079C739.159 92.7311 747.346 88.6613 754.372 90.6397C761.444 92.6309 766.323 100.462 764.992 107.685C764.168 112.162 761.349 116.039 760.216 120.448C758.021 128.984 763.375 138.761 771.749 141.512C763.82 143.104 755.092 138.262 752.247 130.693C750.865 127.017 750.782 123.003 750.606 119.08C750.431 115.157 750.114 111.115 748.336 107.614C747.144 105.212 745.164 103.292 742.727 102.173C742.945 102.848 742.999 103.565 742.886 104.265C742.772 104.965 742.494 105.628 742.073 106.2C743.933 108.528 744.945 111.047 744.945 112.555C748.808 119.613 743.284 125.676 736.223 129.538C733.407 131.086 730.156 131.653 726.981 131.149L726.686 129.888L726.286 131.024L724.95 134.831C723.409 135.576 721.881 136.393 720.366 137.282C720.942 134.58 721.407 131.884 721.727 129.248C722.171 125.66 720.625 120.318 719.51 117.07C718.819 115.068 718.464 112.965 718.46 110.847V110.754L717.374 114.241L713.421 112.555C714.157 108.338 713.421 103.551 722.238 103.966Z" fill="#2F2E41"/>
<path d="M804 346.116C803.999 346.35 803.906 346.575 803.74 346.74C803.575 346.906 803.35 346.999 803.116 347H635.714C635.479 347 635.254 346.907 635.089 346.741C634.923 346.575 634.83 346.35 634.83 346.116C634.83 345.882 634.923 345.657 635.089 345.491C635.254 345.325 635.479 345.232 635.714 345.232H803.116C803.232 345.232 803.347 345.254 803.455 345.299C803.562 345.343 803.66 345.408 803.742 345.49C803.824 345.572 803.889 345.67 803.933 345.777C803.978 345.885 804 346 804 346.116Z" fill="#FF5900"/>
</svg>
