<svg width="608" height="392" viewBox="0 0 608 392" fill="none" xmlns="http://www.w3.org/2000/svg">
<path d="M141.698 181.957C138.835 171.51 161.931 162.551 167.996 170.965C168.839 169.768 171.956 169.042 173.386 169.409C174.816 169.776 176.019 170.693 177.192 171.581C178.806 172.821 180.478 174.105 181.468 175.889C182.465 177.664 182.619 180.086 181.277 181.627C180.214 182.853 177.075 183.645 175.476 183.968C174.362 184.195 173.423 184.379 172.616 184.511C171.898 183.462 171.531 182.163 171.663 180.893C170.578 181.612 169.844 182.845 169.727 184.151C169.705 184.423 178.74 217.687 178.74 217.687C177.808 218.238 176.657 218.751 175.33 219.221C173.078 215.823 171.23 211.817 170.013 207.627C169.734 210.217 169.778 213.027 170.115 215.882C170.291 217.401 170.556 218.927 170.893 220.454C160.157 222.773 144.008 222.01 136.983 212.147C136.981 212.106 136.98 212.065 136.979 212.024C136.929 210.179 134.413 209.72 133.739 211.439C133.569 211.874 133.412 212.251 133.272 212.551C131.226 205.227 133.873 196.751 141.698 181.957Z" fill="#2F2E41"/>
<path d="M287.635 264.803C285.094 267.818 280.593 268.201 277.58 265.659C277.288 265.413 277.016 265.144 276.768 264.854L242.862 275.6L237.586 266.946L277.949 254.478C281.116 252.14 285.577 252.814 287.914 255.982C289.869 258.634 289.753 262.28 287.635 264.803Z" fill="#FFB6B6"/>
<path d="M167.561 237.951C167.561 237.951 182.575 221.051 189.116 228.23C195.656 235.409 216.062 266.866 216.062 266.866L263.695 256.81L268.301 269.389L214.216 286.926C210.15 288.245 205.694 286.878 203.066 283.505L167.561 237.951Z" fill="#FF5900"/>
<path d="M200.171 392H125.699L125.631 391.418L125.587 391.03L124.948 385.6L124.042 377.868L123.693 374.896C123.669 374.745 123.645 374.6 123.625 374.45C123.32 372.515 123.146 370.571 123.083 368.632C122.991 365.965 123.112 363.304 123.398 360.676V360.662C123.553 359.241 123.751 357.835 123.998 356.444C124.308 354.655 124.681 352.895 125.113 351.174C125.607 349.176 126.169 347.232 126.784 345.356C127.492 343.16 128.267 341.056 129.066 339.068C129.153 338.855 129.241 338.641 129.323 338.433L129.328 338.428C133.543 328.145 138.33 321.12 138.33 321.12H192.584C192.584 321.12 195.094 332.14 196.339 341.24C196.538 342.68 196.702 344.066 196.824 345.356C197.042 347.736 197.105 349.782 196.916 351.174C196.799 352.037 196.586 352.648 196.257 352.929C193.272 355.479 196.688 360.889 196.688 360.889C196.688 360.889 199.246 364.802 197.017 367.003C196.576 367.439 196.325 368.002 196.203 368.632C196.01 369.674 196.179 370.886 196.446 371.958C196.712 373.034 197.08 373.97 197.284 374.45C197.376 374.663 197.434 374.784 197.434 374.784L197.812 377.776L198.18 380.655L198.805 385.6L198.994 386.473L199.968 391.03L200.05 391.418L200.171 392Z" fill="#2F2E41"/>
<path d="M162.554 214.83L139.784 216.86L135.587 229.928L131.013 230.591C123.198 231.723 118.546 239.926 121.583 247.22L125.607 256.887C125.607 256.887 119.696 275.144 126.956 282.815L130.045 316.601L123.076 338.874L204.537 341.505L190.661 313.567L190.25 296.221C190.25 296.221 199.116 264.867 190.896 254.894L187.689 226.528L170.978 224.019L162.554 214.83Z" fill="#FF5900"/>
<path d="M177.97 198.064C180.316 187.937 174.014 177.824 163.894 175.476C153.773 173.128 143.667 179.435 141.32 189.562C138.974 199.689 145.276 209.802 155.397 212.15C165.517 214.498 175.623 208.191 177.97 198.064Z" fill="#FFB6B6"/>
<path d="M131.431 183.425C128.568 172.978 151.664 164.019 157.729 172.432C158.573 171.236 161.689 170.51 163.119 170.876C164.549 171.243 165.752 172.161 166.925 173.049C168.539 174.289 170.211 175.573 171.201 177.356C172.198 179.132 172.352 181.554 171.01 183.095C169.947 184.32 166.808 185.113 165.209 185.436C164.095 185.663 163.156 185.847 162.349 185.979C161.631 184.929 161.264 183.63 161.396 182.361C160.311 183.08 159.577 184.313 159.46 185.619C159.438 185.891 168.473 219.155 168.473 219.155C167.541 219.705 166.39 220.219 165.063 220.689C162.811 217.291 160.963 213.284 159.746 209.094C159.467 211.685 159.511 214.495 159.849 217.35C160.025 218.869 160.289 220.395 160.626 221.921C149.89 224.24 133.741 223.477 126.716 213.615C126.715 213.574 126.713 213.533 126.712 213.492C126.662 211.647 124.146 211.188 123.472 212.907C123.302 213.342 123.145 213.719 123.005 214.018C120.959 206.695 123.606 198.219 131.431 183.425Z" fill="#2F2E41"/>
<path d="M292.231 391.418H39.3221L0.0775146 391.903L275.304 375.461C284.485 374.912 292.231 382.215 292.231 391.418Z" fill="#3F3D56"/>
<path d="M316.569 172H258.432C257.091 172 256 170.878 256 169.5C256 168.121 257.091 167 258.432 167H316.569C317.91 167 319 168.121 319 169.5C319 170.878 317.91 172 316.569 172Z" fill="#FF5900"/>
<path d="M284.158 180.413C283.917 179.862 283.082 179.862 282.84 180.413C281.154 184.254 278.753 188.556 276.142 191.844C275.724 192.37 276.3 193.074 276.964 192.852L282.562 190.98V223H284.436V190.98L290.036 192.852C290.7 193.074 291.276 192.371 290.858 191.844C288.247 188.556 285.846 184.254 284.158 180.413Z" fill="#3F3D56"/>
<path d="M126.924 375.205C128.962 371.83 127.879 367.441 124.506 365.401C124.179 365.204 123.837 365.033 123.483 364.89L122.768 329.309L112.884 327.087L114.042 369.341C112.846 373.093 114.916 377.104 118.665 378.301C121.802 379.303 125.216 378.023 126.924 375.205Z" fill="#FFB6B6"/>
<path d="M133.8 234.823C133.8 234.823 121.687 231.914 117.811 240.156C113.935 248.398 113.605 284.263 113.605 284.263L111.513 356.996L126.877 356.319L139.129 266.821L133.8 234.823Z" fill="#FF5900"/>
<path d="M128.363 385.937C128.636 386.279 129.05 386.478 129.487 386.475H208.141C208.94 386.474 209.587 385.825 209.586 385.025C209.586 384.926 209.576 384.827 209.556 384.73L208.335 378.927C208.232 378.446 207.893 378.05 207.433 377.875C207.27 377.811 207.096 377.778 206.92 377.778H130.703C130.527 377.778 130.353 377.811 130.189 377.875C129.73 378.05 129.391 378.446 129.288 378.927L128.067 384.73C127.979 385.156 128.088 385.6 128.363 385.937Z" fill="#CCCCCC"/>
<path d="M98.2512 256.026V346.813C98.2531 349.222 100.204 351.174 102.612 351.176H237.061C239.468 351.174 241.419 349.222 241.421 346.813V256.026C241.415 253.62 239.466 251.671 237.061 251.668H102.612C100.207 251.671 98.257 253.62 98.2512 256.026Z" fill="#E6E6E6"/>
<path d="M186.649 331.762C186.489 331.708 186.32 331.684 186.15 331.684H154.696C153.771 331.684 153.015 332.436 153.015 333.362V383.084H187.826V333.362C187.826 332.63 187.352 331.98 186.649 331.762ZM174.033 356.216C174.023 358.271 172.351 359.93 170.297 359.92C168.257 359.905 166.61 358.257 166.6 356.216V350.447C166.62 348.396 168.301 346.747 170.35 346.767C172.376 346.786 174.013 348.425 174.033 350.447V356.216Z" fill="#CCCCCC"/>
<path d="M424.406 215.314H384.662C383.746 215.314 383 214.571 383 213.657C383 212.743 383.746 212 384.662 212H424.406C425.322 212 426.068 212.743 426.068 213.657C426.068 214.571 425.322 215.314 424.406 215.314Z" fill="#F2F2F2"/>
<path d="M404.013 218.275C403.865 217.908 403.352 217.908 403.203 218.275C402.167 220.831 400.692 223.694 399.087 225.881C398.83 226.232 399.184 226.7 399.593 226.552L403.032 225.307V246.613H404.184V225.307L407.625 226.552C408.033 226.7 408.387 226.232 408.13 225.881C406.526 223.694 405.05 220.831 404.013 218.275Z" fill="#F2F2F2"/>
<path d="M403.636 267.283C408.406 267.283 412.272 263.414 412.272 258.642C412.272 253.869 408.406 250 403.636 250C398.867 250 395 253.869 395 258.642C395 263.414 398.867 267.283 403.636 267.283Z" fill="#F2F2F2"/>
<path d="M511.406 275.314H471.662C470.746 275.314 470 274.571 470 273.657C470 272.743 470.746 272 471.662 272H511.406C512.322 272 513.068 272.743 513.068 273.657C513.068 274.571 512.322 275.314 511.406 275.314Z" fill="#F2F2F2"/>
<path d="M491.519 280.659C491.37 280.292 490.857 280.292 490.709 280.659C489.673 283.215 488.197 286.078 486.593 288.265C486.336 288.615 486.69 289.083 487.098 288.936L490.538 287.69V308.997H491.69V287.69L495.131 288.936C495.539 289.084 495.893 288.616 495.636 288.265C494.031 286.078 492.556 283.215 491.519 280.659Z" fill="#F2F2F2"/>
<path d="M490.704 329.473C495.473 329.473 499.34 325.604 499.34 320.832C499.34 316.059 495.473 312.19 490.704 312.19C485.934 312.19 482.068 316.059 482.068 320.832C482.068 325.604 485.934 329.473 490.704 329.473Z" fill="#F2F2F2"/>
<path d="M604.689 252H462.311C461.433 251.999 460.592 251.649 459.971 251.026C459.35 250.403 459.001 249.559 459 248.678V160.322C459.001 159.441 459.35 158.597 459.971 157.974C460.592 157.351 461.433 157.001 462.311 157H604.689C605.567 157.001 606.408 157.351 607.029 157.974C607.65 158.597 607.999 159.441 608 160.322V248.678C607.999 249.559 607.65 250.403 607.029 251.026C606.408 251.649 605.567 251.999 604.689 252Z" fill="#ECECEC"/>
<path d="M604.689 252H462.311C461.433 251.999 460.592 251.649 459.971 251.026C459.35 250.403 459.001 249.559 459 248.678V160.322C459.001 159.441 459.35 158.597 459.971 157.974C460.592 157.351 461.433 157.001 462.311 157H604.689C605.567 157.001 606.408 157.351 607.029 157.974C607.65 158.597 607.999 159.441 608 160.322V248.678C607.999 249.559 607.65 250.403 607.029 251.026C606.408 251.649 605.567 251.999 604.689 252ZM462.311 158.329C461.784 158.329 461.279 158.539 460.907 158.913C460.535 159.287 460.325 159.793 460.324 160.322V248.678C460.325 249.207 460.535 249.713 460.907 250.087C461.279 250.461 461.784 250.671 462.311 250.671H604.689C605.216 250.671 605.721 250.461 606.093 250.087C606.465 249.713 606.675 249.207 606.676 248.678V160.322C606.675 159.793 606.465 159.287 606.093 158.913C605.721 158.539 605.216 158.329 604.689 158.329H462.311Z" fill="#3F3D56"/>
<path d="M576.022 187H489.978C489.188 187 488.431 186.684 487.872 186.121C487.314 185.559 487 184.796 487 184C487 183.204 487.314 182.441 487.872 181.879C488.431 181.316 489.188 181 489.978 181H576.022C576.812 181 577.569 181.316 578.128 181.879C578.686 182.441 579 183.204 579 184C579 184.796 578.686 185.559 578.128 186.121C577.569 186.684 576.812 187 576.022 187Z" fill="#FFB6B6"/>
<path d="M576.022 208H489.978C489.188 208 488.431 207.684 487.872 207.121C487.314 206.559 487 205.796 487 205C487 204.204 487.314 203.441 487.872 202.879C488.431 202.316 489.188 202 489.978 202H576.022C576.812 202 577.569 202.316 578.128 202.879C578.686 203.441 579 204.204 579 205C579 205.796 578.686 206.559 578.128 207.121C577.569 207.684 576.812 208 576.022 208Z" fill="#FFB6B6"/>
<path d="M568.5 240C574.299 240 579 235.299 579 229.5C579 223.701 574.299 219 568.5 219C562.701 219 558 223.701 558 229.5C558 235.299 562.701 240 568.5 240Z" fill="#FF5900"/>
<path d="M568.948 224.064V223H569.282V224.064C569.753 224.083 570.216 224.19 570.644 224.378C570.955 224.516 571.223 224.727 571.422 224.991C571.606 225.235 571.705 225.527 571.703 225.827C571.71 226.046 571.633 226.26 571.485 226.429C571.421 226.505 571.34 226.568 571.247 226.61C571.154 226.652 571.051 226.674 570.948 226.674C570.871 226.675 570.794 226.661 570.723 226.634C570.652 226.606 570.587 226.565 570.533 226.513C570.478 226.461 570.434 226.398 570.404 226.33C570.375 226.261 570.361 226.188 570.363 226.114C570.363 226.01 570.386 225.908 570.43 225.813L570.563 225.547C570.61 225.436 570.633 225.317 570.63 225.197C570.633 225.012 570.571 224.831 570.452 224.683C570.322 224.528 570.147 224.413 569.948 224.35C569.732 224.283 569.508 224.241 569.282 224.224V228.052L569.356 228.094C570.052 228.442 570.684 228.893 571.23 229.43C571.471 229.7 571.662 230.007 571.796 230.337C571.929 230.656 571.998 230.997 572 231.341C572.006 231.785 571.883 232.223 571.644 232.607C571.411 232.981 571.069 233.285 570.659 233.482C570.227 233.682 569.761 233.81 569.282 233.859V235H568.948V233.88C568.465 233.877 567.987 233.784 567.541 233.608C567.096 233.451 566.704 233.186 566.404 232.838C566.141 232.526 565.998 232.138 566.001 231.739C565.991 231.459 566.083 231.184 566.26 230.959C566.33 230.862 566.424 230.782 566.533 230.727C566.643 230.672 566.765 230.642 566.889 230.641C566.964 230.638 567.038 230.65 567.108 230.676C567.177 230.702 567.24 230.741 567.293 230.791C567.346 230.84 567.387 230.9 567.414 230.965C567.442 231.031 567.455 231.101 567.452 231.171C567.427 231.387 567.331 231.589 567.178 231.751C567.098 231.851 567.03 231.958 566.975 232.072C566.937 232.161 566.918 232.256 566.919 232.351C566.92 232.606 567.013 232.854 567.182 233.053C567.366 233.276 567.611 233.448 567.889 233.552C568.208 233.669 568.547 233.726 568.889 233.72H568.948V229.15L568.526 228.92C568.126 228.7 567.821 228.518 567.611 228.374C567.406 228.233 567.217 228.074 567.045 227.898C566.619 227.47 566.384 226.904 566.386 226.317C566.384 225.951 566.481 225.591 566.667 225.271C566.85 224.951 567.118 224.682 567.445 224.49C567.9 224.231 568.417 224.084 568.948 224.064ZM568.948 224.217C568.661 224.226 568.379 224.285 568.115 224.392C567.852 224.516 567.635 224.713 567.496 224.958C567.337 225.224 567.255 225.525 567.26 225.831C567.257 226.203 567.378 226.567 567.606 226.871C567.727 227.037 567.872 227.185 568.038 227.311C568.305 227.5 568.585 227.672 568.875 227.828L568.948 227.87V224.217ZM569.282 233.706C569.473 233.69 569.661 233.653 569.842 233.594C569.989 233.54 570.126 233.464 570.248 233.37C570.476 233.186 570.653 232.951 570.764 232.688C570.892 232.396 570.958 232.083 570.955 231.767C570.926 231.261 570.756 230.77 570.462 230.345C570.168 229.92 569.761 229.576 569.282 229.346V233.706Z" fill="white"/>
<path d="M507.667 193H364.333C363.45 192.999 362.602 192.649 361.977 192.026C361.353 191.403 361.001 190.559 361 189.678V101.322C361.001 100.441 361.353 99.5967 361.977 98.974C362.602 98.3513 363.45 98.001 364.333 98H507.667C508.55 98.001 509.398 98.3513 510.023 98.974C510.647 99.5967 510.999 100.441 511 101.322V189.678C510.999 190.559 510.647 191.403 510.023 192.026C509.398 192.649 508.55 192.999 507.667 193Z" fill="#ECECEC"/>
<path d="M507.667 193H364.333C363.45 192.999 362.602 192.649 361.977 192.026C361.353 191.403 361.001 190.559 361 189.678V101.322C361.001 100.441 361.353 99.5967 361.977 98.974C362.602 98.3513 363.45 98.001 364.333 98H507.667C508.55 98.001 509.398 98.3513 510.023 98.974C510.647 99.5967 510.999 100.441 511 101.322V189.678C510.999 190.559 510.647 191.403 510.023 192.026C509.398 192.649 508.55 192.999 507.667 193ZM364.333 99.3287C363.803 99.3293 363.295 99.5394 362.92 99.913C362.545 100.287 362.334 100.793 362.333 101.322V189.678C362.334 190.207 362.545 190.713 362.92 191.087C363.295 191.461 363.803 191.671 364.333 191.671H507.667C508.197 191.671 508.705 191.461 509.08 191.087C509.455 190.713 509.666 190.207 509.667 189.678V101.322C509.666 100.793 509.455 100.287 509.08 99.913C508.705 99.5394 508.197 99.3293 507.667 99.3287H364.333Z" fill="#3F3D56"/>
<path d="M479.022 128H392.978C392.188 128 391.431 127.684 390.872 127.121C390.314 126.559 390 125.796 390 125C390 124.204 390.314 123.441 390.872 122.879C391.431 122.316 392.188 122 392.978 122H479.022C479.812 122 480.569 122.316 481.128 122.879C481.686 123.441 482 124.204 482 125C482 125.796 481.686 126.559 481.128 127.121C480.569 127.684 479.812 128 479.022 128Z" fill="#FFB6B6"/>
<path d="M479.022 148H392.978C392.188 148 391.431 147.684 390.872 147.121C390.314 146.559 390 145.796 390 145C390 144.204 390.314 143.441 390.872 142.879C391.431 142.316 392.188 142 392.978 142H479.022C479.812 142 480.569 142.316 481.128 142.879C481.686 143.441 482 144.204 482 145C482 145.796 481.686 146.559 481.128 147.121C480.569 147.684 479.812 148 479.022 148Z" fill="#FFB6B6"/>
<path d="M471.5 181C477.299 181 482 176.299 482 170.5C482 164.701 477.299 160 471.5 160C465.701 160 461 164.701 461 170.5C461 176.299 465.701 181 471.5 181Z" fill="#FF5900"/>
<path d="M471.457 165.064V164H471.735V165.064C472.128 165.083 472.514 165.19 472.87 165.378C473.129 165.516 473.352 165.727 473.518 165.991C473.672 166.235 473.754 166.527 473.753 166.827C473.759 167.046 473.694 167.26 473.571 167.429C473.518 167.505 473.45 167.568 473.372 167.61C473.295 167.652 473.209 167.674 473.123 167.674C473.059 167.675 472.995 167.661 472.936 167.634C472.876 167.606 472.823 167.565 472.778 167.513C472.731 167.461 472.695 167.398 472.67 167.33C472.646 167.261 472.634 167.188 472.636 167.114C472.636 167.01 472.655 166.908 472.691 166.813L472.802 166.547C472.842 166.436 472.861 166.317 472.858 166.197C472.861 166.012 472.809 165.831 472.71 165.683C472.602 165.528 472.456 165.413 472.29 165.35C472.11 165.283 471.924 165.241 471.735 165.224V169.052L471.796 169.094C472.377 169.442 472.904 169.893 473.358 170.43C473.559 170.7 473.719 171.007 473.83 171.337C473.941 171.656 473.998 171.997 474 172.341C474.005 172.785 473.902 173.223 473.704 173.607C473.509 173.981 473.224 174.285 472.883 174.482C472.522 174.682 472.134 174.81 471.735 174.859V176H471.457V174.88C471.054 174.877 470.656 174.784 470.284 174.608C469.914 174.451 469.587 174.186 469.337 173.838C469.117 173.526 468.998 173.138 469.001 172.739C468.993 172.459 469.069 172.184 469.217 171.959C469.275 171.862 469.353 171.782 469.444 171.727C469.536 171.672 469.638 171.642 469.741 171.641C469.803 171.638 469.865 171.65 469.923 171.676C469.981 171.702 470.033 171.741 470.077 171.791C470.121 171.84 470.156 171.9 470.179 171.965C470.202 172.031 470.212 172.101 470.21 172.171C470.189 172.387 470.109 172.589 469.982 172.751C469.915 172.851 469.858 172.958 469.812 173.072C469.78 173.161 469.765 173.256 469.766 173.351C469.767 173.606 469.844 173.854 469.985 174.053C470.139 174.276 470.342 174.448 470.574 174.552C470.84 174.669 471.123 174.726 471.408 174.72H471.457V170.15L471.105 169.92C470.772 169.7 470.518 169.518 470.343 169.374C470.172 169.233 470.014 169.074 469.871 168.898C469.516 168.47 469.32 167.904 469.321 167.317C469.32 166.951 469.4 166.591 469.556 166.271C469.708 165.951 469.932 165.682 470.204 165.49C470.583 165.231 471.014 165.084 471.457 165.064ZM471.457 165.217C471.218 165.226 470.982 165.285 470.763 165.392C470.543 165.516 470.363 165.713 470.246 165.958C470.114 166.224 470.046 166.525 470.05 166.831C470.047 167.203 470.148 167.567 470.338 167.871C470.439 168.037 470.56 168.185 470.698 168.311C470.921 168.5 471.154 168.672 471.396 168.828L471.457 168.87V165.217ZM471.735 174.706C471.894 174.69 472.051 174.653 472.202 174.594C472.324 174.54 472.438 174.464 472.54 174.37C472.73 174.186 472.878 173.951 472.97 173.688C473.077 173.396 473.131 173.083 473.13 172.767C473.105 172.261 472.963 171.77 472.718 171.345C472.473 170.92 472.134 170.576 471.735 170.346V174.706Z" fill="white"/>
<path d="M407.689 133H265.311C264.433 132.999 263.592 132.649 262.971 132.026C262.35 131.403 262.001 130.559 262 129.678V41.3217C262.001 40.441 262.35 39.5967 262.971 38.974C263.592 38.3513 264.433 38.001 265.311 38H407.689C408.567 38.001 409.408 38.3513 410.029 38.974C410.65 39.5967 410.999 40.441 411 41.3217V129.678C410.999 130.559 410.65 131.403 410.029 132.026C409.408 132.649 408.567 132.999 407.689 133Z" fill="#ECECEC"/>
<path d="M407.689 133H265.311C264.433 132.999 263.592 132.649 262.971 132.026C262.35 131.403 262.001 130.559 262 129.678V41.3217C262.001 40.441 262.35 39.5967 262.971 38.974C263.592 38.3513 264.433 38.001 265.311 38H407.689C408.567 38.001 409.408 38.3513 410.029 38.974C410.65 39.5967 410.999 40.441 411 41.3217V129.678C410.999 130.559 410.65 131.403 410.029 132.026C409.408 132.649 408.567 132.999 407.689 133ZM265.311 39.3287C264.784 39.3292 264.279 39.5394 263.907 39.9131C263.535 40.2867 263.325 40.7933 263.324 41.3217V129.678C263.325 130.207 263.535 130.713 263.907 131.087C264.279 131.461 264.784 131.671 265.311 131.671H407.689C408.216 131.671 408.721 131.461 409.093 131.087C409.465 130.713 409.675 130.207 409.676 129.678V41.3217C409.675 40.7933 409.465 40.2867 409.093 39.9131C408.721 39.5394 408.216 39.3292 407.689 39.3287H265.311Z" fill="#3F3D56"/>
<path d="M380.022 68H293.978C293.188 68 292.431 67.6839 291.872 67.1213C291.314 66.5587 291 65.7956 291 65C291 64.2043 291.314 63.4413 291.872 62.8787C292.431 62.3161 293.188 62 293.978 62H380.022C380.812 62 381.569 62.3161 382.128 62.8787C382.686 63.4413 383 64.2043 383 65C383 65.7956 382.686 66.5587 382.128 67.1213C381.569 67.6839 380.812 68 380.022 68Z" fill="#FFB6B6"/>
<path d="M380.022 88H293.978C293.188 88 292.431 87.6839 291.872 87.1213C291.314 86.5587 291 85.7957 291 85C291 84.2043 291.314 83.4413 291.872 82.8787C292.431 82.3161 293.188 82 293.978 82H380.022C380.812 82 381.569 82.3161 382.128 82.8787C382.686 83.4413 383 84.2043 383 85C383 85.7957 382.686 86.5587 382.128 87.1213C381.569 87.6839 380.812 88 380.022 88Z" fill="#FFB6B6"/>
<path d="M372.5 121C378.299 121 383 116.075 383 110C383 103.925 378.299 99 372.5 99C366.701 99 362 103.925 362 110C362 116.075 366.701 121 372.5 121Z" fill="#FF5900"/>
<path d="M372.457 105.064V104H372.735V105.064C373.128 105.083 373.514 105.19 373.87 105.378C374.129 105.516 374.352 105.727 374.518 105.991C374.672 106.235 374.754 106.527 374.753 106.827C374.759 107.046 374.694 107.26 374.571 107.429C374.518 107.505 374.45 107.568 374.372 107.61C374.295 107.652 374.209 107.674 374.123 107.674C374.059 107.675 373.995 107.661 373.936 107.634C373.876 107.606 373.823 107.565 373.778 107.513C373.731 107.461 373.695 107.398 373.67 107.33C373.646 107.261 373.634 107.188 373.636 107.114C373.636 107.01 373.655 106.908 373.691 106.813L373.802 106.547C373.842 106.436 373.861 106.317 373.858 106.197C373.861 106.012 373.809 105.831 373.71 105.683C373.602 105.528 373.456 105.413 373.29 105.35C373.11 105.283 372.924 105.241 372.735 105.224V109.052L372.796 109.094C373.377 109.442 373.904 109.893 374.358 110.43C374.559 110.7 374.719 111.007 374.83 111.337C374.941 111.656 374.998 111.997 375 112.341C375.005 112.785 374.902 113.223 374.704 113.607C374.509 113.981 374.224 114.285 373.883 114.482C373.522 114.682 373.134 114.81 372.735 114.859V116H372.457V114.88C372.054 114.877 371.656 114.784 371.284 114.608C370.914 114.451 370.587 114.186 370.337 113.838C370.117 113.526 369.998 113.138 370.001 112.739C369.993 112.459 370.069 112.184 370.217 111.959C370.275 111.862 370.353 111.782 370.444 111.727C370.536 111.672 370.638 111.642 370.741 111.641C370.803 111.638 370.865 111.65 370.923 111.676C370.981 111.702 371.033 111.741 371.077 111.791C371.121 111.84 371.156 111.9 371.179 111.965C371.202 112.031 371.212 112.101 371.21 112.171C371.189 112.387 371.109 112.589 370.982 112.751C370.915 112.851 370.858 112.958 370.812 113.072C370.78 113.161 370.765 113.256 370.766 113.351C370.767 113.606 370.844 113.854 370.985 114.053C371.139 114.276 371.342 114.448 371.574 114.552C371.84 114.669 372.123 114.726 372.408 114.72H372.457V110.15L372.105 109.92C371.772 109.7 371.518 109.518 371.343 109.374C371.172 109.233 371.014 109.074 370.871 108.898C370.516 108.47 370.32 107.904 370.321 107.317C370.32 106.951 370.4 106.591 370.556 106.271C370.708 105.951 370.932 105.682 371.204 105.49C371.583 105.231 372.014 105.084 372.457 105.064ZM372.457 105.217C372.218 105.226 371.982 105.285 371.763 105.392C371.543 105.516 371.363 105.713 371.246 105.958C371.114 106.224 371.046 106.525 371.05 106.831C371.047 107.203 371.148 107.567 371.338 107.871C371.439 108.037 371.56 108.185 371.698 108.311C371.921 108.5 372.154 108.672 372.396 108.828L372.457 108.87V105.217ZM372.735 114.706C372.894 114.69 373.051 114.653 373.202 114.594C373.324 114.54 373.438 114.464 373.54 114.37C373.73 114.186 373.878 113.951 373.97 113.688C374.077 113.396 374.131 113.083 374.13 112.767C374.105 112.261 373.963 111.77 373.718 111.345C373.473 110.92 373.134 110.576 372.735 110.346V114.706Z" fill="white"/>
<path d="M312.513 3.45455C312.462 3.02273 312.255 2.6875 311.891 2.44886C311.527 2.21023 311.081 2.09091 310.553 2.09091C310.167 2.09091 309.828 2.15341 309.539 2.27841C309.252 2.40341 309.027 2.57528 308.865 2.79403C308.706 3.01278 308.627 3.26136 308.627 3.53977C308.627 3.77273 308.682 3.97301 308.793 4.14062C308.907 4.3054 309.051 4.44318 309.228 4.55398C309.404 4.66193 309.588 4.75142 309.782 4.82244C309.975 4.89062 310.152 4.94602 310.314 4.98864L311.201 5.22727C311.428 5.28693 311.681 5.36932 311.959 5.47443C312.24 5.57955 312.509 5.72301 312.765 5.90483C313.023 6.08381 313.236 6.31392 313.404 6.59517C313.571 6.87642 313.655 7.22159 313.655 7.63068C313.655 8.10227 313.532 8.52841 313.284 8.90909C313.04 9.28977 312.682 9.59233 312.211 9.81676C311.742 10.0412 311.172 10.1534 310.502 10.1534C309.877 10.1534 309.336 10.0526 308.878 9.85085C308.424 9.64915 308.066 9.3679 307.804 9.0071C307.546 8.64631 307.4 8.22727 307.365 7.75H308.456C308.485 8.07955 308.596 8.35227 308.789 8.56818C308.985 8.78125 309.232 8.94034 309.53 9.04545C309.831 9.14773 310.155 9.19886 310.502 9.19886C310.905 9.19886 311.267 9.13352 311.588 9.00284C311.909 8.86932 312.164 8.68466 312.351 8.44886C312.539 8.21023 312.632 7.93182 312.632 7.61364C312.632 7.32386 312.551 7.08807 312.39 6.90625C312.228 6.72443 312.015 6.5767 311.75 6.46307C311.486 6.34943 311.201 6.25 310.894 6.16477L309.82 5.85795C309.138 5.66193 308.598 5.3821 308.201 5.01847C307.803 4.65483 307.604 4.17898 307.604 3.59091C307.604 3.10227 307.736 2.67614 308 2.3125C308.267 1.94602 308.625 1.66193 309.074 1.46023C309.526 1.25568 310.03 1.15341 310.587 1.15341C311.15 1.15341 311.65 1.25426 312.087 1.45597C312.525 1.65483 312.871 1.92756 313.127 2.27415C313.385 2.62074 313.522 3.0142 313.536 3.45455H312.513ZM317.915 10.1364C317.325 10.1364 316.806 9.99574 316.36 9.71449C315.917 9.43324 315.57 9.03977 315.32 8.53409C315.073 8.02841 314.95 7.4375 314.95 6.76136C314.95 6.07955 315.073 5.48437 315.32 4.97585C315.57 4.46733 315.917 4.07244 316.36 3.79119C316.806 3.50994 317.325 3.36932 317.915 3.36932C318.506 3.36932 319.023 3.50994 319.467 3.79119C319.913 4.07244 320.259 4.46733 320.506 4.97585C320.756 5.48437 320.881 6.07955 320.881 6.76136C320.881 7.4375 320.756 8.02841 320.506 8.53409C320.259 9.03977 319.913 9.43324 319.467 9.71449C319.023 9.99574 318.506 10.1364 317.915 10.1364ZM317.915 9.23295C318.364 9.23295 318.734 9.1179 319.023 8.88778C319.313 8.65767 319.528 8.35511 319.667 7.98011C319.806 7.60511 319.876 7.19886 319.876 6.76136C319.876 6.32386 319.806 5.91619 319.667 5.53835C319.528 5.16051 319.313 4.85511 319.023 4.62216C318.734 4.3892 318.364 4.27273 317.915 4.27273C317.467 4.27273 317.097 4.3892 316.808 4.62216C316.518 4.85511 316.303 5.16051 316.164 5.53835C316.025 5.91619 315.955 6.32386 315.955 6.76136C315.955 7.19886 316.025 7.60511 316.164 7.98011C316.303 8.35511 316.518 8.65767 316.808 8.88778C317.097 9.1179 317.467 9.23295 317.915 9.23295ZM325.331 3.45455V4.30682H321.803V3.45455H325.331ZM322.86 10V2.55114C322.86 2.17614 322.948 1.86364 323.124 1.61364C323.3 1.36364 323.529 1.17614 323.81 1.05114C324.091 0.926136 324.388 0.863636 324.701 0.863636C324.948 0.863636 325.15 0.883522 325.306 0.923295C325.462 0.963068 325.578 1 325.655 1.03409L325.365 1.90341C325.314 1.88636 325.243 1.86506 325.152 1.83949C325.064 1.81392 324.948 1.80114 324.803 1.80114C324.471 1.80114 324.23 1.88494 324.083 2.05256C323.938 2.22017 323.865 2.46591 323.865 2.78977V10H322.86ZM329.587 3.45455V4.30682H326.195V3.45455H329.587ZM327.184 1.88636H328.19V8.125C328.19 8.40909 328.231 8.62216 328.313 8.7642C328.398 8.90341 328.506 8.99716 328.637 9.04545C328.771 9.09091 328.911 9.11364 329.059 9.11364C329.17 9.11364 329.261 9.10795 329.332 9.09659C329.403 9.08239 329.46 9.07102 329.502 9.0625L329.707 9.96591C329.638 9.99148 329.543 10.017 329.421 10.0426C329.299 10.071 329.144 10.0852 328.957 10.0852C328.673 10.0852 328.394 10.0241 328.121 9.90199C327.852 9.77983 327.627 9.59375 327.448 9.34375C327.272 9.09375 327.184 8.77841 327.184 8.39773V1.88636ZM332.583 10L330.589 3.45455H331.646L333.06 8.46591H333.129L334.526 3.45455H335.6L336.981 8.44886H337.049L338.464 3.45455H339.521L337.526 10H336.538L335.106 4.97159H335.004L333.572 10H332.583ZM342.776 10.1534C342.362 10.1534 341.985 10.0753 341.647 9.91903C341.309 9.75994 341.04 9.53125 340.842 9.23295C340.643 8.93182 340.543 8.56818 340.543 8.14205C340.543 7.76705 340.617 7.46307 340.765 7.23011C340.913 6.99432 341.11 6.80966 341.357 6.67614C341.604 6.54261 341.877 6.44318 342.175 6.37784C342.477 6.30966 342.779 6.25568 343.083 6.21591C343.481 6.16477 343.803 6.12642 344.05 6.10085C344.3 6.07244 344.482 6.02557 344.596 5.96023C344.712 5.89489 344.771 5.78125 344.771 5.61932V5.58523C344.771 5.16477 344.656 4.83807 344.425 4.60511C344.198 4.37216 343.853 4.25568 343.39 4.25568C342.91 4.25568 342.533 4.3608 342.261 4.57102C341.988 4.78125 341.796 5.00568 341.685 5.24432L340.731 4.90341C340.901 4.50568 341.129 4.19602 341.413 3.97443C341.7 3.75 342.012 3.59375 342.35 3.50568C342.691 3.41477 343.026 3.36932 343.356 3.36932C343.566 3.36932 343.808 3.39489 344.08 3.44602C344.356 3.49432 344.621 3.59517 344.877 3.74858C345.136 3.90199 345.35 4.13352 345.521 4.44318C345.691 4.75284 345.776 5.16761 345.776 5.6875V10H344.771V9.11364H344.719C344.651 9.25568 344.538 9.40767 344.379 9.5696C344.219 9.73153 344.008 9.86932 343.744 9.98295C343.479 10.0966 343.157 10.1534 342.776 10.1534ZM342.93 9.25C343.327 9.25 343.663 9.17188 343.935 9.01562C344.211 8.85938 344.418 8.65767 344.558 8.41051C344.7 8.16335 344.771 7.90341 344.771 7.63068V6.71023C344.728 6.76136 344.634 6.80824 344.489 6.85085C344.347 6.89062 344.183 6.92614 343.995 6.95739C343.81 6.9858 343.63 7.01136 343.454 7.03409C343.281 7.05398 343.14 7.07102 343.032 7.08523C342.771 7.11932 342.526 7.17472 342.299 7.25142C342.075 7.32528 341.893 7.4375 341.754 7.58807C341.617 7.7358 341.549 7.9375 341.549 8.19318C341.549 8.54261 341.678 8.80682 341.937 8.9858C342.198 9.16193 342.529 9.25 342.93 9.25ZM347.612 10V3.45455H348.583V4.44318H348.652C348.771 4.11932 348.987 3.85653 349.299 3.65483C349.612 3.45312 349.964 3.35227 350.356 3.35227C350.43 3.35227 350.522 3.35369 350.633 3.35653C350.744 3.35937 350.828 3.36364 350.885 3.36932V4.39205C350.85 4.38352 350.772 4.37074 350.65 4.35369C350.531 4.33381 350.404 4.32386 350.271 4.32386C349.953 4.32386 349.669 4.39062 349.419 4.52415C349.172 4.65483 348.975 4.83665 348.831 5.0696C348.689 5.29972 348.618 5.5625 348.618 5.85795V10H347.612ZM354.622 10.1364C353.991 10.1364 353.447 9.99716 352.99 9.71875C352.535 9.4375 352.184 9.04545 351.937 8.54261C351.693 8.03693 351.571 7.44886 351.571 6.77841C351.571 6.10795 351.693 5.51705 351.937 5.00568C352.184 4.49148 352.528 4.09091 352.968 3.80398C353.412 3.5142 353.929 3.36932 354.52 3.36932C354.86 3.36932 355.197 3.42614 355.529 3.53977C355.862 3.65341 356.164 3.83807 356.437 4.09375C356.71 4.34659 356.927 4.68182 357.089 5.09943C357.251 5.51705 357.332 6.03125 357.332 6.64205V7.06818H352.287V6.19886H356.309C356.309 5.82955 356.235 5.5 356.088 5.21023C355.943 4.92045 355.735 4.69176 355.466 4.52415C355.199 4.35653 354.883 4.27273 354.52 4.27273C354.119 4.27273 353.772 4.37216 353.48 4.57102C353.19 4.76705 352.967 5.02273 352.811 5.33807C352.654 5.65341 352.576 5.99148 352.576 6.35227V6.93182C352.576 7.42614 352.662 7.84517 352.832 8.18892C353.005 8.52983 353.245 8.78977 353.552 8.96875C353.859 9.14489 354.216 9.23295 354.622 9.23295C354.886 9.23295 355.125 9.19602 355.338 9.12216C355.554 9.04545 355.74 8.93182 355.896 8.78125C356.052 8.62784 356.173 8.4375 356.258 8.21023L357.23 8.48295C357.127 8.8125 356.956 9.10227 356.714 9.35227C356.473 9.59943 356.174 9.79261 355.819 9.93182C355.464 10.0682 355.065 10.1364 354.622 10.1364ZM300.501 25.1364C299.956 25.1364 299.474 24.9986 299.057 24.723C298.639 24.4446 298.313 24.0526 298.077 23.5469C297.841 23.0384 297.723 22.4375 297.723 21.7443C297.723 21.0568 297.841 20.4602 298.077 19.9545C298.313 19.4489 298.641 19.0582 299.061 18.7827C299.482 18.5071 299.967 18.3693 300.518 18.3693C300.945 18.3693 301.281 18.4403 301.528 18.5824C301.778 18.7216 301.969 18.8807 302.099 19.0597C302.233 19.2358 302.337 19.3807 302.411 19.4943H302.496V16.2727H303.501V25H302.53V23.9943H302.411C302.337 24.1136 302.232 24.2642 302.095 24.446C301.959 24.625 301.764 24.7855 301.511 24.9276C301.259 25.0668 300.922 25.1364 300.501 25.1364ZM300.638 24.233C301.041 24.233 301.382 24.1278 301.661 23.9176C301.939 23.7045 302.151 23.4105 302.295 23.0355C302.44 22.6577 302.513 22.2216 302.513 21.7273C302.513 21.2386 302.442 20.8111 302.3 20.4446C302.158 20.0753 301.947 19.7884 301.669 19.5838C301.391 19.3764 301.047 19.2727 300.638 19.2727C300.212 19.2727 299.857 19.3821 299.572 19.6009C299.291 19.8168 299.08 20.1108 298.938 20.483C298.798 20.8523 298.729 21.267 298.729 21.7273C298.729 22.1932 298.8 22.6165 298.942 22.9972C299.087 23.375 299.3 23.6761 299.581 23.9006C299.865 24.1222 300.217 24.233 300.638 24.233ZM308.227 25.1364C307.597 25.1364 307.053 24.9972 306.595 24.7188C306.141 24.4375 305.79 24.0455 305.543 23.5426C305.298 23.0369 305.176 22.4489 305.176 21.7784C305.176 21.108 305.298 20.517 305.543 20.0057C305.79 19.4915 306.134 19.0909 306.574 18.804C307.017 18.5142 307.534 18.3693 308.125 18.3693C308.466 18.3693 308.803 18.4261 309.135 18.5398C309.467 18.6534 309.77 18.8381 310.043 19.0938C310.315 19.3466 310.533 19.6818 310.695 20.0994C310.857 20.517 310.938 21.0312 310.938 21.642V22.0682H305.892V21.1989H309.915C309.915 20.8295 309.841 20.5 309.693 20.2102C309.548 19.9205 309.341 19.6918 309.071 19.5241C308.804 19.3565 308.489 19.2727 308.125 19.2727C307.724 19.2727 307.378 19.3722 307.085 19.571C306.795 19.767 306.572 20.0227 306.416 20.3381C306.26 20.6534 306.182 20.9915 306.182 21.3523V21.9318C306.182 22.4261 306.267 22.8452 306.438 23.1889C306.611 23.5298 306.851 23.7898 307.158 23.9688C307.464 24.1449 307.821 24.233 308.227 24.233C308.491 24.233 308.73 24.196 308.943 24.1222C309.159 24.0455 309.345 23.9318 309.501 23.7812C309.658 23.6278 309.778 23.4375 309.864 23.2102L310.835 23.483C310.733 23.8125 310.561 24.1023 310.32 24.3523C310.078 24.5994 309.78 24.7926 309.425 24.9318C309.07 25.0682 308.67 25.1364 308.227 25.1364ZM317.62 18.4545L315.2 25H314.177L311.757 18.4545H312.848L314.654 23.6705H314.723L316.529 18.4545H317.62ZM321.458 25.1364C320.827 25.1364 320.283 24.9972 319.826 24.7188C319.371 24.4375 319.02 24.0455 318.773 23.5426C318.529 23.0369 318.407 22.4489 318.407 21.7784C318.407 21.108 318.529 20.517 318.773 20.0057C319.02 19.4915 319.364 19.0909 319.804 18.804C320.248 18.5142 320.765 18.3693 321.355 18.3693C321.696 18.3693 322.033 18.4261 322.365 18.5398C322.698 18.6534 323 18.8381 323.273 19.0938C323.546 19.3466 323.763 19.6818 323.925 20.0994C324.087 20.517 324.168 21.0312 324.168 21.642V22.0682H319.123V21.1989H323.145C323.145 20.8295 323.071 20.5 322.924 20.2102C322.779 19.9205 322.571 19.6918 322.301 19.5241C322.034 19.3565 321.719 19.2727 321.355 19.2727C320.955 19.2727 320.608 19.3722 320.316 19.571C320.026 19.767 319.803 20.0227 319.647 20.3381C319.49 20.6534 319.412 20.9915 319.412 21.3523V21.9318C319.412 22.4261 319.498 22.8452 319.668 23.1889C319.841 23.5298 320.081 23.7898 320.388 23.9688C320.695 24.1449 321.051 24.233 321.458 24.233C321.722 24.233 321.961 24.196 322.174 24.1222C322.39 24.0455 322.576 23.9318 322.732 23.7812C322.888 23.6278 323.009 23.4375 323.094 23.2102L324.066 23.483C323.963 23.8125 323.792 24.1023 323.55 24.3523C323.309 24.5994 323.01 24.7926 322.655 24.9318C322.3 25.0682 321.901 25.1364 321.458 25.1364ZM326.703 16.2727V25H325.698V16.2727H326.703ZM331.205 25.1364C330.614 25.1364 330.095 24.9957 329.649 24.7145C329.206 24.4332 328.859 24.0398 328.609 23.5341C328.362 23.0284 328.239 22.4375 328.239 21.7614C328.239 21.0795 328.362 20.4844 328.609 19.9759C328.859 19.4673 329.206 19.0724 329.649 18.7912C330.095 18.5099 330.614 18.3693 331.205 18.3693C331.795 18.3693 332.313 18.5099 332.756 18.7912C333.202 19.0724 333.548 19.4673 333.795 19.9759C334.045 20.4844 334.17 21.0795 334.17 21.7614C334.17 22.4375 334.045 23.0284 333.795 23.5341C333.548 24.0398 333.202 24.4332 332.756 24.7145C332.313 24.9957 331.795 25.1364 331.205 25.1364ZM331.205 24.233C331.653 24.233 332.023 24.1179 332.312 23.8878C332.602 23.6577 332.817 23.3551 332.956 22.9801C333.095 22.6051 333.165 22.1989 333.165 21.7614C333.165 21.3239 333.095 20.9162 332.956 20.5384C332.817 20.1605 332.602 19.8551 332.312 19.6222C332.023 19.3892 331.653 19.2727 331.205 19.2727C330.756 19.2727 330.386 19.3892 330.097 19.6222C329.807 19.8551 329.592 20.1605 329.453 20.5384C329.314 20.9162 329.244 21.3239 329.244 21.7614C329.244 22.1989 329.314 22.6051 329.453 22.9801C329.592 23.3551 329.807 23.6577 330.097 23.8878C330.386 24.1179 330.756 24.233 331.205 24.233ZM335.706 27.4545V18.4545H336.677V19.4943H336.797C336.87 19.3807 336.973 19.2358 337.103 19.0597C337.237 18.8807 337.427 18.7216 337.674 18.5824C337.924 18.4403 338.262 18.3693 338.689 18.3693C339.24 18.3693 339.725 18.5071 340.146 18.7827C340.566 19.0582 340.895 19.4489 341.13 19.9545C341.366 20.4602 341.484 21.0568 341.484 21.7443C341.484 22.4375 341.366 23.0384 341.13 23.5469C340.895 24.0526 340.568 24.4446 340.15 24.723C339.733 24.9986 339.251 25.1364 338.706 25.1364C338.285 25.1364 337.949 25.0668 337.696 24.9276C337.443 24.7855 337.248 24.625 337.112 24.446C336.975 24.2642 336.87 24.1136 336.797 23.9943H336.711V27.4545H335.706ZM336.694 21.7273C336.694 22.2216 336.767 22.6577 336.912 23.0355C337.056 23.4105 337.268 23.7045 337.547 23.9176C337.825 24.1278 338.166 24.233 338.569 24.233C338.99 24.233 339.341 24.1222 339.622 23.9006C339.906 23.6761 340.119 23.375 340.261 22.9972C340.406 22.6165 340.478 22.1932 340.478 21.7273C340.478 21.267 340.407 20.8523 340.265 20.483C340.126 20.1108 339.914 19.8168 339.63 19.6009C339.349 19.3821 338.995 19.2727 338.569 19.2727C338.16 19.2727 337.816 19.3764 337.538 19.5838C337.26 19.7884 337.049 20.0753 336.907 20.4446C336.765 20.8111 336.694 21.2386 336.694 21.7273ZM343.018 25V18.4545H343.99V19.4773H344.075C344.211 19.1278 344.431 18.8565 344.735 18.6634C345.039 18.4673 345.404 18.3693 345.831 18.3693C346.262 18.3693 346.622 18.4673 346.909 18.6634C347.199 18.8565 347.424 19.1278 347.586 19.4773H347.654C347.822 19.1392 348.074 18.8707 348.409 18.6719C348.744 18.4702 349.146 18.3693 349.615 18.3693C350.2 18.3693 350.679 18.5526 351.051 18.919C351.423 19.2827 351.609 19.8494 351.609 20.6193V25H350.603V20.6193C350.603 20.1364 350.471 19.7912 350.207 19.5838C349.943 19.3764 349.632 19.2727 349.274 19.2727C348.814 19.2727 348.457 19.4119 348.204 19.6903C347.951 19.9659 347.825 20.3153 347.825 20.7386V25H346.802V20.517C346.802 20.1449 346.681 19.8452 346.44 19.6179C346.199 19.3878 345.887 19.2727 345.507 19.2727C345.245 19.2727 345.001 19.3423 344.774 19.4815C344.549 19.6207 344.368 19.8139 344.228 20.0611C344.092 20.3054 344.024 20.5881 344.024 20.9091V25H343.018ZM356.192 25.1364C355.561 25.1364 355.017 24.9972 354.56 24.7188C354.105 24.4375 353.755 24.0455 353.507 23.5426C353.263 23.0369 353.141 22.4489 353.141 21.7784C353.141 21.108 353.263 20.517 353.507 20.0057C353.755 19.4915 354.098 19.0909 354.539 18.804C354.982 18.5142 355.499 18.3693 356.09 18.3693C356.431 18.3693 356.767 18.4261 357.1 18.5398C357.432 18.6534 357.735 18.8381 358.007 19.0938C358.28 19.3466 358.498 19.6818 358.659 20.0994C358.821 20.517 358.902 21.0312 358.902 21.642V22.0682H353.857V21.1989H357.88C357.88 20.8295 357.806 20.5 357.658 20.2102C357.513 19.9205 357.306 19.6918 357.036 19.5241C356.769 19.3565 356.453 19.2727 356.09 19.2727C355.689 19.2727 355.343 19.3722 355.05 19.571C354.76 19.767 354.537 20.0227 354.381 20.3381C354.225 20.6534 354.147 20.9915 354.147 21.3523V21.9318C354.147 22.4261 354.232 22.8452 354.402 23.1889C354.576 23.5298 354.816 23.7898 355.123 23.9688C355.429 24.1449 355.786 24.233 356.192 24.233C356.456 24.233 356.695 24.196 356.908 24.1222C357.124 24.0455 357.31 23.9318 357.466 23.7812C357.623 23.6278 357.743 23.4375 357.828 23.2102L358.8 23.483C358.698 23.8125 358.526 24.1023 358.284 24.3523C358.043 24.5994 357.745 24.7926 357.39 24.9318C357.034 25.0682 356.635 25.1364 356.192 25.1364ZM361.438 21.0625V25H360.432V18.4545H361.404V19.4773H361.489C361.642 19.1449 361.875 18.8778 362.188 18.6761C362.5 18.4716 362.904 18.3693 363.398 18.3693C363.841 18.3693 364.229 18.4602 364.561 18.642C364.894 18.821 365.152 19.0938 365.337 19.4602C365.522 19.8239 365.614 20.2841 365.614 20.8409V25H364.608V20.9091C364.608 20.3949 364.475 19.9943 364.208 19.7074C363.941 19.4176 363.574 19.2727 363.108 19.2727C362.787 19.2727 362.5 19.3423 362.248 19.4815C361.998 19.6207 361.8 19.8239 361.655 20.0909C361.51 20.358 361.438 20.6818 361.438 21.0625ZM370.298 18.4545V19.3068H366.906V18.4545H370.298ZM367.895 16.8864H368.901V23.125C368.901 23.4091 368.942 23.6222 369.024 23.7642C369.109 23.9034 369.217 23.9972 369.348 24.0455C369.482 24.0909 369.622 24.1136 369.77 24.1136C369.881 24.1136 369.972 24.108 370.043 24.0966C370.114 24.0824 370.17 24.071 370.213 24.0625L370.418 24.9659C370.349 24.9915 370.254 25.017 370.132 25.0426C370.01 25.071 369.855 25.0852 369.668 25.0852C369.384 25.0852 369.105 25.0241 368.832 24.902C368.563 24.7798 368.338 24.5938 368.159 24.3438C367.983 24.0938 367.895 23.7784 367.895 23.3977V16.8864Z" fill="white"/>
<path d="M448.772 74H447.664L450.869 65.2727H451.96L455.164 74H454.056L451.448 66.6534H451.38L448.772 74ZM449.181 70.5909H453.647V71.5284H449.181V70.5909ZM457.58 65.2727V74H456.524V65.2727H457.58Z" fill="white"/>
<path d="M537.552 125H536.495C536.433 124.696 536.324 124.429 536.167 124.199C536.014 123.969 535.826 123.776 535.605 123.619C535.386 123.46 535.143 123.341 534.876 123.261C534.609 123.182 534.331 123.142 534.041 123.142C533.512 123.142 533.034 123.276 532.605 123.543C532.179 123.81 531.839 124.203 531.586 124.723C531.336 125.243 531.211 125.881 531.211 126.636C531.211 127.392 531.336 128.03 531.586 128.55C531.839 129.07 532.179 129.463 532.605 129.73C533.034 129.997 533.512 130.131 534.041 130.131C534.331 130.131 534.609 130.091 534.876 130.011C535.143 129.932 535.386 129.814 535.605 129.658C535.826 129.499 536.014 129.304 536.167 129.074C536.324 128.841 536.433 128.574 536.495 128.273H537.552C537.473 128.719 537.328 129.118 537.118 129.47C536.907 129.822 536.646 130.122 536.333 130.369C536.021 130.614 535.67 130.8 535.281 130.928C534.895 131.055 534.481 131.119 534.041 131.119C533.297 131.119 532.635 130.938 532.055 130.574C531.475 130.21 531.02 129.693 530.687 129.023C530.355 128.352 530.189 127.557 530.189 126.636C530.189 125.716 530.355 124.92 530.687 124.25C531.02 123.58 531.475 123.062 532.055 122.699C532.635 122.335 533.297 122.153 534.041 122.153C534.481 122.153 534.895 122.217 535.281 122.345C535.67 122.473 536.021 122.661 536.333 122.908C536.646 123.152 536.907 123.45 537.118 123.803C537.328 124.152 537.473 124.551 537.552 125ZM540.129 127.062V131H539.124V122.273H540.129V125.477H540.214C540.368 125.139 540.598 124.871 540.905 124.672C541.214 124.47 541.626 124.369 542.141 124.369C542.587 124.369 542.977 124.459 543.312 124.638C543.648 124.814 543.908 125.085 544.092 125.452C544.28 125.815 544.374 126.278 544.374 126.841V131H543.368V126.909C543.368 126.389 543.233 125.987 542.963 125.703C542.696 125.416 542.325 125.273 541.851 125.273C541.521 125.273 541.226 125.342 540.964 125.482C540.706 125.621 540.501 125.824 540.351 126.091C540.203 126.358 540.129 126.682 540.129 127.062ZM548.14 131.153C547.725 131.153 547.348 131.075 547.01 130.919C546.672 130.76 546.404 130.531 546.205 130.233C546.006 129.932 545.907 129.568 545.907 129.142C545.907 128.767 545.98 128.463 546.128 128.23C546.276 127.994 546.473 127.81 546.721 127.676C546.968 127.543 547.24 127.443 547.539 127.378C547.84 127.31 548.142 127.256 548.446 127.216C548.844 127.165 549.167 127.126 549.414 127.101C549.664 127.072 549.846 127.026 549.959 126.96C550.076 126.895 550.134 126.781 550.134 126.619V126.585C550.134 126.165 550.019 125.838 549.789 125.605C549.561 125.372 549.216 125.256 548.753 125.256C548.273 125.256 547.897 125.361 547.624 125.571C547.351 125.781 547.159 126.006 547.049 126.244L546.094 125.903C546.265 125.506 546.492 125.196 546.776 124.974C547.063 124.75 547.375 124.594 547.713 124.506C548.054 124.415 548.39 124.369 548.719 124.369C548.929 124.369 549.171 124.395 549.444 124.446C549.719 124.494 549.985 124.595 550.24 124.749C550.499 124.902 550.713 125.134 550.884 125.443C551.054 125.753 551.14 126.168 551.14 126.688V131H550.134V130.114H550.083C550.015 130.256 549.901 130.408 549.742 130.57C549.583 130.732 549.371 130.869 549.107 130.983C548.843 131.097 548.52 131.153 548.14 131.153ZM548.293 130.25C548.691 130.25 549.026 130.172 549.299 130.016C549.574 129.859 549.782 129.658 549.921 129.411C550.063 129.163 550.134 128.903 550.134 128.631V127.71C550.091 127.761 549.998 127.808 549.853 127.851C549.711 127.891 549.546 127.926 549.358 127.957C549.174 127.986 548.993 128.011 548.817 128.034C548.644 128.054 548.503 128.071 548.395 128.085C548.134 128.119 547.89 128.175 547.662 128.251C547.438 128.325 547.256 128.437 547.117 128.588C546.98 128.736 546.912 128.937 546.912 129.193C546.912 129.543 547.042 129.807 547.3 129.986C547.561 130.162 547.892 130.25 548.293 130.25ZM555.822 124.455V125.307H552.43V124.455H555.822ZM553.418 122.886H554.424V129.125C554.424 129.409 554.465 129.622 554.548 129.764C554.633 129.903 554.741 129.997 554.871 130.045C555.005 130.091 555.146 130.114 555.293 130.114C555.404 130.114 555.495 130.108 555.566 130.097C555.637 130.082 555.694 130.071 555.737 130.062L555.941 130.966C555.873 130.991 555.778 131.017 555.656 131.043C555.533 131.071 555.379 131.085 555.191 131.085C554.907 131.085 554.629 131.024 554.356 130.902C554.086 130.78 553.862 130.594 553.683 130.344C553.506 130.094 553.418 129.778 553.418 129.398V122.886ZM557.612 131V122.273H558.617V125.494H558.702C558.776 125.381 558.879 125.236 559.009 125.06C559.143 124.881 559.333 124.722 559.58 124.582C559.83 124.44 560.168 124.369 560.594 124.369C561.146 124.369 561.631 124.507 562.052 124.783C562.472 125.058 562.8 125.449 563.036 125.955C563.272 126.46 563.39 127.057 563.39 127.744C563.39 128.438 563.272 129.038 563.036 129.547C562.8 130.053 562.474 130.445 562.056 130.723C561.638 130.999 561.157 131.136 560.612 131.136C560.191 131.136 559.854 131.067 559.602 130.928C559.349 130.786 559.154 130.625 559.018 130.446C558.881 130.264 558.776 130.114 558.702 129.994H558.583V131H557.612ZM558.6 127.727C558.6 128.222 558.673 128.658 558.817 129.036C558.962 129.411 559.174 129.705 559.452 129.918C559.731 130.128 560.072 130.233 560.475 130.233C560.896 130.233 561.246 130.122 561.528 129.901C561.812 129.676 562.025 129.375 562.167 128.997C562.312 128.616 562.384 128.193 562.384 127.727C562.384 127.267 562.313 126.852 562.171 126.483C562.032 126.111 561.82 125.817 561.536 125.601C561.255 125.382 560.901 125.273 560.475 125.273C560.066 125.273 559.722 125.376 559.444 125.584C559.165 125.788 558.955 126.075 558.813 126.445C558.671 126.811 558.6 127.239 558.6 127.727ZM567.587 131.136C566.996 131.136 566.478 130.996 566.032 130.714C565.589 130.433 565.242 130.04 564.992 129.534C564.745 129.028 564.621 128.437 564.621 127.761C564.621 127.08 564.745 126.484 564.992 125.976C565.242 125.467 565.589 125.072 566.032 124.791C566.478 124.51 566.996 124.369 567.587 124.369C568.178 124.369 568.695 124.51 569.138 124.791C569.585 125.072 569.931 125.467 570.178 125.976C570.428 126.484 570.553 127.08 570.553 127.761C570.553 128.437 570.428 129.028 570.178 129.534C569.931 130.04 569.585 130.433 569.138 130.714C568.695 130.996 568.178 131.136 567.587 131.136ZM567.587 130.233C568.036 130.233 568.406 130.118 568.695 129.888C568.985 129.658 569.2 129.355 569.339 128.98C569.478 128.605 569.548 128.199 569.548 127.761C569.548 127.324 569.478 126.916 569.339 126.538C569.2 126.161 568.985 125.855 568.695 125.622C568.406 125.389 568.036 125.273 567.587 125.273C567.138 125.273 566.769 125.389 566.479 125.622C566.19 125.855 565.975 126.161 565.836 126.538C565.697 126.916 565.627 127.324 565.627 127.761C565.627 128.199 565.697 128.605 565.836 128.98C565.975 129.355 566.19 129.658 566.479 129.888C566.769 130.118 567.138 130.233 567.587 130.233ZM574.935 124.455V125.307H571.543V124.455H574.935ZM572.532 122.886H573.537V129.125C573.537 129.409 573.578 129.622 573.661 129.764C573.746 129.903 573.854 129.997 573.985 130.045C574.118 130.091 574.259 130.114 574.407 130.114C574.517 130.114 574.608 130.108 574.679 130.097C574.75 130.082 574.807 130.071 574.85 130.062L575.054 130.966C574.986 130.991 574.891 131.017 574.769 131.043C574.647 131.071 574.492 131.085 574.304 131.085C574.02 131.085 573.742 131.024 573.469 130.902C573.199 130.78 572.975 130.594 572.796 130.344C572.62 130.094 572.532 129.778 572.532 129.398V122.886Z" fill="white"/>
</svg>
