<svg width="442" height="201" viewBox="0 0 442 201" fill="none" xmlns="http://www.w3.org/2000/svg">
<g clip-path="url(#clip0_299_720)">
<path d="M406.357 113.595C417.3 113.595 426.172 104.742 426.172 93.822C426.172 82.9017 417.3 74.0491 406.357 74.0491C395.413 74.0491 386.541 82.9017 386.541 93.822C386.541 104.742 395.413 113.595 406.357 113.595Z" fill="#FF5900"/>
<path d="M406.356 99.0253C409.236 99.0253 411.571 96.6957 411.571 93.822C411.571 90.9482 409.236 88.6186 406.356 88.6186C403.476 88.6186 401.142 90.9482 401.142 93.822C401.142 96.6957 403.476 99.0253 406.356 99.0253Z" fill="#E6E6E6"/>
<path d="M405.404 93.9331C407.6 95.7212 408.27 98.5394 407.861 101.261C407.359 104.245 405.807 106.954 403.484 108.9C400.872 111.216 397.686 112.782 394.611 114.385C391.787 115.823 389.072 117.468 386.49 119.304C376.602 126.475 369.133 136.685 364.858 148.079C360.59 159.454 359.445 172.364 362.688 184.153C364.292 189.985 367.538 196.278 373.585 198.473C378.405 200.222 384.986 199.095 387.441 194.138C390.077 188.813 386.399 182.827 381.661 180.184C375.519 176.757 368.182 179.261 362.658 182.73C356.576 186.549 351.687 192.029 345.338 195.451C342.48 197.04 339.299 197.966 336.033 198.16C333.033 198.277 330.04 197.816 327.216 196.8C321.356 194.67 316.312 190.764 312.791 185.628C308.758 179.778 306.953 172.607 306.623 165.582C305.887 149.865 312.109 135.161 317.101 120.585C319.785 112.994 321.795 105.184 323.108 97.2425C324.358 89.2611 324.802 81.1748 324.436 73.1049C324.105 65.9692 323.4 58.5074 320.243 51.9902C317.468 46.2596 312.396 41.5694 305.983 40.3869C303.093 39.8208 300.097 40.1641 297.411 41.3695C296.496 41.7859 297.29 43.1317 298.2 42.7174C303.875 40.1341 310.583 42.6476 314.774 46.8186C319.669 51.6892 321.467 58.882 322.265 65.5188C324.058 81.2476 322.645 97.1759 318.11 112.346C313.757 127.098 306.911 141.235 305.331 156.692C304.61 163.745 304.98 171.036 307.24 177.799C309.178 183.823 312.813 189.164 317.71 193.183C322.321 196.903 327.993 199.437 333.964 199.719C340.667 200.036 346.545 197.054 351.746 193.088C357.315 188.839 362.44 183.597 369.187 181.215C372.263 180.129 375.766 179.623 378.924 180.668C381.634 181.592 383.932 183.435 385.418 185.877C386.789 188.153 387.295 190.999 386.044 193.444C384.867 195.742 382.57 197.072 380.083 197.527C377.45 197.992 374.737 197.532 372.405 196.225C369.681 194.673 367.688 192.067 366.291 189.315C363.506 183.825 362.571 177.291 362.429 171.198C362.304 165.247 363.069 159.31 364.696 153.583C367.935 141.998 374.472 131.6 383.515 123.649C385.793 121.668 388.231 119.878 390.802 118.295C393.608 116.569 396.602 115.191 399.462 113.563C402.276 111.961 405.05 110.047 406.988 107.411C408.64 105.151 409.532 102.428 409.536 99.6312C409.566 98.3449 409.31 97.068 408.786 95.8921C408.263 94.7161 407.486 93.6702 406.51 92.8293C405.736 92.1994 404.623 93.2975 405.404 93.9331Z" fill="#CCCCCC"/>
<path d="M220.414 184.881C227.343 189.35 235.358 191.857 243.604 192.134C243.456 192.483 243.291 192.823 243.108 193.154C242.148 194.922 240.792 196.445 239.145 197.603C237.195 198.973 234.905 199.782 232.526 199.941C230.147 200.101 227.769 199.606 225.653 198.51C223.536 197.414 221.762 195.758 220.524 193.725C219.286 191.691 218.631 189.357 218.631 186.978V184.881H220.414Z" fill="#FF5900"/>
<path d="M269.051 185.495V186.978C269.052 189.865 268.089 192.67 266.314 194.95C264.539 197.23 262.053 198.855 259.25 199.568C256.446 200.281 253.484 200.042 250.832 198.888C248.18 197.734 245.989 195.731 244.605 193.196C244.414 192.857 244.242 192.508 244.088 192.15C244.469 192.16 244.845 192.166 245.225 192.166C253.631 192.175 261.877 189.867 269.051 185.495Z" fill="#FF5900"/>
<path d="M286.593 28.6757C286.202 28.6185 285.805 28.5821 285.409 28.5561C289.913 38.9123 290.225 50.6057 286.28 61.1864C286.676 61.1396 287.068 61.0771 287.459 61.0043C291.277 60.2659 294.71 58.1992 297.145 55.1722C299.58 52.1451 300.859 48.3541 300.755 44.4739C300.651 40.5938 299.171 36.8764 296.577 33.9834C293.984 31.0904 290.446 29.2096 286.593 28.6757Z" fill="#FF5900"/>
<path d="M205.041 28.5561C204.645 28.5821 204.249 28.6185 203.857 28.6757C200.005 29.2095 196.466 31.0904 193.873 33.9834C191.28 36.8764 189.799 40.5938 189.695 44.4739C189.591 48.3541 190.871 52.1451 193.306 55.1722C195.741 58.1993 199.173 60.2659 202.992 61.0043C203.383 61.0771 203.774 61.1396 204.17 61.1864C200.226 50.6057 200.538 38.9123 205.041 28.5561Z" fill="#FF5900"/>
<path d="M286.593 28.6757C282.297 18.4354 274.339 10.1541 264.267 5.44073C254.194 0.727315 242.725 -0.0816878 232.088 3.17089C221.451 6.42348 212.405 13.5054 206.708 23.0408C201.011 32.5763 199.07 43.8843 201.261 54.7682C203.453 65.652 209.62 75.3345 218.566 81.9346C227.511 88.5347 238.596 91.5811 249.667 90.4819C260.737 89.3828 271.003 84.2167 278.47 75.9871C285.937 67.7576 290.072 57.0522 290.071 45.9509C290.069 40.0196 288.886 34.1477 286.593 28.6757ZM286.28 61.1864C282.465 71.4183 274.951 79.8548 265.215 84.8356C255.48 89.8164 244.229 90.9806 233.676 88.0991C223.124 85.2176 214.034 78.4991 208.197 69.266C202.359 60.0328 200.197 48.9538 202.135 38.2096C204.073 27.4653 209.971 17.834 218.668 11.2113C227.366 4.58858 238.232 1.45419 249.129 2.42502C260.027 3.39585 270.165 8.40158 277.549 16.457C284.933 24.5124 289.028 35.034 289.028 45.9509C289.026 51.152 288.096 56.3111 286.28 61.1864Z" fill="#3F3D56"/>
<path d="M268.169 35.8044H222.281C219.861 35.8044 217.539 36.7637 215.828 38.4714C214.117 40.1791 213.155 42.4952 213.155 44.9103C213.155 47.3253 214.117 49.6414 215.828 51.3491C217.539 53.0568 219.861 54.0162 222.281 54.0162H268.169C270.59 54.0162 272.911 53.0568 274.622 51.3491C276.333 49.6414 277.295 47.3253 277.295 44.9103C277.295 42.4952 276.333 40.1791 274.622 38.4714C272.911 36.7637 270.59 35.8044 268.169 35.8044Z" fill="#FF8A4A"/>
<path d="M245.225 99.5457C232.966 99.5512 221.195 104.344 212.431 112.897C203.667 121.451 198.605 133.088 198.329 145.318C198.052 157.548 202.583 169.4 210.951 178.34C219.319 187.28 230.861 192.597 243.108 193.154C243.604 193.18 244.104 193.196 244.605 193.196C244.813 193.206 245.017 193.206 245.225 193.206C257.672 193.206 269.609 188.272 278.411 179.49C287.212 170.708 292.157 158.796 292.157 146.376C292.157 133.956 287.212 122.044 278.411 113.262C269.609 104.48 257.672 99.5457 245.225 99.5457ZM269.051 185.495C261.877 189.867 253.631 192.175 245.225 192.166C244.845 192.166 244.469 192.16 244.088 192.15C243.927 192.15 243.765 192.145 243.604 192.134C232.584 191.752 222.071 187.426 213.984 179.946C205.898 172.467 200.779 162.333 199.563 151.398C198.347 140.463 201.116 129.457 207.362 120.39C213.608 111.324 222.916 104.803 233.583 102.02C244.251 99.2365 255.566 100.377 265.46 105.232C275.354 110.087 283.168 118.332 287.471 128.462C291.775 138.591 292.282 149.928 288.9 160.4C285.518 170.872 278.472 179.779 269.051 185.495Z" fill="#3F3D56"/>
<path d="M278.164 134.842H257.653C256.224 134.842 254.853 134.275 253.843 133.267C252.832 132.259 252.265 130.891 252.265 129.465C252.265 128.039 252.832 126.671 253.843 125.663C254.853 124.655 256.224 124.088 257.653 124.088H278.164C279.593 124.088 280.964 124.655 281.974 125.663C282.985 126.671 283.553 128.039 283.553 129.465C283.553 130.891 282.985 132.259 281.974 133.267C280.964 134.275 279.593 134.842 278.164 134.842Z" fill="#3F3D56"/>
<path d="M259.021 132.194C260.531 132.194 261.756 130.972 261.756 129.465C261.756 127.958 260.531 126.736 259.021 126.736C257.511 126.736 256.286 127.958 256.286 129.465C256.286 130.972 257.511 132.194 259.021 132.194Z" fill="#F2F2F2"/>
<path d="M267.909 132.194C269.419 132.194 270.643 130.972 270.643 129.465C270.643 127.958 269.419 126.736 267.909 126.736C266.398 126.736 265.174 127.958 265.174 129.465C265.174 130.972 266.398 132.194 267.909 132.194Z" fill="#F2F2F2"/>
<path d="M276.797 132.194C278.307 132.194 279.532 130.972 279.532 129.465C279.532 127.958 278.307 126.736 276.797 126.736C275.286 126.736 274.062 127.958 274.062 129.465C274.062 130.972 275.286 132.194 276.797 132.194Z" fill="#FF5900"/>
<path d="M85.8456 198.611C90.5349 194.658 93.3832 188.412 92.6362 182.331C91.8893 176.251 87.2627 170.661 81.2614 169.37C75.2602 168.078 68.4191 171.653 66.5963 177.503C65.5932 166.224 64.4372 154.474 58.4281 144.87C52.9871 136.173 43.563 129.95 33.3495 128.837C23.136 127.724 12.3825 131.929 6.01267 139.973C-0.357119 148.017 -1.91674 159.711 2.5445 168.946C5.83094 175.749 11.8857 180.813 18.2296 184.932C38.4689 198.073 63.5756 202.513 87.4651 199.005L85.8456 198.611Z" fill="#FFB38A"/>
<path d="M16.1125 132.162C24.5399 139.011 32.2712 146.672 39.1945 155.033C46.1189 163.385 52.2151 172.388 57.3974 181.915C60.2941 187.259 62.8962 192.757 65.1923 198.384C65.6604 199.529 63.7976 200.027 63.3347 198.895C59.2679 188.974 54.2364 179.475 48.3126 170.534C42.4175 161.625 35.6702 153.307 28.1655 145.698C23.9208 141.397 19.4424 137.332 14.7503 133.521C13.7886 132.739 15.1587 131.387 16.1125 132.162Z" fill="#FF5900" fill-opacity="0.5"/>
<path d="M84.2556 34.3423C93.1834 34.3423 100.421 27.1204 100.421 18.2118C100.421 9.3032 93.1834 2.08135 84.2556 2.08135C75.3278 2.08135 68.0903 9.3032 68.0903 18.2118C68.0903 27.1204 75.3278 34.3423 84.2556 34.3423Z" fill="#2F2E41"/>
<path d="M144.545 77.2759C144.235 77.7408 143.858 78.1569 143.425 78.5105C142.801 79.0236 142.076 79.3994 141.297 79.6133C140.517 79.8272 139.701 79.8743 138.902 79.7516C138.103 79.6289 137.34 79.3391 136.661 78.9013C135.982 78.4634 135.403 77.8874 134.963 77.2109C134.861 77.0533 134.768 76.8904 134.683 76.7229L109.21 74.2706C107.199 74.0694 105.308 73.2266 103.815 71.8675C102.323 70.5084 101.309 68.7053 100.925 66.7258L99.4795 59.12L109.421 57.5768L111.205 63.6691L136.041 69.7566C136.233 69.5882 136.437 69.4334 136.651 69.2935C137.759 68.5761 139.081 68.262 140.394 68.4043C141.707 68.5466 142.931 69.1366 143.858 70.0746C144.786 71.0127 145.361 72.2414 145.486 73.5533C145.611 74.8653 145.279 76.1801 144.545 77.2759Z" fill="#FFB8B8"/>
<path d="M111.815 62.7495L100.71 65.7429C100.11 65.9042 99.4693 65.821 98.9299 65.5117C98.3904 65.2024 97.996 64.6922 97.8331 64.0931L93.9435 49.7256C93.5268 48.1866 93.6959 46.5482 94.4182 45.1263C95.1405 43.7044 96.3648 42.5996 97.855 42.0251C99.3453 41.4506 100.996 41.4469 102.489 42.0149C103.981 42.5829 105.211 43.6823 105.939 45.101L113.292 59.4213C113.451 59.7318 113.539 60.0739 113.549 60.4226C113.559 60.7713 113.491 61.1179 113.349 61.4369C113.208 61.7559 112.997 62.0393 112.731 62.2664C112.466 62.4935 112.153 62.6586 111.815 62.7495Z" fill="#2F2E41"/>
<path d="M105.383 194.675H111.775L114.817 170.07L105.381 170.07L105.383 194.675Z" fill="#FFB8B8"/>
<path d="M124.105 200.598L104.013 200.599L104.013 192.853L116.342 192.852C118.401 192.852 120.376 193.668 121.832 195.121C123.287 196.574 124.105 198.544 124.105 200.598Z" fill="#FF5900"/>
<path d="M48.4028 188.458L54.384 190.711L65.9406 168.765L57.1133 165.439L48.4028 188.458Z" fill="#FFB8B8"/>
<path d="M63.8218 200.599L45.0248 193.517L47.7669 186.27L59.3014 190.616C61.2276 191.342 62.7859 192.801 63.6336 194.673C64.4813 196.546 64.549 198.677 63.8218 200.599Z" fill="#FF5900"/>
<path d="M105.181 188.96C104.686 188.96 104.203 188.803 103.802 188.512C103.402 188.22 103.104 187.81 102.952 187.34L86.6463 137.094C86.5979 136.945 86.5059 136.814 86.382 136.718C86.2581 136.622 86.1081 136.565 85.9515 136.555C85.7949 136.545 85.639 136.582 85.5039 136.662C85.3688 136.742 85.2609 136.86 85.1941 137.002L62.5969 184.977C62.3521 185.496 61.9253 185.907 61.3973 186.133C60.8692 186.359 60.2765 186.384 59.7312 186.203L50.8316 183.243C50.2663 183.053 49.7942 182.657 49.5107 182.134C49.2273 181.61 49.1537 180.999 49.3049 180.423L63.1467 128.105C64.5951 122.563 65.6413 116.924 66.2773 111.232C67.248 101.859 71.6519 93.1733 78.6446 86.8404C81.6979 84.049 83.6827 80.2846 84.2586 76.1928L84.2959 75.9311L104.567 79.1247L117.407 183.675C117.474 184.235 117.337 184.799 117.021 185.266C116.706 185.734 116.233 186.072 115.688 186.221L105.794 188.879C105.594 188.933 105.388 188.96 105.181 188.96Z" fill="#2F2E41"/>
<path d="M90.6777 34.2654C97.7512 34.2654 103.485 28.5436 103.485 21.4854C103.485 14.4272 97.7512 8.7054 90.6777 8.7054C83.6043 8.7054 77.8701 14.4272 77.8701 21.4854C77.8701 28.5436 83.6043 34.2654 90.6777 34.2654Z" fill="#FFB8B8"/>
<path d="M103.307 81.354C103.267 81.354 103.227 81.353 103.186 81.3509L83.0914 80.3484C82.5305 80.3231 81.9975 80.0969 81.5903 79.7113C81.183 79.3256 80.9287 78.8063 80.8741 78.2487L78.1289 51.5408C77.928 49.585 78.2094 47.6097 78.9486 45.7872C79.6879 43.9648 80.8626 42.3503 82.3703 41.0846C83.8781 39.8189 85.6732 38.9403 87.5992 38.5254C89.5252 38.1105 91.5236 38.1718 93.4204 38.7041C94.9918 39.1336 96.4563 39.8853 97.7202 40.9112C111.856 52.4951 107.298 73.4834 105.564 79.64C105.429 80.1332 105.134 80.5681 104.726 80.8778C104.318 81.1875 103.82 81.3548 103.307 81.354Z" fill="#FF5900"/>
<path d="M85.8252 99.2878C85.2658 99.288 84.7094 99.2047 84.1745 99.0409C83.401 98.807 82.6856 98.4126 82.0755 97.8836C81.4653 97.3546 80.974 96.7029 80.6338 95.9712C80.2937 95.2395 80.1123 94.4443 80.1016 93.6378C80.0909 92.8313 80.2511 92.0316 80.5717 91.2912C80.6467 91.1192 80.7308 90.9513 80.8236 90.7882L68.7595 68.2673C67.8138 66.4856 67.469 64.4472 67.7763 62.4545C68.0836 60.4617 69.0267 58.621 70.4656 57.2056L76.0107 51.7913L82.8051 59.1955L78.7101 64.0523L87.3882 88.0574C87.6353 88.1239 87.8774 88.2076 88.1128 88.3079C89.325 88.8309 90.3193 89.7552 90.9279 90.9248C91.5365 92.0945 91.722 93.4378 91.4532 94.7281C91.1844 96.0184 90.4777 97.1766 89.4524 98.0073C88.4271 98.838 87.146 99.2903 85.8252 99.2878Z" fill="#FFB8B8"/>
<path d="M79.8155 64.0502L71.1666 56.4826C70.6993 56.0728 70.4139 55.4947 70.3732 54.8753C70.3325 54.2558 70.5397 53.6455 70.9493 53.1783L80.7825 41.9885C81.8357 40.7898 83.2964 40.0228 84.8829 39.8352C86.4694 39.6476 88.0693 40.0527 89.3741 40.9725C90.679 41.8923 91.5963 43.2616 91.9493 44.8164C92.3023 46.3711 92.0659 48.0012 91.2857 49.3923L83.4103 63.4333C83.2396 63.7377 83.0029 64.0003 82.7174 64.2017C82.432 64.4031 82.105 64.5383 81.7604 64.5975C81.4159 64.6566 81.0624 64.6382 80.7259 64.5435C80.3894 64.4488 80.0784 64.2803 79.8155 64.0502Z" fill="#2F2E41"/>
<path d="M82.4356 33.8996C83.6042 34.3131 85.0368 34.6776 85.9563 33.8201C86.8541 32.9829 86.6905 31.452 86.1617 30.3242C85.6328 29.1964 84.8127 28.1927 84.5612 26.9652C84.2008 25.2058 85.1326 23.3781 86.4628 22.2311C87.793 21.0841 89.4674 20.4815 91.1019 19.9018L100.067 16.7216C102.287 15.9344 104.678 15.0097 105.92 12.9381C107.717 9.94064 106.074 5.65594 103.127 3.90687C100.179 2.15779 96.456 2.48363 93.2759 3.7135C91.517 4.39372 89.8439 5.33105 88.0249 5.80989C84.435 6.7549 80.3532 5.90712 77.1986 7.92687C74.4525 9.68505 73.1788 13.2725 73.2713 16.6292C73.3638 19.9858 74.6024 23.1826 75.9088 26.2524C76.686 28.0787 77.5163 29.9261 78.8328 31.3787C80.1493 32.8313 82.0517 33.8475 83.9521 33.5802L82.4356 33.8996Z" fill="#2F2E41"/>
<path d="M70.6978 20.8135C76.4577 20.8135 81.127 16.1542 81.127 10.4067C81.127 4.65926 76.4577 0 70.6978 0C64.9379 0 60.2686 4.65926 60.2686 10.4067C60.2686 16.1542 64.9379 20.8135 70.6978 20.8135Z" fill="#2F2E41"/>
<path d="M155.285 70.4799L155.1 70.4545L155.796 65.3954C155.903 64.6188 155.697 63.8316 155.222 63.207C154.748 62.5824 154.044 62.1715 153.265 62.0647L142.524 60.5913C141.745 60.4845 140.956 60.6906 140.33 61.1643C139.704 61.6379 139.293 62.3403 139.186 63.1169L135.362 90.872C135.255 91.6485 135.462 92.4357 135.936 93.0604C136.411 93.685 137.115 94.0959 137.893 94.2026L148.635 95.6761C149.413 95.7828 150.202 95.5767 150.828 95.103C151.454 94.6294 151.866 93.927 151.973 93.1504L154.603 74.0556L154.788 74.081L155.285 70.4799Z" fill="#3F3D56"/>
<path d="M152.928 63.5489L151.59 63.3655C151.631 63.5244 151.632 63.6909 151.593 63.8503C151.554 64.0096 151.477 64.157 151.367 64.2795C151.258 64.4019 151.12 64.4955 150.966 64.5522C150.811 64.6089 150.646 64.6269 150.483 64.6045L144.613 63.7994C144.45 63.777 144.295 63.7151 144.162 63.619C144.029 63.5228 143.921 63.3955 143.849 63.2481C143.777 63.1008 143.742 62.938 143.748 62.7741C143.753 62.6101 143.799 62.4501 143.881 62.3081L142.632 62.1367C142.358 62.0991 142.079 62.1157 141.811 62.1858C141.543 62.2558 141.291 62.3778 141.07 62.5449C140.849 62.712 140.664 62.9208 140.524 63.1594C140.384 63.3981 140.292 63.6619 140.255 63.9358L136.613 90.3711C136.537 90.9243 136.684 91.485 137.022 91.93C137.36 92.3749 137.861 92.6676 138.416 92.7436L148.711 94.1558C149.266 94.2319 149.828 94.0851 150.273 93.7477C150.719 93.4103 151.013 92.91 151.089 92.3568L154.731 65.9214C154.807 65.3682 154.66 64.8075 154.322 64.3625C153.983 63.9176 153.482 63.625 152.928 63.5489Z" fill="white"/>
<path d="M145.626 85.4966C148.794 85.4966 151.362 82.934 151.362 79.7728C151.362 76.6117 148.794 74.0491 145.626 74.0491C142.458 74.0491 139.89 76.6117 139.89 79.7728C139.89 82.934 142.458 85.4966 145.626 85.4966Z" fill="#FF5900"/>
<path d="M145.058 81.9563C144.929 81.9566 144.803 81.9149 144.7 81.8377L144.693 81.8329L143.345 80.803C143.283 80.7554 143.23 80.6959 143.19 80.6279C143.151 80.5599 143.125 80.4848 143.114 80.4068C143.104 80.3288 143.109 80.2495 143.129 80.1735C143.149 80.0975 143.184 80.0262 143.232 79.9637C143.28 79.9013 143.34 79.8489 143.408 79.8096C143.477 79.7702 143.552 79.7448 143.63 79.7346C143.709 79.7244 143.788 79.7298 143.864 79.7503C143.94 79.7708 144.012 79.8062 144.074 79.8543L144.947 80.5224L147.01 77.8372C147.058 77.7749 147.118 77.7227 147.186 77.6834C147.254 77.6441 147.329 77.6186 147.407 77.6084C147.485 77.5981 147.565 77.6033 147.64 77.6236C147.716 77.6438 147.788 77.6789 147.85 77.7266C147.976 77.8232 148.059 77.9659 148.079 78.1229C148.1 78.28 148.058 78.4389 147.961 78.5647L145.534 81.7231C145.478 81.7959 145.406 81.8548 145.323 81.8952C145.241 81.9357 145.15 81.9566 145.058 81.9563Z" fill="white"/>
<path d="M441.379 201H3.72066C3.5563 201 3.39884 200.934 3.28279 200.818C3.16674 200.702 3.10156 200.544 3.10156 200.38C3.10156 200.216 3.16674 200.059 3.28279 199.943C3.39884 199.827 3.5563 199.761 3.72066 199.761H441.379C441.544 199.761 441.702 199.826 441.818 199.942C441.935 200.059 442 200.216 442 200.38C442 200.545 441.935 200.702 441.818 200.819C441.702 200.935 441.544 201 441.379 201Z" fill="#FF5900"/>
</g>
<defs>
<clipPath id="clip0_299_720">
<rect width="442" height="201" fill="white"/>
</clipPath>
</defs>
</svg>
