<svg width="200" height="240" viewBox="0 0 200 240" fill="none" xmlns="http://www.w3.org/2000/svg">
<path d="M74.6635 146.986C75.8739 149.329 75.6464 151.852 74.1553 152.623C72.6642 153.393 70.4742 152.118 69.2638 149.775C68.7339 148.75 68.4797 147.69 68.4863 146.757L63.4819 136.766L68.2213 134.518L72.6516 144.606C73.4161 145.14 74.1336 145.961 74.6635 146.986Z" fill="#FFB6B6"/>
<path d="M37.4227 237.134L41.6895 237.134L43.7193 220.679L37.4219 220.68L37.4227 237.134Z" fill="#FFB6B6"/>
<path d="M52.0412 237.038C52.174 237.261 52.2441 237.983 52.2441 238.243C52.2441 239.043 51.5958 239.691 50.796 239.691H37.5822C37.0366 239.691 36.5943 239.249 36.5943 238.704V238.154C36.5943 238.154 35.9406 236.5 37.2864 234.463C37.2864 234.463 38.959 236.058 41.4584 233.559L42.1955 232.224L47.5306 236.126L50.4878 236.49C51.1348 236.569 51.7084 236.477 52.0412 237.038Z" fill="#FF5900"/>
<path d="M17.4052 237.134L21.672 237.134L23.7017 220.679L17.4043 220.68L17.4052 237.134Z" fill="#FFB6B6"/>
<path d="M32.0236 237.038C32.1564 237.261 32.2265 237.983 32.2265 238.243C32.2265 239.043 31.5782 239.691 30.7784 239.691H17.5646C17.019 239.691 16.5767 239.249 16.5767 238.704V238.154C16.5767 238.154 15.923 236.5 17.2688 234.463C17.2688 234.463 18.9415 236.058 21.4408 233.559L22.1779 232.224L27.513 236.126L30.4702 236.49C31.1172 236.569 31.6908 236.477 32.0236 237.038Z" fill="#FF5900"/>
<path d="M11.3654 140.048L9.56787 151.031L15.1601 186.575L16.5581 229.507H24.1082L27.9422 188.971L27.5428 162.213L36.5302 229.906H44.376L45.1183 145.04L11.3654 140.048Z" fill="#2F2E41"/>
<path d="M20.7524 83.1377H34.887L47.1156 90.3264C45.2124 89.8427 43.742 107.497 43.692 123.096C43.6887 124.132 42.6614 125.324 42.6709 126.337C42.6791 127.209 43.7224 127.906 43.7405 128.752C43.7575 129.543 43.7788 130.321 43.8047 131.083C43.8263 131.715 42.643 132.553 42.6709 133.161C42.7065 133.938 43.9554 134.478 44.0018 135.21C44.2868 139.706 44.7782 143.269 45.5178 145.04C45.5178 145.04 13.9619 153.826 11.5652 140.248C11.5652 140.248 11.7021 135.367 11.6829 128.627C11.6812 128.029 11.1718 127.487 11.1675 126.862C11.1642 126.397 11.6666 125.855 11.6617 125.377C11.6576 124.984 11.1727 124.637 11.1675 124.237C11.1643 123.998 11.6412 123.708 11.6376 123.467C11.446 110.651 10.5853 94.4995 7.5708 90.3264L20.7524 83.1377Z" fill="#FF5900"/>
<path d="M34.7329 83.1377C34.7329 83.1377 43.8919 86.4655 46.7981 89.1165C48.3425 90.5253 58.6995 117.084 58.6995 117.084L73.0849 142.132L65.6073 144.972L50.3112 121.877L43.5206 106.701L34.7329 83.1377Z" fill="#FF5900"/>
<path d="M15.7357 147.934C17.0716 150.208 16.9814 152.74 15.5343 153.59C14.0873 154.44 11.8313 153.286 10.4954 151.012C9.91068 150.017 9.59923 148.972 9.55516 148.041L4.01562 138.336L8.62596 135.834L13.5975 145.666C14.3899 146.158 15.151 146.939 15.7357 147.934Z" fill="#FFB6B6"/>
<path d="M18.7552 95.5182L14.7608 86.3326C14.7608 86.3326 5.37387 89.3279 5.37387 93.721C5.37387 93.721 -0.218331 127.268 0.580555 135.655L5.77331 144.84L13.163 139.049L8.56941 128.466L18.7552 95.5182Z" fill="#FF5900"/>
<path d="M10.54 155.194L15.2517 145.839L20.7522 153.427L15.8018 158.219L10.54 155.194Z" fill="#2F2E41"/>
<path d="M27.6865 80.4989C32.7352 80.4989 36.8281 76.4068 36.8281 71.359C36.8281 66.3112 32.7352 62.2191 27.6865 62.2191C22.6377 62.2191 18.5449 66.3112 18.5449 71.359C18.5449 76.4068 22.6377 80.4989 27.6865 80.4989Z" fill="#FFB6B6"/>
<path d="M34.815 61.149C33.2264 60.6403 32.4748 58.751 31.0216 57.932C29.4146 57.0263 27.4921 56.4609 25.72 56.9734C24.6326 57.2878 23.6854 57.9828 22.5973 58.2945C22.407 58.349 22.2069 58.3866 22.0038 58.406C20.8336 58.5174 19.829 59.2191 19.2441 60.2386L19.2289 60.2649C18.8855 60.8523 18.3975 61.3389 17.9644 61.8636C16.384 63.7784 15.5286 66.267 15.5462 68.7496C15.5651 71.4182 16.5921 74.0677 18.3768 76.0522L18.8327 75.842C19.9344 76.7935 21.0362 77.745 22.1379 78.6965C21.5384 76.5334 20.9332 74.2946 21.2506 72.0726C21.568 69.8505 23.0626 67.6336 25.2662 67.2046C26.0998 67.0424 26.979 67.1404 27.7882 66.8828C28.5975 66.6251 29.3428 65.7934 29.0652 64.9908C29.5663 66.3154 31.4353 66.2371 32.7216 66.8297C35.6008 68.1559 34.5468 66.1063 37.0461 68.056C37.8903 63.3781 41.1241 63.1692 34.815 61.149Z" fill="#2F2E41"/>
<path d="M177.674 240H85.0409C73.7459 240 64.5566 230.812 64.5566 219.519V20.4805C64.5566 9.18758 73.7459 0 85.0409 0H177.674C188.969 0 198.158 9.18758 198.158 20.4805V219.519C198.158 230.812 188.969 240 177.674 240Z" fill="#3F3D56"/>
<path d="M198.158 73.213C197.68 73.213 197.292 73.6016 197.292 74.0794V101.805C197.292 102.283 197.68 102.671 198.158 102.671C198.636 102.671 199.025 102.283 199.025 101.805V74.0794C199.025 73.6016 198.636 73.213 198.158 73.213Z" fill="#3F3D56"/>
<path d="M196.209 20.4806V219.516C196.209 229.345 188.557 237.386 178.881 238.01H178.877C178.734 238.018 178.591 238.027 178.444 238.031C178.188 238.044 177.932 238.049 177.672 238.049C177.672 238.049 176.719 237.979 174.977 237.849C173.218 237.719 170.657 237.524 167.464 237.269C166.506 237.195 165.497 237.113 164.431 237.026C162.308 236.853 159.977 236.662 157.477 236.446C156.48 236.363 155.449 236.273 154.396 236.182C149.014 235.718 142.987 235.176 136.631 234.561C135.556 234.462 134.473 234.358 133.381 234.249C133.095 234.219 132.805 234.193 132.515 234.163C127.982 233.717 66.5068 221.838 66.5068 219.516V20.4806C66.5068 10.2438 74.8044 1.94781 85.0431 1.94781H96.1093C97.8771 1.94781 99.2983 3.32543 99.45 5.08861C99.463 5.20559 99.476 5.32253 99.4976 5.43951C99.8183 7.21136 101.443 8.44601 103.246 8.44601H159.47C161.272 8.44601 162.897 7.21136 163.218 5.43951C163.239 5.32253 163.252 5.20559 163.265 5.08861C163.417 3.32543 164.838 1.94781 166.606 1.94781H177.672C187.911 1.94781 196.209 10.2438 196.209 20.4806Z" fill="white"/>
<path d="M64.1234 52.4188C63.6455 52.4188 63.2568 52.8074 63.2568 53.2852V60.2166C63.2568 60.6945 63.6455 61.0831 64.1234 61.0831C64.6013 61.0831 64.99 60.6945 64.99 60.2166V53.2852C64.99 52.8074 64.6013 52.4188 64.1234 52.4188Z" fill="#3F3D56"/>
<path d="M64.1234 73.213C63.6455 73.213 63.2568 73.6016 63.2568 74.0794V87.509C63.2568 87.9869 63.6455 88.3754 64.1234 88.3754C64.6013 88.3754 64.99 87.9869 64.99 87.509V74.0794C64.99 73.6016 64.6013 73.213 64.1234 73.213Z" fill="#3F3D56"/>
<path d="M64.1234 92.2744C63.6455 92.2744 63.2568 92.6629 63.2568 93.1408V106.57C63.2568 107.048 63.6455 107.437 64.1234 107.437C64.6013 107.437 64.99 107.048 64.99 106.57V93.1408C64.99 92.6629 64.6013 92.2744 64.1234 92.2744Z" fill="#3F3D56"/>
<path d="M168.112 49.9548H94.6036C93.4456 49.9548 92.5034 49.0128 92.5034 47.855C92.5034 46.6971 93.4456 45.7551 94.6036 45.7551H168.112C169.27 45.7551 170.212 46.6971 170.212 47.855C170.212 49.0128 169.27 49.9548 168.112 49.9548Z" fill="#FFB288"/>
<path d="M180.472 216.105H153.169C152.011 216.105 151.068 215.163 151.068 214.005C151.068 212.848 152.011 211.906 153.169 211.906H180.472C181.63 211.906 182.572 212.848 182.572 214.005C182.572 215.163 181.63 216.105 180.472 216.105Z" fill="#FFB288"/>
<path d="M107.489 216.105H80.1857C79.0276 216.105 78.0854 215.163 78.0854 214.005C78.0854 212.848 79.0276 211.906 80.1857 211.906H107.489C108.647 211.906 109.589 212.848 109.589 214.005C109.589 215.163 108.647 216.105 107.489 216.105Z" fill="#FFB288"/>
<path d="M182.572 55.5971H80.1431V56.1221H182.572V55.5971Z" fill="#3F3D56"/>
<path d="M168.112 81.9775H94.6036C93.4456 81.9775 92.5034 81.0355 92.5034 79.8776C92.5034 78.7198 93.4456 77.7778 94.6036 77.7778H168.112C169.27 77.7778 170.212 78.7198 170.212 79.8776C170.212 81.0355 169.27 81.9775 168.112 81.9775Z" fill="#FFB288"/>
<path d="M182.572 87.6198H80.1431V88.1448H182.572V87.6198Z" fill="#3F3D56"/>
<path d="M168.112 114H94.6036C93.4456 114 92.5034 113.058 92.5034 111.9C92.5034 110.742 93.4456 109.8 94.6036 109.8H168.112C169.27 109.8 170.212 110.742 170.212 111.9C170.212 113.058 169.27 114 168.112 114Z" fill="#FFB288"/>
<path d="M182.572 119.642H80.1431V120.167H182.572V119.642Z" fill="#3F3D56"/>
<path d="M182.572 146.94H80.1431V147.465H182.572V146.94Z" fill="#3F3D56"/>
<path d="M182.572 174.238H80.1431V174.763H182.572V174.238Z" fill="#3F3D56"/>
<path d="M132.078 193.441C148.897 193.441 162.532 179.809 162.532 162.993C162.532 146.177 148.897 132.545 132.078 132.545C115.259 132.545 101.625 146.177 101.625 162.993C101.625 179.809 115.259 193.441 132.078 193.441Z" fill="#FF5900"/>
</svg>
