<svg width="379" height="207" viewBox="0 0 379 207" fill="none" xmlns="http://www.w3.org/2000/svg">
<path d="M20.6988 188.515C12.6226 195.401 10.9463 206.695 10.9463 206.695C10.9463 206.695 22.3642 206.824 30.4404 199.938C38.5167 193.053 40.193 181.759 40.193 181.759C40.193 181.759 28.7751 181.629 20.6988 188.515Z" fill="#AFFF60"/>
<path d="M24.4309 191.255C20.9907 201.294 11.1001 207 11.1001 207C11.1001 207 6.78726 196.428 10.2274 186.389C13.6676 176.349 23.5581 170.644 23.5581 170.644C23.5581 170.644 27.871 181.215 24.4309 191.255Z" fill="#AFFF60"/>
<path d="M108.731 42.7198C106.903 40.3523 104.321 38.1617 104.157 35.2402C104.007 32.5606 106.006 29.9002 105.163 27.3367C104.515 25.3656 102.377 24.1763 100.288 23.5465C96.289 22.358 92.0092 22.5228 88.1131 24.0152L88.3246 23.8661C85.9466 23.0191 83.1671 23.8934 81.2962 25.5129C79.4252 27.1323 78.3133 29.377 77.4506 31.6264C76.5877 33.8758 75.9192 36.2075 74.7204 38.3164C73.5215 40.4252 71.6859 42.3431 69.2642 43.0719C70.0749 44.6889 72.6093 45.2436 74.0958 44.1294C74.4755 43.8211 74.8169 43.4682 75.1125 43.0785C76.1038 41.8732 77.0952 40.6678 78.0867 39.4625C79.1068 41.2765 77.5828 43.7803 78.8367 45.4597C79.4833 46.3258 80.6642 46.6546 81.7609 46.8906C90.3328 48.7193 99.2249 48.3895 107.638 45.9309C108.314 45.7316 109.06 45.4573 109.34 44.8453C109.664 44.1389 109.211 43.3424 108.731 42.7198Z" fill="#2F2E41"/>
<path d="M133.036 51.9591C132.983 52.1945 132.948 52.4336 132.932 52.6744L114.196 63.4816L109.642 60.8603L104.788 67.2152L112.398 72.6391C113.013 73.0773 113.754 73.3042 114.509 73.2858C115.263 73.2674 115.992 73.0047 116.585 72.5371L135.904 57.2975C136.776 57.6202 137.726 57.6698 138.626 57.4398C139.527 57.2098 140.337 56.711 140.947 56.0098C141.557 55.3086 141.94 54.4382 142.043 53.5144C142.147 52.5906 141.967 51.6571 141.527 50.8382C141.087 50.0193 140.408 49.3537 139.58 48.93C138.753 48.5062 137.816 48.3445 136.894 48.4662C135.973 48.5878 135.11 48.9872 134.421 49.6112C133.731 50.2351 133.249 51.0541 133.036 51.9591Z" fill="#FFB7B7"/>
<path d="M113.57 63.9935L107.515 71.8405C107.342 72.0638 107.124 72.2473 106.874 72.3786C106.625 72.5098 106.35 72.5858 106.068 72.6012C105.786 72.6166 105.505 72.5712 105.242 72.468C104.98 72.3647 104.743 72.2062 104.547 72.0031L97.6921 64.8855C96.553 63.9982 95.8126 62.6952 95.6335 61.2626C95.4543 59.83 95.8509 58.3848 96.7363 57.2443C97.6218 56.1039 98.9236 55.3613 100.356 55.1796C101.788 54.9979 103.235 55.3919 104.377 56.2752L112.974 61.0822C113.221 61.2199 113.434 61.409 113.6 61.6367C113.767 61.8643 113.882 62.1252 113.939 62.4015C113.995 62.6778 113.992 62.963 113.928 63.2377C113.864 63.5124 113.742 63.7702 113.57 63.9935Z" fill="#FF5900"/>
<path d="M105.236 200.719L110.583 200.718L113.127 180.096L105.235 180.097L105.236 200.719Z" fill="#FFB7B7"/>
<path d="M103.872 198.973L114.402 198.973H114.403C116.183 198.973 117.889 199.68 119.148 200.938C120.406 202.196 121.113 203.903 121.113 205.682V205.901L103.872 205.901L103.872 198.973Z" fill="#FF5900"/>
<path d="M68.6 200.719L73.9471 200.718L76.4907 180.096L68.5991 180.097L68.6 200.719Z" fill="#FFB7B7"/>
<path d="M67.2363 198.973L77.7666 198.973H77.767C79.5468 198.973 81.2536 199.68 82.5121 200.938C83.7705 202.196 84.4776 203.903 84.4777 205.682V205.901L67.2366 205.901L67.2363 198.973Z" fill="#FF5900"/>
<path d="M102.025 39.8044C102.582 34.7319 98.9206 30.1683 93.8475 29.6115C88.7743 29.0547 84.2103 32.7154 83.6534 37.788C83.0965 42.8605 86.7576 47.4241 91.8308 47.9809C96.9039 48.5377 101.468 44.877 102.025 39.8044Z" fill="#FFB7B7"/>
<path d="M98.2464 52.6479L103.69 55.3446C103.69 55.3446 109.773 65.9142 106.284 75.9443C104.59 80.8141 109.36 96.3373 109.36 96.3373C109.36 96.3373 116.751 166.651 116.775 188.353C107.592 189.764 98.8696 191.509 98.4334 187.148C97.9973 182.787 93.223 131.225 93.223 131.225C93.223 131.225 86.6575 188.456 81.4238 189.328C76.1901 190.2 65.7227 188.892 65.7227 188.892C65.7227 188.892 74.0327 105.059 79.7026 99.826L80.5749 95.4651L80.5515 56.3202L87.0839 53.2031L98.2464 52.6479Z" fill="#2F2E41"/>
<path d="M78.7713 112.074C79.3737 111.748 79.8974 111.294 80.3053 110.744C80.7133 110.194 80.9956 109.561 81.1325 108.89C81.2693 108.219 81.2574 107.526 81.0974 106.86C80.9375 106.194 80.6334 105.571 80.2067 105.036L86.5381 62.8385L78.2663 62.4414L73.3308 104.464C72.4782 105.24 71.94 106.302 71.8183 107.449C71.6966 108.596 71.9998 109.747 72.6704 110.685C73.341 111.623 74.3324 112.283 75.4569 112.539C76.5813 112.795 77.7606 112.63 78.7713 112.074Z" fill="#FFB7B7"/>
<path d="M86.3582 73.4114L76.4654 72.787C76.184 72.7692 75.9096 72.691 75.6611 72.5576C75.4126 72.4243 75.1957 72.239 75.0253 72.0143C74.8549 71.7896 74.7349 71.5308 74.6735 71.2555C74.6121 70.9803 74.6108 70.695 74.6696 70.4192L76.7309 60.7553C76.8297 59.3157 77.4956 57.974 78.5823 57.0245C79.6691 56.075 81.0881 55.5952 82.5282 55.6903C83.9682 55.7855 85.3118 56.4478 86.2641 57.532C87.2165 58.6162 87.7 60.0338 87.6085 61.474L88.4376 71.2884C88.4612 71.5694 88.4241 71.8522 88.3285 72.1175C88.233 72.3829 88.0814 72.6245 87.8841 72.826C87.6868 73.0275 87.4483 73.1841 87.185 73.2851C86.9217 73.3861 86.6397 73.4292 86.3582 73.4114Z" fill="#FF5900"/>
<path d="M359.769 33.3977H141.002C139.405 33.3977 137.873 34.032 136.744 35.1611C135.615 36.2902 134.98 37.8216 134.98 39.4184V161.297C134.98 162.894 135.615 164.425 136.744 165.554C137.873 166.683 139.405 167.318 141.002 167.318H359.769C361.366 167.318 362.897 166.683 364.026 165.554C365.156 164.425 365.79 162.894 365.79 161.297V39.4184C365.79 37.8216 365.156 36.2902 364.026 35.1611C362.897 34.032 361.366 33.3977 359.769 33.3977Z" fill="#3F3D56"/>
<path d="M357.717 44.0378H143.053V165.116H357.717V44.0378Z" fill="white"/>
<path d="M250.202 40.7358C251.418 40.7358 252.403 39.7502 252.403 38.5344C252.403 37.3186 251.418 36.333 250.202 36.333C248.986 36.333 248 37.3186 248 38.5344C248 39.7502 248.986 40.7358 250.202 40.7358Z" fill="white"/>
<path d="M296.327 165.116H143.053V44.0378L296.327 165.116Z" fill="#F2F2F2"/>
<path d="M371.817 162.915H350.867V161.405C350.867 161.326 350.836 161.25 350.78 161.194C350.724 161.138 350.647 161.106 350.568 161.106H343.385C343.346 161.106 343.307 161.114 343.271 161.129C343.234 161.144 343.201 161.166 343.174 161.194C343.146 161.222 343.124 161.255 343.109 161.291C343.094 161.327 343.086 161.366 343.086 161.405V162.915H338.597V161.405C338.597 161.366 338.589 161.327 338.574 161.291C338.559 161.255 338.537 161.222 338.509 161.194C338.481 161.166 338.448 161.144 338.412 161.129C338.376 161.114 338.337 161.106 338.297 161.106H331.115C331.075 161.106 331.036 161.114 331 161.129C330.964 161.144 330.931 161.166 330.903 161.194C330.875 161.222 330.853 161.255 330.838 161.291C330.823 161.327 330.815 161.366 330.815 161.405V162.915H326.326V161.405C326.326 161.366 326.318 161.327 326.303 161.291C326.288 161.255 326.266 161.222 326.238 161.194C326.211 161.166 326.178 161.144 326.141 161.129C326.105 161.114 326.066 161.106 326.027 161.106H318.844C318.805 161.106 318.766 161.114 318.73 161.129C318.693 161.144 318.66 161.166 318.632 161.194C318.605 161.222 318.583 161.255 318.568 161.291C318.552 161.327 318.545 161.366 318.545 161.405V162.915H314.056V161.405C314.056 161.366 314.048 161.327 314.033 161.291C314.018 161.255 313.996 161.222 313.968 161.194C313.94 161.166 313.907 161.144 313.871 161.129C313.834 161.114 313.796 161.106 313.756 161.106H306.573C306.534 161.106 306.495 161.114 306.459 161.129C306.423 161.144 306.39 161.166 306.362 161.194C306.334 161.222 306.312 161.255 306.297 161.291C306.282 161.327 306.274 161.366 306.274 161.405V162.915H301.785V161.405C301.785 161.366 301.777 161.327 301.762 161.291C301.747 161.255 301.725 161.222 301.697 161.194C301.669 161.166 301.637 161.144 301.6 161.129C301.564 161.114 301.525 161.106 301.486 161.106H294.303C294.264 161.106 294.225 161.114 294.188 161.129C294.152 161.144 294.119 161.166 294.091 161.194C294.063 161.222 294.041 161.255 294.026 161.291C294.011 161.327 294.004 161.366 294.004 161.405V162.915H289.514V161.405C289.514 161.366 289.507 161.327 289.492 161.291C289.477 161.255 289.454 161.222 289.427 161.194C289.399 161.166 289.366 161.144 289.33 161.129C289.293 161.114 289.254 161.106 289.215 161.106H282.032C281.993 161.106 281.954 161.114 281.918 161.129C281.881 161.144 281.848 161.166 281.821 161.194C281.793 161.222 281.771 161.255 281.756 161.291C281.741 161.327 281.733 161.366 281.733 161.405V162.915H277.244V161.405C277.244 161.366 277.236 161.327 277.221 161.291C277.206 161.255 277.184 161.222 277.156 161.194C277.128 161.166 277.095 161.144 277.059 161.129C277.023 161.114 276.984 161.106 276.944 161.106H220.679C220.64 161.106 220.601 161.114 220.565 161.129C220.528 161.144 220.495 161.166 220.468 161.194C220.44 161.222 220.418 161.255 220.403 161.291C220.388 161.327 220.38 161.366 220.38 161.405V162.915H215.891V161.405C215.891 161.366 215.883 161.327 215.868 161.291C215.853 161.255 215.831 161.222 215.803 161.194C215.775 161.166 215.742 161.144 215.706 161.129C215.67 161.114 215.631 161.106 215.591 161.106H208.409C208.369 161.106 208.33 161.114 208.294 161.129C208.258 161.144 208.225 161.166 208.197 161.194C208.169 161.222 208.147 161.255 208.132 161.291C208.117 161.327 208.109 161.366 208.109 161.405V162.915H203.62V161.405C203.62 161.366 203.612 161.327 203.597 161.291C203.582 161.255 203.56 161.222 203.533 161.194C203.505 161.166 203.472 161.144 203.435 161.129C203.399 161.114 203.36 161.106 203.321 161.106H196.138C196.099 161.106 196.06 161.114 196.024 161.129C195.987 161.144 195.954 161.166 195.926 161.194C195.899 161.222 195.877 161.255 195.862 161.291C195.847 161.327 195.839 161.366 195.839 161.405V162.915H191.35V161.405C191.35 161.366 191.342 161.327 191.327 161.291C191.312 161.255 191.29 161.222 191.262 161.194C191.234 161.166 191.201 161.144 191.165 161.129C191.128 161.114 191.09 161.106 191.05 161.106H183.868C183.828 161.106 183.789 161.114 183.753 161.129C183.717 161.144 183.684 161.166 183.656 161.194C183.628 161.222 183.606 161.255 183.591 161.291C183.576 161.327 183.568 161.366 183.568 161.405V162.915H179.079V161.405C179.079 161.366 179.071 161.327 179.056 161.291C179.041 161.255 179.019 161.222 178.991 161.194C178.964 161.166 178.931 161.144 178.894 161.129C178.858 161.114 178.819 161.106 178.78 161.106H171.597C171.558 161.106 171.519 161.114 171.482 161.129C171.446 161.144 171.413 161.166 171.385 161.194C171.357 161.222 171.335 161.255 171.32 161.291C171.305 161.327 171.298 161.366 171.298 161.405V162.915H166.808V161.405C166.808 161.366 166.801 161.327 166.786 161.291C166.771 161.255 166.749 161.222 166.721 161.194C166.693 161.166 166.66 161.144 166.624 161.129C166.587 161.114 166.548 161.106 166.509 161.106H159.326C159.247 161.106 159.171 161.138 159.115 161.194C159.059 161.25 159.027 161.326 159.027 161.405V162.915H154.538V161.405C154.538 161.366 154.53 161.327 154.515 161.291C154.5 161.255 154.478 161.222 154.45 161.194C154.422 161.166 154.389 161.144 154.353 161.129C154.317 161.114 154.278 161.106 154.239 161.106H147.056C146.976 161.106 146.9 161.138 146.844 161.194C146.788 161.25 146.756 161.326 146.756 161.405V162.915H132.989C132.046 162.915 131.112 163.1 130.241 163.461C129.369 163.822 128.577 164.351 127.91 165.018C127.243 165.685 126.714 166.477 126.353 167.348C125.992 168.22 125.807 169.153 125.807 170.097V173.344C125.807 175.249 126.563 177.076 127.91 178.423C129.257 179.769 131.084 180.526 132.989 180.526H371.817C373.722 180.526 375.549 179.769 376.896 178.423C378.243 177.076 379 175.249 379 173.344V170.097C379 169.153 378.814 168.22 378.453 167.348C378.092 166.477 377.563 165.685 376.896 165.018C376.229 164.351 375.437 163.822 374.566 163.461C373.694 163.1 372.76 162.915 371.817 162.915Z" fill="#3F3D56"/>
<path d="M254.514 149.24C254.443 149.41 254.362 149.577 254.273 149.738C253.804 150.603 253.143 151.347 252.339 151.913C251.388 152.583 250.271 152.978 249.11 153.056C247.95 153.134 246.79 152.892 245.757 152.356C244.725 151.821 243.859 151.011 243.255 150.017C242.651 149.023 242.332 147.882 242.332 146.719V145.694H243.202C246.582 147.879 250.492 149.104 254.514 149.24Z" fill="#FF5900"/>
<path d="M266.929 145.994V146.719C266.929 148.13 266.459 149.502 265.594 150.616C264.728 151.731 263.515 152.525 262.147 152.874C260.78 153.222 259.335 153.105 258.041 152.541C256.747 151.977 255.678 150.998 255.003 149.759C254.91 149.593 254.826 149.422 254.751 149.247C254.937 149.253 255.12 149.255 255.306 149.255C259.406 149.26 263.429 148.131 266.929 145.994Z" fill="#FF5900"/>
<path d="M275.486 69.3346C275.295 69.3066 275.102 69.2888 274.909 69.2761C277.106 74.3386 277.258 80.0549 275.334 85.2271C275.527 85.2042 275.718 85.1737 275.908 85.1381C277.772 84.7772 279.446 83.7669 280.634 82.2872C281.822 80.8074 282.446 78.9542 282.395 77.0574C282.345 75.1606 281.622 73.3434 280.357 71.9292C279.092 70.5149 277.366 69.5955 275.486 69.3346Z" fill="#FF5900"/>
<path d="M235.702 69.2761C235.509 69.2888 235.315 69.3066 235.125 69.3346C233.245 69.5956 231.519 70.515 230.254 71.9292C228.989 73.3434 228.266 75.1606 228.216 77.0574C228.165 78.9542 228.789 80.8074 229.977 82.2871C231.165 83.7669 232.839 84.7772 234.702 85.1381C234.893 85.1737 235.084 85.2042 235.277 85.2271C233.353 80.0548 233.505 74.3387 235.702 69.2761Z" fill="#FF5900"/>
<path d="M275.487 69.3348C273.391 64.3294 269.509 60.2816 264.596 57.9778C259.682 55.674 254.087 55.2787 248.899 56.8687C243.71 58.4587 239.297 61.9204 236.519 66.5814C233.74 71.2423 232.793 76.7697 233.862 82.0897C234.931 87.4097 237.939 92.1425 242.303 95.3685C246.667 98.5946 252.074 100.084 257.474 99.5464C262.875 99.0091 267.882 96.4838 271.525 92.4613C275.167 88.4386 277.184 83.2059 277.183 77.7796C277.182 74.8801 276.606 72.0097 275.487 69.3348ZM275.334 85.2273C273.473 90.2288 269.807 94.3528 265.058 96.7874C260.309 99.2221 254.82 99.7912 249.673 98.3826C244.525 96.9741 240.091 93.6899 237.243 89.1766C234.395 84.6632 233.341 79.2476 234.286 73.9955C235.231 68.7435 238.109 64.0355 242.351 60.7982C246.594 57.5609 251.895 56.0287 257.211 56.5033C262.527 56.9778 267.473 59.4247 271.075 63.3623C274.677 67.3 276.675 72.4432 276.675 77.7796C276.674 80.3221 276.22 82.8441 275.334 85.2273Z" fill="#3F3D56"/>
<path d="M266.499 72.8196H244.112C242.932 72.8196 241.799 73.2886 240.965 74.1233C240.13 74.9581 239.661 76.0903 239.661 77.2709C239.661 78.4515 240.13 79.5837 240.965 80.4185C241.799 81.2533 242.932 81.7222 244.112 81.7222H266.499C267.68 81.7222 268.812 81.2533 269.647 80.4185C270.482 79.5837 270.951 78.4515 270.951 77.2709C270.951 76.0903 270.482 74.9581 269.647 74.1233C268.812 73.2886 267.68 72.8196 266.499 72.8196Z" fill="#FF5900"/>
<path d="M275.334 115.791C275.252 115.641 275.168 115.494 275.082 115.349C275.08 115.344 275.077 115.341 275.074 115.336C273.073 111.91 270.215 109.063 266.78 107.075C263.346 105.087 259.454 104.026 255.486 103.996C251.518 103.966 247.61 104.968 244.146 106.904C240.682 108.841 237.781 111.644 235.728 115.039C233.675 118.435 232.54 122.306 232.435 126.272C232.33 130.239 233.258 134.164 235.128 137.664C236.999 141.163 239.747 144.116 243.103 146.233C246.459 148.35 250.309 149.558 254.273 149.738C254.514 149.751 254.759 149.759 255.003 149.759C255.105 149.764 255.204 149.764 255.306 149.764C259.395 149.77 263.411 148.672 266.929 146.587C270.75 144.326 273.836 141.009 275.817 137.036C275.82 137.03 275.822 137.028 275.825 137.023C275.901 136.87 275.975 136.715 276.049 136.557C277.579 133.286 278.312 129.698 278.187 126.088C278.063 122.479 277.085 118.95 275.334 115.791ZM275.553 136.417C275.479 136.575 275.403 136.73 275.324 136.883C273.431 140.644 270.523 143.801 266.929 145.994C263.429 148.131 259.407 149.26 255.306 149.255C255.12 149.255 254.937 149.253 254.751 149.247C254.672 149.247 254.593 149.245 254.514 149.24C250.63 149.104 246.848 147.96 243.541 145.919C240.233 143.878 237.514 141.012 235.651 137.601C233.788 134.191 232.844 130.354 232.914 126.469C232.984 122.583 234.064 118.783 236.049 115.442C238.033 112.1 240.853 109.333 244.232 107.413C247.611 105.492 251.431 104.484 255.318 104.487C259.204 104.491 263.023 105.506 266.398 107.434C269.773 109.361 272.588 112.133 274.566 115.478C274.568 115.483 274.571 115.486 274.573 115.491C274.662 115.636 274.749 115.784 274.83 115.931C276.576 119.041 277.553 122.523 277.678 126.087C277.804 129.65 277.075 133.193 275.553 136.417Z" fill="#3F3D56"/>
<path d="M272.902 116.468C272.456 116.15 271.923 115.979 271.375 115.977H261.37C260.673 115.977 260.005 116.254 259.512 116.747C259.019 117.239 258.742 117.908 258.742 118.605C258.742 119.301 259.019 119.97 259.512 120.463C260.005 120.955 260.673 121.232 261.37 121.232H271.375C271.554 121.233 271.732 121.215 271.907 121.179C272.081 121.141 272.251 121.088 272.416 121.019C272.843 120.834 273.214 120.54 273.491 120.165C273.767 119.79 273.939 119.348 273.988 118.885C274.038 118.422 273.963 117.954 273.772 117.529C273.581 117.105 273.281 116.738 272.902 116.468Z" fill="#3F3D56"/>
<path d="M262.036 119.938C262.773 119.938 263.37 119.341 263.37 118.604C263.37 117.868 262.773 117.271 262.036 117.271C261.299 117.271 260.702 117.868 260.702 118.604C260.702 119.341 261.299 119.938 262.036 119.938Z" fill="#F1F1F1"/>
<path d="M266.372 119.938C267.109 119.938 267.706 119.341 267.706 118.604C267.706 117.868 267.109 117.271 266.372 117.271C265.635 117.271 265.038 117.868 265.038 118.604C265.038 119.341 265.635 119.938 266.372 119.938Z" fill="#F1F1F1"/>
<path d="M270.708 119.938C271.445 119.938 272.042 119.341 272.042 118.604C272.042 117.868 271.445 117.271 270.708 117.271C269.971 117.271 269.374 117.868 269.374 118.604C269.374 119.341 269.971 119.938 270.708 119.938Z" fill="#6C63FF"/>
<path d="M320.957 74.6386C317.487 76.7192 311.306 79.3261 304.989 76.647L300.906 74.9151L309.088 65.7435C302.559 58.5448 298.946 49.1714 298.956 39.4529C298.966 29.7344 302.598 20.3684 309.142 13.1831C315.686 5.99768 324.674 1.50865 334.35 0.592184C344.027 -0.324286 353.697 2.39758 361.474 8.22651C369.252 14.0554 374.578 22.5731 376.412 32.1168C378.247 41.6606 376.459 51.5454 371.397 59.8421C366.336 68.1387 358.363 74.2515 349.037 76.9874C339.71 79.7233 329.699 78.8859 320.957 74.6386Z" fill="white"/>
<path d="M320.978 75.1331C317.644 77.0901 311.293 79.7949 304.818 77.0484L300.175 75.079L308.503 65.7447C303.321 59.9169 299.98 52.6863 298.9 44.9636C297.82 37.2409 299.05 29.3714 302.435 22.3461C305.819 15.3208 311.207 9.45402 317.92 5.48449C324.632 1.51496 332.37 -0.379756 340.157 0.0389472C347.945 0.457651 355.434 3.17105 361.682 7.83744C367.93 12.5038 372.658 18.9145 375.27 26.2621C377.881 33.6098 378.26 41.5658 376.358 49.1282C374.456 56.6906 370.359 63.5213 364.582 68.7599C358.78 74.0529 351.527 77.4884 343.756 78.6242C335.985 79.7601 328.052 78.5442 320.978 75.1331ZM366.659 13.5352C363.251 9.77523 359.134 6.72349 354.546 4.55433C349.957 2.38517 344.986 1.14108 339.917 0.893112C334.847 0.64514 329.779 1.39815 325 3.10913C320.222 4.82011 315.828 7.45554 312.068 10.8649C308.308 14.2743 305.257 18.3908 303.089 22.9793C300.921 27.5679 299.678 32.5386 299.431 37.6075C299.184 42.6764 299.939 47.7443 301.651 52.5217C303.364 57.2991 306 61.6924 309.411 65.4507L309.675 65.7413L301.636 74.7515L305.159 76.2457C311.412 78.898 317.6 76.1428 320.732 74.2647L320.935 74.1431L321.147 74.2464C329.221 78.1689 338.408 79.1587 347.132 77.0458C355.856 74.933 363.573 69.8494 368.956 62.6677C374.34 55.486 377.056 46.6543 376.637 37.6888C376.217 28.7234 372.69 20.1834 366.659 13.5352Z" fill="#FF5900"/>
<path opacity="0.1" d="M371.027 39.2493C371.026 30.2629 367.661 21.6024 361.593 14.9733C355.525 8.34411 347.195 4.2268 338.243 3.43217C339.29 3.34041 340.35 3.29077 341.421 3.29077C350.955 3.29652 360.097 7.08754 366.837 13.8304C373.576 20.5734 377.362 29.7163 377.362 39.2493C377.362 48.7824 373.576 57.9253 366.837 64.6682C360.097 71.4111 350.955 75.2021 341.421 75.2079C340.351 75.2079 339.294 75.1576 338.248 75.066C347.199 74.2702 355.528 70.1525 361.595 63.5235C367.661 56.8946 371.026 48.2348 371.027 39.2493Z" fill="black"/>
<path d="M343.11 32.0786H317.413V34.4647H343.11V32.0786Z" fill="#FF5900"/>
<path d="M362.201 40.333H317.413V42.7191H362.201V40.333Z" fill="#FF5900"/>
<path d="M362.157 48.5872H317.413V50.9732H362.157V48.5872Z" fill="#FF5900"/>
<path d="M166.607 206.356H0.436143C0.320471 206.356 0.209536 206.31 0.127743 206.229C0.0459504 206.147 0 206.036 0 205.92C0 205.805 0.0459504 205.694 0.127743 205.612C0.209536 205.53 0.320471 205.484 0.436143 205.484H166.607C166.722 205.484 166.833 205.53 166.915 205.612C166.997 205.694 167.043 205.805 167.043 205.92C167.043 206.036 166.997 206.147 166.915 206.229C166.833 206.31 166.722 206.356 166.607 206.356Z" fill="#FF5900"/>
<path d="M102.524 32.7899C102.164 31.1566 100.995 29.8033 99.6472 28.8123C97.426 27.1785 94.7021 26.3754 91.9498 26.5427C89.1974 26.7101 86.5909 27.8373 84.5841 29.7281C83.4627 30.7184 82.6543 32.014 82.2577 33.4564C82.0685 34.1773 82.0584 34.9335 82.2283 35.6593C82.3981 36.385 82.7429 37.0582 83.2324 37.6202L83.417 37.7359C83.2497 37.0259 83.8012 36.3165 84.4601 36.0033C85.1454 35.7518 85.8607 35.5914 86.5878 35.5263C87.6878 35.3184 88.7304 34.8768 89.6451 34.2315C90.5598 33.5861 91.3253 32.7519 91.8899 31.7853C92.3082 32.975 92.9764 34.0613 93.8497 34.9712C94.7229 35.8811 95.7808 36.5935 96.9524 37.0605C98.1737 37.5381 101.528 38.1948 102.691 37.5885C104.174 36.8151 102.884 34.4233 102.524 32.7899Z" fill="#2F2E41"/>
</svg>
