<svg width="386" height="233" viewBox="0 0 386 233" fill="none" xmlns="http://www.w3.org/2000/svg">
<path d="M41.8184 220.017C41.4608 220.034 41.1067 219.94 40.8042 219.748C40.5017 219.556 40.2653 219.276 40.1272 218.946C39.9891 218.615 39.9558 218.25 40.032 217.9C40.1081 217.55 40.29 217.232 40.5529 216.989C40.5969 216.814 40.6285 216.688 40.6725 216.513C40.3302 215.643 39.7361 214.895 38.9662 214.365C38.1963 213.835 37.2858 213.547 36.3514 213.539C35.417 213.53 34.5012 213.8 33.7215 214.316C32.9417 214.831 32.3336 215.568 31.975 216.431C29.9054 221.278 27.2269 226.295 28.559 231.633C19.7603 212.976 22.7525 189.768 35.7557 173.813C39.35 171.832 42.2632 168.312 43.0216 164.226C41.2428 164.829 39.0249 163.381 40.3624 161.506C40.9421 160.79 41.5275 160.079 42.1071 159.363C35.35 152.163 27.299 163.478 34.7367 173.196C32.3036 176.248 30.1961 179.546 28.4485 183.037C28.8521 179.33 28.3704 175.581 27.0431 172.097C25.6979 168.85 23.1765 166.116 20.9562 163.309C18.2565 159.889 12.7002 161.467 12.337 165.807C14.8284 166.626 15.1521 170.227 12.3022 170.72C13.0486 178.794 18.3207 186.214 25.5819 189.755C22.9004 197.282 21.8534 205.295 22.5105 213.26C21.2288 203.952 11.2424 201.693 4.26241 197.993C3.81815 197.708 3.3006 197.559 2.77285 197.563C2.24511 197.567 1.73001 197.725 1.29038 198.017C0.850751 198.309 0.505595 198.723 0.297025 199.208C0.0884539 199.693 0.0254789 200.229 0.115786 200.749C1.07917 201.141 2.00127 201.627 2.86849 202.202C3.27485 202.475 3.58676 202.868 3.76147 203.325C3.93618 203.783 3.96514 204.283 3.84437 204.758C3.72361 205.233 3.45903 205.659 3.08691 205.977C2.71479 206.296 2.25335 206.491 1.76583 206.537C5.28419 215.249 14.3806 221.099 23.7232 221.067C24.621 224.97 25.9218 228.77 27.6047 232.404H41.4709C41.5207 232.25 41.5654 232.091 41.6101 231.936C40.3266 232.017 39.0381 231.94 37.7733 231.708C41.169 227.685 43.7947 225.633 41.8184 220.017Z" fill="#9FFF93"/>
<path d="M72.2231 75.3195L74.4806 95.6907L103.311 96.1882L99.8317 71.8183L72.2231 75.3195Z" fill="#FFB7B7"/>
<path d="M117.845 226.21L123.728 224.62L120.398 201.159L111.715 203.506L117.845 226.21Z" fill="#FFB7B7"/>
<path d="M115.825 224.694L127.411 221.562L127.412 221.562C129.37 221.033 131.458 221.304 133.217 222.315C134.976 223.326 136.261 224.995 136.79 226.954L136.855 227.194L117.885 232.321L115.825 224.694Z" fill="#FF5900"/>
<path d="M42.0723 226.518L48.1665 226.518L51.0657 203L42.0713 203.001L42.0723 226.518Z" fill="#FFB7B7"/>
<path d="M40.5176 224.528L52.5192 224.527H52.5196C54.5481 224.527 56.4934 225.334 57.9277 226.769C59.362 228.204 60.1679 230.15 60.168 232.179V232.428L40.5179 232.429L40.5176 224.528Z" fill="#FF5900"/>
<path d="M74.0236 83.8371L69.9187 91.2297C68.3289 92.9234 66.8605 94.7273 65.5246 96.628C65.1448 97.156 64.0661 97.0612 63.6614 97.6612C63.3716 98.0907 63.7608 99.1978 63.462 99.6632C63.1419 100.162 62.818 100.681 62.4905 101.22C62.3706 101.418 61.501 100.543 62.1297 101.822C62.2319 102.03 61.8932 102.223 61.7746 102.428C57.614 109.604 53.2946 119.915 52.6782 132.437L50.6993 137.288L51.3721 141.466L50.6993 144.493L50.4621 147.758L50.0903 150.329L47.7027 166.836C43.4336 182.831 41.0557 199.271 40.6177 215.821H49.9792L64.0267 170.841L79.4784 137.439L94.7093 158.884L95.3465 161.784L97.5717 162.914L98.2269 165.387L100.541 167.094L103.525 171.296C105.506 186.317 105.328 199.323 111.909 210.057L122.711 208.616L117.74 161.258L104.306 113.449L102.946 87.4179L74.0236 83.8371Z" fill="#2F2E41"/>
<path d="M71.5826 86.8539L68.5591 69.8379L67.4489 56.8843C66.8202 49.5365 65.788 51.7367 70.1423 45.7863L80.9441 38.5815H89.5855L93.9062 45.7863L102.639 53.7072C108.296 59.398 103.868 64.8461 103.25 65.5479L103.988 94.0588C109.836 107.886 100.429 103.557 96.7866 104.146C85.9849 102.705 57.1803 96.9407 70.1423 90.4563C69.6364 88.5011 70.154 87.329 71.5826 86.8539Z" fill="#E6E6E6"/>
<path d="M144.909 54.5892C144.31 54.2645 143.647 54.0752 142.966 54.0347C142.286 53.9941 141.605 54.1033 140.972 54.3545C140.338 54.6057 139.768 54.9927 139.3 55.4885C138.832 55.9842 138.479 56.5766 138.264 57.2238L127.642 58.0056L126.542 64.5803L141.528 63.2653C142.638 63.5533 143.816 63.4237 144.837 62.9011C145.859 62.3785 146.653 61.4992 147.07 60.4297C147.487 59.3603 147.497 58.1751 147.099 57.0986C146.7 56.0222 145.921 55.1293 144.909 54.5892Z" fill="#FFB7B7"/>
<path d="M138.399 64.3006L135.324 65.655C133.756 66.3459 132.024 66.5782 130.329 66.3252L126.785 65.7961L125.113 66.5952C123.131 67.542 120.873 67.7374 118.758 67.1452L117.986 66.9292L116.94 67.4787C115.833 68.0604 114.617 68.4068 113.37 68.4961C112.122 68.5853 110.869 68.4156 109.691 67.9975L103.171 68.8371L84.4659 56.8752C83.513 56.6809 82.6195 56.2645 81.8578 55.6598C80.8337 54.8319 80.1103 53.69 79.799 52.4101C79.4877 51.1302 79.6059 49.7834 80.1353 48.5773C80.6647 47.3713 81.576 46.3729 82.7285 45.7363C83.8811 45.0996 85.211 44.86 86.5132 45.0543L103.155 54.3463L103.918 54.0288C105.656 53.3056 107.54 53.0029 109.418 53.1452C111.295 53.2876 113.112 53.871 114.721 54.848L114.959 54.9921L115.703 54.6736C117.218 54.0259 118.849 53.6979 120.496 53.71C122.143 53.7222 123.77 54.0743 125.274 54.7443L127.354 55.6702C129.897 54.7426 132.679 54.7047 135.246 55.5629L137.174 56.2075L138.399 64.3006Z" fill="#E6E6E6"/>
<path d="M108.704 128.143C108.855 127.478 108.859 126.789 108.715 126.122C108.572 125.456 108.283 124.829 107.871 124.286C107.459 123.743 106.933 123.297 106.33 122.98C105.727 122.662 105.062 122.481 104.381 122.448L100.772 112.422L94.1475 113.13L99.4425 127.218C99.4638 128.365 99.9052 129.465 100.683 130.309C101.461 131.153 102.521 131.682 103.662 131.796C104.804 131.91 105.948 131.601 106.877 130.928C107.806 130.255 108.456 129.264 108.704 128.143Z" fill="#FFB7B7"/>
<path d="M97.6045 124.481L95.474 121.882C94.3872 120.556 93.6979 118.949 93.4858 117.248L93.0423 113.691L91.8234 112.294C90.379 110.639 89.5838 108.515 89.5853 106.318L89.5858 105.516L88.7756 104.656C87.9178 103.745 87.2576 102.667 86.8362 101.489C86.4148 100.31 86.2415 99.0576 86.327 97.8092L83.7659 91.7521L81.9871 61.8677L81.6377 55.7118C81.5685 54.7413 81.7292 53.7683 82.1066 52.8717C82.6282 51.6622 83.533 50.658 84.6815 50.014C85.8299 49.3699 87.1583 49.1217 88.4616 49.3076C89.765 49.4935 90.9711 50.1032 91.8939 51.0428C92.8167 51.9823 93.405 53.1994 93.568 54.5065L97.7116 87.8404L98.2225 88.4906C99.3861 89.9712 100.184 91.7057 100.552 93.5529C100.919 95.4002 100.846 97.3082 100.338 99.1219L100.264 99.3894L100.77 100.021C101.801 101.306 102.556 102.791 102.987 104.381C103.418 105.971 103.516 107.633 103.276 109.264L102.943 111.516C104.52 113.717 105.304 116.388 105.168 119.093L105.066 121.124L97.6045 124.481Z" fill="#E6E6E6"/>
<path d="M86.5749 36.4295C93.0624 36.4295 98.3216 31.1676 98.3216 24.6767C98.3216 18.1858 93.0624 12.924 86.5749 12.924C80.0873 12.924 74.8281 18.1858 74.8281 24.6767C74.8281 31.1676 80.0873 36.4295 86.5749 36.4295Z" fill="#FFB8B8"/>
<path d="M94.6266 33.5381L92.0918 21.3908C94.3169 22.2985 99.7466 21.1098 101.108 19.1284C102.469 17.1471 99.617 14.575 97.9751 12.8242C96.7941 11.5706 95.0875 10.9581 93.4096 10.5979C91.6202 10.2602 89.8116 10.034 87.9943 9.92063C85.6971 9.7333 83.3712 9.54601 81.11 9.99987C78.1028 10.6131 75.436 12.3353 73.6391 14.8245C71.8422 17.3137 71.0465 20.388 71.41 23.4369C71.7053 25.8794 72.7279 28.3578 72.0221 30.7138C71.302 33.1058 68.9976 34.6621 67.8095 36.8595C66.7725 38.7904 66.6645 41.1248 67.1109 43.2719C67.6365 45.4066 68.4505 47.4597 69.5306 49.3744C71.2156 52.6237 73.1383 55.8876 76.1052 58.0202C77.3484 58.9108 78.7446 59.5653 80.2242 59.951C81.8268 56.8868 82.5025 53.4218 82.1686 49.9796C84.5997 52.841 86.2209 56.3014 86.8637 60.0015C87.6116 59.8129 88.338 59.5473 89.0312 59.209C91.0705 58.1898 92.7829 56.6183 93.9732 54.6732C95.1636 52.7282 95.7842 50.4878 95.7643 48.2072C95.6635 44.9506 98.8369 53.5468 101.828 52.2707C107.387 49.8987 105.467 53.9683 94.6266 33.5381Z" fill="#2F2E41"/>
<path d="M340.666 113.333C336.509 106.882 321.054 101.687 303.548 100.857L302.524 100.4C309.593 105.504 312.96 111.325 312.167 117.073C311.71 120.381 309.911 123.641 309.056 126.938C308.586 128.75 309.177 131.048 313.71 131.685C316.776 132.115 320.158 131.516 322.856 130.82C337.408 127.065 344.823 119.784 340.666 113.333Z" fill="#F2F2F2"/>
<path d="M2.54683e-06 232.425C-0.0002227 232.5 0.0144951 232.575 0.0433193 232.645C0.0721434 232.715 0.1145 232.778 0.167953 232.832C0.221405 232.885 0.2849 232.928 0.354781 232.957C0.424662 232.985 0.49955 233 0.57514 233H180.98C181.132 233 181.279 232.939 181.387 232.831C181.494 232.724 181.555 232.577 181.555 232.425C181.555 232.272 181.494 232.126 181.387 232.018C181.279 231.91 181.132 231.849 180.98 231.849H0.57514C0.499551 231.849 0.42466 231.864 0.354781 231.893C0.284901 231.921 0.221411 231.964 0.16796 232.017C0.114508 232.071 0.0721517 232.134 0.0433266 232.204C0.0145016 232.274 -0.000220134 232.349 2.54683e-06 232.425Z" fill="#FF5900"/>
<path d="M326.326 134.489H203.814C198.911 134.489 194.209 132.54 190.742 129.072C187.276 125.603 185.328 120.899 185.328 115.994C185.328 111.089 187.276 106.384 190.742 102.916C194.209 99.4475 198.911 97.4989 203.814 97.4989H326.326C331.229 97.4989 335.93 99.4475 339.397 102.916C342.864 106.384 344.812 111.089 344.812 115.994C344.812 120.899 342.864 125.603 339.397 129.072C335.93 132.54 331.229 134.489 326.326 134.489ZM203.814 98.466C199.167 98.466 194.711 100.313 191.426 103.6C188.14 106.887 186.295 111.345 186.295 115.994C186.295 120.643 188.14 125.101 191.426 128.388C194.711 131.675 199.167 133.522 203.814 133.522H326.326C330.972 133.522 335.428 131.675 338.714 128.388C341.999 125.101 343.845 120.643 343.845 115.994C343.845 111.345 341.999 106.887 338.714 103.6C335.428 100.313 330.972 98.466 326.326 98.466H203.814Z" fill="#3F3D56"/>
<path d="M202.726 121.917C201.829 121.916 200.969 121.559 200.335 120.925C199.701 120.29 199.344 119.43 199.343 118.532V109.829C199.343 108.931 199.7 108.07 200.334 107.436C200.969 106.801 201.829 106.444 202.726 106.444C203.623 106.444 204.484 106.801 205.118 107.436C205.753 108.07 206.109 108.931 206.109 109.829V118.532C206.108 119.43 205.751 120.29 205.117 120.925C204.483 121.559 203.623 121.916 202.726 121.917Z" fill="#FF5900"/>
<path d="M212.392 121.917C211.495 121.916 210.635 121.559 210.001 120.925C209.367 120.29 209.01 119.43 209.009 118.532V109.829C209.009 108.931 209.365 108.07 210 107.436C210.634 106.801 211.495 106.444 212.392 106.444C213.289 106.444 214.149 106.801 214.784 107.436C215.418 108.07 215.775 108.931 215.775 109.829V118.532C215.774 119.43 215.417 120.29 214.783 120.925C214.149 121.559 213.289 121.916 212.392 121.917Z" fill="#FF5900"/>
<path d="M222.058 121.917C221.161 121.916 220.301 121.559 219.667 120.925C219.033 120.29 218.676 119.43 218.675 118.532V109.829C218.675 108.931 219.031 108.07 219.666 107.436C220.3 106.801 221.161 106.444 222.058 106.444C222.955 106.444 223.815 106.801 224.45 107.436C225.084 108.07 225.441 108.931 225.441 109.829V118.532C225.44 119.43 225.083 120.29 224.449 120.925C223.815 121.559 222.955 121.916 222.058 121.917Z" fill="white"/>
<path d="M231.723 121.917C230.826 121.916 229.967 121.559 229.332 120.925C228.698 120.29 228.341 119.43 228.34 118.532V109.829C228.34 108.931 228.697 108.07 229.331 107.436C229.966 106.801 230.826 106.444 231.723 106.444C232.621 106.444 233.481 106.801 234.115 107.436C234.75 108.07 235.106 108.931 235.106 109.829V118.532C235.105 119.43 234.748 120.29 234.114 120.925C233.48 121.559 232.62 121.916 231.723 121.917Z" fill="#FF5900"/>
<path d="M235.589 97.9826H234.623V61.697H165.679V60.73H235.589V97.9826Z" fill="#3F3D56"/>
<path d="M154.907 71.8333C162.321 71.8333 168.332 65.8193 168.332 58.4008C168.332 50.9822 162.321 44.9683 154.907 44.9683C147.492 44.9683 141.481 50.9822 141.481 58.4008C141.481 65.8193 147.492 71.8333 154.907 71.8333Z" fill="#FF5900"/>
<path d="M153.075 65.3918C152.844 65.3918 152.615 65.3378 152.408 65.234C152.2 65.1302 152.02 64.9796 151.881 64.794L148.218 59.9078C148.1 59.7508 148.014 59.5722 147.965 59.382C147.917 59.1918 147.906 58.9939 147.933 58.7995C147.961 58.6051 148.027 58.4181 148.127 58.2491C148.227 58.0801 148.359 57.9325 148.516 57.8146C148.673 57.6968 148.852 57.6112 149.042 57.5625C149.232 57.5138 149.43 57.5031 149.624 57.531C149.818 57.5589 150.005 57.6248 150.174 57.725C150.343 57.8252 150.49 57.9577 150.608 58.1149L153.004 61.3113L159.158 52.075C159.378 51.7456 159.72 51.5171 160.108 51.4396C160.496 51.3621 160.899 51.442 161.229 51.6617C161.558 51.8814 161.787 52.2229 161.865 52.6112C161.942 52.9995 161.863 53.4029 161.644 53.7326L154.318 64.7264C154.186 64.9252 154.007 65.0893 153.798 65.205C153.589 65.3207 153.356 65.3846 153.117 65.3913C153.103 65.3916 153.089 65.3918 153.075 65.3918Z" fill="white"/>
<path d="M292.91 97.9826H291.943V60.73H361.854V61.697H292.91V97.9826Z" fill="#3F3D56"/>
<path d="M372.575 71.8333C379.989 71.8333 386 65.8193 386 58.4008C386 50.9822 379.989 44.9683 372.575 44.9683C365.16 44.9683 359.149 50.9822 359.149 58.4008C359.149 65.8193 365.16 71.8333 372.575 71.8333Z" fill="#FF5900"/>
<path d="M370.743 65.3918C370.511 65.3918 370.282 65.3378 370.075 65.234C369.868 65.1302 369.687 64.9796 369.548 64.794L365.886 59.9078C365.768 59.7508 365.682 59.5722 365.633 59.382C365.584 59.1918 365.573 58.9939 365.601 58.7995C365.628 58.6051 365.694 58.4181 365.794 58.2491C365.894 58.0801 366.026 57.9325 366.183 57.8146C366.34 57.6968 366.519 57.6112 366.709 57.5625C366.899 57.5138 367.097 57.5031 367.291 57.531C367.486 57.5589 367.673 57.6248 367.841 57.725C368.01 57.8252 368.158 57.9577 368.275 58.1149L370.671 61.3113L376.826 52.075C377.046 51.7456 377.387 51.5171 377.775 51.4396C378.164 51.3621 378.567 51.442 378.896 51.6617C379.225 51.8814 379.454 52.2229 379.532 52.6112C379.61 52.9995 379.53 53.4029 379.311 53.7326L371.986 64.7264C371.853 64.9252 371.675 65.0893 371.466 65.205C371.257 65.3207 371.023 65.3846 370.784 65.3913C370.771 65.3916 370.757 65.3918 370.743 65.3918Z" fill="white"/>
<path d="M264.25 20.7401H263.283V97.9824H264.25V20.7401Z" fill="#3F3D56"/>
<path d="M265.096 26.8649C272.51 26.8649 278.521 20.851 278.521 13.4325C278.521 6.01392 272.51 0 265.096 0C257.681 0 251.67 6.01392 251.67 13.4325C251.67 20.851 257.681 26.8649 265.096 26.8649Z" fill="#FF5900"/>
<path d="M263.264 20.4235C263.032 20.4235 262.803 20.3694 262.596 20.2657C262.389 20.1619 262.208 20.0113 262.069 19.8257L258.407 14.9395C258.289 14.7825 258.203 14.6039 258.154 14.4137C258.105 14.2235 258.094 14.0256 258.122 13.8312C258.149 13.6368 258.215 13.4497 258.315 13.2807C258.415 13.1118 258.547 12.9641 258.704 12.8463C258.861 12.7285 259.04 12.6428 259.23 12.5942C259.42 12.5455 259.618 12.5348 259.812 12.5627C260.007 12.5906 260.194 12.6565 260.362 12.7567C260.531 12.8569 260.678 12.9894 260.796 13.1466L263.192 16.343L269.347 7.10664C269.567 6.7773 269.908 6.54877 270.296 6.47127C270.685 6.39378 271.088 6.47365 271.417 6.69334C271.746 6.91303 271.975 7.25457 272.053 7.6429C272.131 8.03123 272.051 8.43457 271.832 8.76431L264.507 19.7581C264.374 19.9569 264.196 20.121 263.987 20.2367C263.778 20.3524 263.544 20.4163 263.305 20.423C263.292 20.4232 263.278 20.4235 263.264 20.4235Z" fill="white"/>
<path d="M248.719 109.599C259.158 109.048 269.606 108.755 280.063 108.72C290.476 108.686 300.886 108.91 311.292 109.392C317.173 109.664 323.05 110.018 328.922 110.455C329.853 110.524 329.848 109.073 328.922 109.004C318.497 108.231 308.058 107.715 297.604 107.456C287.194 107.201 276.782 107.202 266.368 107.462C260.482 107.608 254.599 107.837 248.719 108.148C247.791 108.197 247.785 109.648 248.719 109.599Z" fill="#3F3D56"/>
<path d="M248.719 115.885C259.158 115.334 269.606 115.041 280.063 115.006C290.476 114.972 300.886 115.196 311.292 115.677C317.173 115.95 323.05 116.304 328.922 116.741C329.853 116.81 329.848 115.359 328.922 115.29C318.497 114.517 308.058 114.001 297.604 113.742C287.194 113.487 276.782 113.488 266.368 113.748C260.482 113.894 254.599 114.123 248.719 114.434C247.791 114.483 247.785 115.934 248.719 115.885Z" fill="#3F3D56"/>
<path d="M248.719 122.171C259.158 121.62 269.606 121.327 280.063 121.292C290.476 121.258 300.886 121.482 311.292 121.963C317.173 122.236 323.05 122.59 328.922 123.027C329.853 123.096 329.848 121.645 328.922 121.576C318.497 120.803 308.058 120.287 297.604 120.028C287.194 119.772 276.782 119.774 266.368 120.033C260.482 120.18 254.599 120.409 248.719 120.72C247.791 120.769 247.785 122.22 248.719 122.171Z" fill="#3F3D56"/>
<path opacity="0.2" d="M83.1135 62.2014L81.6255 93.5583L86.3559 102.334L84.5634 90.7296L83.1135 62.2014Z" fill="black"/>
</svg>
