<svg width="427" height="208" viewBox="0 0 427 208" fill="none" xmlns="http://www.w3.org/2000/svg">
<path d="M0 187.7C0 188.122 0.481013 188.458 1.0834 188.458H425.917C426.514 188.458 427 188.122 427 187.7C427 187.278 426.519 186.942 425.917 186.942H1.0834C0.485508 186.942 0 187.278 0 187.7Z" fill="#FF5900"/>
<path d="M354.776 188.772H73.123V7.76568C73.123 3.48581 76.6115 0 80.9047 0H346.995C351.283 0 354.776 3.48132 354.776 7.76568V188.772Z" fill="#2F2E41"/>
<path d="M378.22 208H48.978C47.8406 208 46.9101 207.296 46.5999 206.201C46.2942 205.111 46.7212 204.021 47.6923 203.433L73.3568 187.807H354.871L354.952 187.857L379.551 203.455C380.499 204.057 380.913 205.142 380.598 206.223C380.283 207.3 379.353 208 378.229 208H378.22Z" fill="#DFDFDF"/>
<path d="M347.066 11.5386H80.5088V176.915H347.066V11.5386Z" fill="white"/>
<path d="M357.343 198.067H71.5181L85.6473 186.628H343.857L357.343 198.067Z" fill="#2F2E41"/>
<path d="M281.554 205.757H146.025L151.164 198.068H276.416L281.554 205.757Z" fill="#FF5900"/>
<path d="M293.678 76.9345H279.558C278.331 76.9345 277.333 75.9386 277.333 74.7139C277.333 73.4891 278.331 72.4932 279.558 72.4932H293.678C294.906 72.4932 295.904 73.4891 295.904 74.7139C295.904 75.9386 294.906 76.9345 293.678 76.9345Z" fill="#FF5900"/>
<path d="M309.916 76.9345H303.326C302.099 76.9345 301.101 75.9386 301.101 74.7139C301.101 73.4891 302.099 72.4932 303.326 72.4932H309.916C311.143 72.4932 312.141 73.4891 312.141 74.7139C312.141 75.9386 311.143 76.9345 309.916 76.9345Z" fill="#FF5900"/>
<path d="M152.306 78.6303H109.329C107.135 78.6303 105.351 76.8493 105.351 74.66C105.351 72.4707 107.135 70.6897 109.329 70.6897H152.306C154.499 70.6897 156.284 72.4707 156.284 74.66C156.284 76.8493 154.499 78.6303 152.306 78.6303Z" fill="#FF5900"/>
<path d="M129.006 89.2223H108.295C106.96 89.2223 105.868 88.1367 105.868 86.7998C105.868 85.4629 106.956 84.3772 108.295 84.3772H129.006C130.341 84.3772 131.433 85.4629 131.433 86.7998C131.433 88.1367 130.345 89.2223 129.006 89.2223Z" fill="#FFB38A"/>
<path d="M243.181 98.7825H107.774C106.439 98.7825 105.346 97.6968 105.346 96.3599C105.346 95.023 106.434 93.9374 107.774 93.9374H243.181C244.516 93.9374 245.609 95.023 245.609 96.3599C245.609 97.6968 244.521 98.7825 243.181 98.7825Z" fill="#FFB38A"/>
<path d="M231.533 105.243H107.774C106.439 105.243 105.346 104.157 105.346 102.82C105.346 101.483 106.434 100.398 107.774 100.398H231.529C232.864 100.398 233.956 101.483 233.956 102.82C233.956 104.157 232.869 105.243 231.529 105.243H231.533Z" fill="#FFB38A"/>
<path d="M377.051 68.2716L370.434 70.443V60.9321H376.44L377.051 68.2716Z" fill="#F2A7AA"/>
<path d="M371.252 63.5656C374.894 63.5656 377.847 60.619 377.847 56.9843C377.847 53.3495 374.894 50.403 371.252 50.403C367.61 50.403 364.657 53.3495 364.657 56.9843C364.657 60.619 367.61 63.5656 371.252 63.5656Z" fill="#F2A7AA"/>
<path d="M373.064 56.3337C371.958 56.3023 371.234 55.1852 370.807 54.1713C370.38 53.153 369.935 51.9865 368.914 51.5648C368.078 51.2194 366.599 53.5388 365.938 52.9242C365.251 52.2826 365.92 48.9718 366.653 48.3796C367.386 47.7874 368.384 47.6708 369.328 47.6259C371.625 47.5182 373.94 47.7067 376.192 48.1732C377.586 48.4648 379.02 48.9 380.027 49.9049C381.299 51.179 381.627 53.1036 381.717 54.9026C381.812 56.7419 381.704 58.671 380.809 60.2771C379.915 61.8877 378.036 63.0765 376.237 62.6638C376.058 61.6858 376.237 60.6853 376.309 59.6939C376.377 58.7024 376.309 57.6347 375.702 56.8451C375.096 56.0556 373.801 55.746 373.095 56.4459" fill="#36344E"/>
<path d="M381.178 58.6127C381.839 58.1282 382.625 57.7289 383.439 57.8276C384.316 57.9353 385.057 58.6576 385.282 59.5099C385.507 60.3623 385.255 61.3044 384.711 61.9998C384.167 62.6952 383.363 63.1573 382.508 63.3905C382.014 63.5251 381.475 63.579 381.002 63.3771C380.31 63.081 379.937 62.1927 380.207 61.4929" fill="#36344E"/>
<path d="M374.866 174.066H368.667V182.841H374.866V174.066Z" fill="#F2A7AA"/>
<path d="M362.63 188.157C361.978 188.157 361.398 188.139 360.962 188.099C359.316 187.947 357.743 186.735 356.952 186.026C356.597 185.708 356.484 185.201 356.669 184.761C356.799 184.447 357.064 184.214 357.392 184.12L361.744 182.877L368.788 178.131L368.865 178.27C368.896 178.324 369.584 179.566 369.818 180.405C369.908 180.724 369.881 180.993 369.75 181.199C369.656 181.343 369.53 181.424 369.422 181.473C369.548 181.607 369.948 181.877 371.18 182.074C372.974 182.361 373.356 180.499 373.369 180.423L373.383 180.36L373.437 180.324C374.291 179.773 374.817 179.526 375.001 179.58C375.113 179.616 375.302 179.669 375.815 184.734C375.864 184.891 376.224 186.058 375.981 187.17C375.716 188.382 370.411 187.964 369.35 187.87C369.319 187.87 365.349 188.157 362.625 188.157H362.63Z" fill="#FF5900"/>
<path d="M392.516 167.165L387.256 170.439L391.909 177.885L397.169 174.611L392.516 167.165Z" fill="#F2A7AA"/>
<path d="M385.534 186.955C384.806 186.955 384.136 186.87 383.659 186.785C383.192 186.704 382.823 186.331 382.747 185.86C382.693 185.524 382.792 185.187 383.021 184.932L386.055 181.581L389.517 173.833L389.656 173.909C389.71 173.936 390.956 174.627 391.598 175.219C391.841 175.443 391.963 175.681 391.958 175.928C391.958 176.098 391.891 176.237 391.828 176.332C392.007 176.377 392.488 176.394 393.639 175.91C395.316 175.206 394.651 173.425 394.624 173.348L394.601 173.29L394.628 173.232C395.064 172.312 395.375 171.823 395.559 171.774C395.671 171.742 395.865 171.693 398.98 175.717C399.106 175.825 400.027 176.623 400.414 177.7C400.832 178.866 396.107 181.316 395.159 181.796C395.127 181.818 390.187 185.403 388.159 186.421C387.355 186.825 386.402 186.951 385.534 186.951V186.955Z" fill="#FF5900"/>
<path d="M379.434 100.662H362.077L360.503 116.777L367.395 176.314H376.255L372.713 141.927L387.085 172.971L394.961 167.471L383.736 138.49C383.736 138.49 387.746 113.242 384.595 106.952C381.443 100.662 379.434 100.662 379.434 100.662Z" fill="#36344E"/>
<path d="M388.065 101.645H360.499L368.771 66.0823H380.778L388.065 101.645Z" fill="#FF5900"/>
<path d="M353.652 65.378C353.212 63.2156 354.016 61.2372 355.45 60.9636C356.885 60.6899 358.399 62.2197 358.84 64.3866C359.029 65.2479 358.997 66.1407 358.755 66.9931L360.499 76.1854L355.994 76.8942L354.754 67.7602C354.196 67.0648 353.819 66.2483 353.652 65.378Z" fill="#F2A7AA"/>
<path d="M380.486 66.0823H369.895L362.756 80.3351L360.063 69.6578L354.147 70.2859C354.147 70.2859 355.545 91.1514 361.668 90.447C367.786 89.7427 382.059 70.9409 380.49 66.0868L380.486 66.0823Z" fill="#FF5900"/>
<path d="M392.318 120.281C392.758 122.443 391.954 124.421 390.52 124.695C389.086 124.969 387.571 123.439 387.13 121.272C386.941 120.411 386.973 119.518 387.215 118.666L385.471 109.473L389.976 108.764L391.216 117.898C391.774 118.594 392.151 119.41 392.318 120.281Z" fill="#F2A7AA"/>
<path d="M374.448 66.0823C374.448 66.0823 380.468 65.8266 380.778 66.0823C382.419 67.4237 392.057 115.727 392.057 115.727H385.952L374.444 66.0823H374.448Z" fill="#FF5900"/>
</svg>
