<svg width="382" height="298" viewBox="0 0 382 298" fill="none" xmlns="http://www.w3.org/2000/svg">
<path d="M317.659 128.517C317.659 128.517 308.678 133.513 311.263 139.201C313.849 144.889 350.558 140.235 350.558 140.235C350.558 140.235 347.973 132.478 343.32 130.927C338.666 129.376 317.659 128.517 317.659 128.517Z" fill="#FF5900"/>
<path d="M314.158 129.848C315.963 128.675 317.97 127.845 320.076 127.401C327.103 125.698 334.46 125.927 341.367 128.065L341.24 127.962C344.183 129.516 346.766 131.67 348.823 134.286L314.158 129.848Z" fill="#CCCCCC"/>
<path d="M353.929 154.311C353.805 156.168 353.681 158.022 353.557 159.875C353.387 163.756 352.964 167.622 352.29 171.448C351.659 174.649 350.656 177.825 348.862 180.55C347.068 183.27 344.405 185.519 341.251 186.347C339.315 186.811 337.301 186.855 335.347 186.476C331.66 184.382 329.163 187.06 332.844 189.785C333.679 190.403 334.547 190.974 335.445 191.497L337.115 217.286L306.092 210.563L312.147 176.258C311.22 175.415 310.372 174.489 309.613 173.491C306.144 168.884 304.95 162.88 305.177 157.119C305.41 151.353 306.946 145.732 308.471 140.173C308.86 138.665 309.329 137.179 309.877 135.721C310.555 136 311.242 136.253 311.94 136.465C316.402 137.82 321.143 137.929 325.807 137.924C334.106 137.918 342.394 137.594 350.672 136.951C352.574 140.084 353.729 143.612 354.048 147.263C354.182 149.612 354.142 151.968 353.929 154.311Z" fill="#CCCCCC"/>
<path d="M221.247 224.316L269.006 228.556L269.518 228.603V24.7855C269.347 24.6665 269.177 24.5476 269.006 24.4287C259.053 17.4655 248.286 11.7451 236.944 7.39478L234.504 41.0592L234.282 44.1412L231.867 77.5264L231.123 87.7964L221.335 223.126L221.247 224.316Z" fill="#E6E6E6"/>
<path d="M103.139 20.9899C102.798 21.2071 102.456 21.4243 102.115 21.6518V228.603L103.139 228.51L150.381 224.316L150.293 223.126L140.506 87.7965L139.761 77.5265L137.346 44.1413L137.124 41.0593L134.565 5.75562C123.528 9.58196 112.98 14.6953 103.139 20.9899Z" fill="#E6E6E6"/>
<path d="M102.115 21.6517C101.427 22.0964 100.74 22.5514 100.062 23.0117V231.426C100.062 236.633 103.149 240.998 107.275 242.11C107.949 242.292 108.645 242.384 109.343 242.384H262.801C263.498 242.385 264.192 242.293 264.864 242.11C266.398 241.684 267.788 240.851 268.887 239.7C270.982 237.46 272.128 234.494 272.082 231.426V26.6367C271.234 26.011 270.381 25.3904 269.517 24.7854C269.347 24.6665 269.176 24.5475 269.006 24.4286V231.426C269.007 232.097 268.927 232.765 268.768 233.417C268.039 236.494 265.634 238.748 262.801 238.748H109.343C105.921 238.748 103.139 235.465 103.139 231.426V20.9897C102.798 21.2069 102.456 21.4241 102.115 21.6517Z" fill="#E6E6E6"/>
<path d="M270.544 41.0613H101.6V44.1428H270.544V41.0613Z" fill="#E6E6E6"/>
<path d="M218.801 1.75293C217.778 1.49954 216.754 1.26167 215.72 1.03931V84.7143H218.801V1.75293Z" fill="#E6E6E6"/>
<path d="M156.425 0C155.396 0.191334 154.367 0.387833 153.344 0.599852V84.7144H156.425V0Z" fill="#E6E6E6"/>
<path d="M68.4766 236.99C68.4758 238.759 68.8146 240.511 69.4744 242.151C69.7279 242.787 70.0304 243.403 70.3793 243.992C70.8299 244.761 71.3527 245.485 71.9407 246.154C73.2397 247.634 74.8396 248.82 76.6336 249.633C78.4275 250.445 80.3743 250.865 82.3436 250.865H284.667C288.345 250.865 291.872 249.404 294.472 246.803C297.073 244.202 298.534 240.674 298.534 236.996C298.534 233.317 297.073 229.79 294.472 227.189C291.872 224.588 288.345 223.126 284.667 223.126H82.3436C78.6678 223.13 75.1436 224.592 72.544 227.191C69.9443 229.79 68.4816 233.314 68.4766 236.99Z" fill="#E6E6E6"/>
<path d="M101.599 87.7976L269.517 87.7976V77.5259L101.599 77.5259V87.7976Z" fill="#E6E6E6"/>
<path d="M192.748 80.0938H178.37C178.37 79.3519 178.516 78.6172 178.8 77.9318C179.084 77.2464 179.5 76.6236 180.024 76.099C180.549 75.5744 181.171 75.1583 181.857 74.8744C182.542 74.5904 183.277 74.4443 184.018 74.4443H187.099C188.598 74.4443 190.034 75.0395 191.094 76.099C192.153 77.1585 192.748 78.5954 192.748 80.0938Z" fill="#FF5900"/>
<path d="M0 244.913C4.49166 250.236 9.3499 255.238 14.5392 259.883H367.461C372.65 255.238 377.508 250.236 382 244.913H0Z" fill="#3F3D56"/>
<path d="M95.7354 194.85V247.886H132.885V194.85C132.885 194.469 132.764 194.097 132.538 193.79C132.311 193.483 131.993 193.256 131.628 193.144C131.457 193.087 131.277 193.059 131.096 193.061H97.5295C97.2942 193.061 97.0611 193.107 96.8435 193.196C96.626 193.286 96.4283 193.418 96.2617 193.584C96.095 193.75 95.9628 193.947 95.8725 194.165C95.7822 194.382 95.7356 194.615 95.7354 194.85ZM110.233 213.074C110.243 212.028 110.665 211.029 111.408 210.293C112.15 209.557 113.153 209.144 114.199 209.144C115.244 209.144 116.247 209.557 116.99 210.293C117.733 211.029 118.155 212.028 118.165 213.074V219.227C118.159 220.276 117.739 221.279 116.996 222.019C116.253 222.758 115.247 223.173 114.199 223.173C113.151 223.173 112.145 222.758 111.402 222.019C110.659 221.279 110.239 220.276 110.233 219.227V213.074Z" fill="#2F2E41"/>
<path d="M95.6211 246.19V251.304C95.6219 251.569 95.7272 251.823 95.914 252.011C96.1008 252.199 96.3541 252.305 96.619 252.307H132C132.265 252.306 132.519 252.2 132.706 252.012C132.893 251.824 132.998 251.569 132.998 251.304V246.19H95.6211Z" fill="#3F3D56"/>
<path d="M37.2939 114.945V211.781C37.2949 213.015 37.7855 214.198 38.658 215.071C39.5304 215.943 40.7135 216.434 41.9473 216.435H185.426C186.66 216.434 187.843 215.943 188.715 215.071C189.588 214.198 190.078 213.015 190.079 211.781V114.945C190.077 113.712 189.585 112.531 188.713 111.659C187.841 110.788 186.659 110.298 185.426 110.296H41.9473C40.7145 110.298 39.5326 110.788 38.6604 111.659C37.7883 112.531 37.2969 113.712 37.2939 114.945Z" fill="#3F3D56"/>
<path d="M40.6602 116.15V210.586C40.6613 211.246 40.9237 211.878 41.3898 212.344C41.856 212.81 42.4879 213.072 43.1471 213.074H184.232C184.891 213.072 185.523 212.81 185.989 212.344C186.455 211.878 186.718 211.246 186.719 210.586V116.15C186.719 115.49 186.457 114.857 185.991 114.389C185.525 113.922 184.892 113.659 184.232 113.657H43.1471C42.4871 113.659 41.8546 113.922 41.3883 114.389C40.9221 114.857 40.6602 115.49 40.6602 116.15Z" fill="#FF5900"/>
<path d="M69.4283 253.512C69.5719 253.692 69.7545 253.837 69.9622 253.937C70.17 254.036 70.3976 254.087 70.6279 254.086H154.564C154.794 254.086 155.02 254.034 155.228 253.936C155.435 253.837 155.617 253.693 155.762 253.515C155.906 253.336 156.01 253.128 156.064 252.905C156.118 252.682 156.121 252.449 156.074 252.225L154.771 246.035C154.717 245.782 154.601 245.547 154.433 245.351C154.265 245.155 154.051 245.004 153.809 244.912C153.635 244.844 153.449 244.809 153.261 244.809H71.9256C71.7381 244.809 71.5522 244.844 71.3776 244.912C71.1364 245.004 70.9221 245.155 70.7541 245.351C70.5861 245.547 70.4699 245.782 70.4159 246.035L69.1129 252.225C69.0666 252.449 69.0708 252.681 69.1254 252.904C69.1799 253.127 69.2834 253.334 69.4283 253.512Z" fill="#2F2E41"/>
<path d="M150.332 247.475H152.413C152.552 247.475 152.665 247.362 152.665 247.223V246.176C152.665 246.037 152.552 245.924 152.413 245.924H150.332C150.193 245.924 150.08 246.037 150.08 246.176V247.223C150.08 247.362 150.193 247.475 150.332 247.475Z" fill="#3F3D56"/>
<path d="M145.162 247.475H147.243C147.382 247.475 147.495 247.362 147.495 247.223V246.176C147.495 246.037 147.382 245.924 147.243 245.924H145.162C145.023 245.924 144.91 246.037 144.91 246.176V247.223C144.91 247.362 145.023 247.475 145.162 247.475Z" fill="#3F3D56"/>
<path d="M139.991 247.475H142.072C142.211 247.475 142.324 247.362 142.324 247.223V246.176C142.324 246.037 142.211 245.924 142.072 245.924H139.991C139.852 245.924 139.739 246.037 139.739 246.176V247.223C139.739 247.362 139.852 247.475 139.991 247.475Z" fill="#3F3D56"/>
<path d="M134.822 247.475H136.902C137.041 247.475 137.154 247.362 137.154 247.223V246.176C137.154 246.037 137.041 245.924 136.902 245.924H134.822C134.682 245.924 134.569 246.037 134.569 246.176V247.223C134.569 247.362 134.682 247.475 134.822 247.475Z" fill="#3F3D56"/>
<path d="M129.651 247.475H131.731C131.87 247.475 131.983 247.362 131.983 247.223V246.176C131.983 246.037 131.87 245.924 131.731 245.924H129.651C129.511 245.924 129.398 246.037 129.398 246.176V247.223C129.398 247.362 129.511 247.475 129.651 247.475Z" fill="#3F3D56"/>
<path d="M124.481 247.475H126.561C126.7 247.475 126.813 247.362 126.813 247.223V246.176C126.813 246.037 126.7 245.924 126.561 245.924H124.481C124.341 245.924 124.228 246.037 124.228 246.176V247.223C124.228 247.362 124.341 247.475 124.481 247.475Z" fill="#3F3D56"/>
<path d="M119.31 247.475H121.39C121.53 247.475 121.643 247.362 121.643 247.223V246.176C121.643 246.037 121.53 245.924 121.39 245.924H119.31C119.17 245.924 119.057 246.037 119.057 246.176V247.223C119.057 247.362 119.17 247.475 119.31 247.475Z" fill="#3F3D56"/>
<path d="M114.14 247.475H116.22C116.36 247.475 116.473 247.362 116.473 247.223V246.176C116.473 246.037 116.36 245.924 116.22 245.924H114.14C114 245.924 113.887 246.037 113.887 246.176V247.223C113.887 247.362 114 247.475 114.14 247.475Z" fill="#3F3D56"/>
<path d="M108.969 247.475H111.049C111.189 247.475 111.302 247.362 111.302 247.223V246.176C111.302 246.037 111.189 245.924 111.049 245.924H108.969C108.83 245.924 108.717 246.037 108.717 246.176V247.223C108.717 247.362 108.83 247.475 108.969 247.475Z" fill="#3F3D56"/>
<path d="M103.799 247.475H105.879C106.019 247.475 106.132 247.362 106.132 247.223V246.176C106.132 246.037 106.019 245.924 105.879 245.924H103.799C103.66 245.924 103.547 246.037 103.547 246.176V247.223C103.547 247.362 103.66 247.475 103.799 247.475Z" fill="#3F3D56"/>
<path d="M98.6281 247.475H100.709C100.848 247.475 100.961 247.362 100.961 247.223V246.176C100.961 246.037 100.848 245.924 100.709 245.924H98.6281C98.4887 245.924 98.3757 246.037 98.3757 246.176V247.223C98.3757 247.362 98.4887 247.475 98.6281 247.475Z" fill="#3F3D56"/>
<path d="M93.4582 247.475H95.5386C95.678 247.475 95.791 247.362 95.791 247.223V246.176C95.791 246.037 95.678 245.924 95.5386 245.924H93.4582C93.3188 245.924 93.2058 246.037 93.2058 246.176V247.223C93.2058 247.362 93.3188 247.475 93.4582 247.475Z" fill="#3F3D56"/>
<path d="M88.2873 247.475H90.3677C90.5071 247.475 90.6201 247.362 90.6201 247.223V246.176C90.6201 246.037 90.5071 245.924 90.3677 245.924H88.2873C88.1479 245.924 88.0349 246.037 88.0349 246.176V247.223C88.0349 247.362 88.1479 247.475 88.2873 247.475Z" fill="#3F3D56"/>
<path d="M83.1174 247.475H85.1978C85.3372 247.475 85.4502 247.362 85.4502 247.223V246.176C85.4502 246.037 85.3372 245.924 85.1978 245.924H83.1174C82.978 245.924 82.865 246.037 82.865 246.176V247.223C82.865 247.362 82.978 247.475 83.1174 247.475Z" fill="#3F3D56"/>
<path d="M77.9465 247.475H80.0269C80.1663 247.475 80.2793 247.362 80.2793 247.223V246.176C80.2793 246.037 80.1663 245.924 80.0269 245.924H77.9465C77.8071 245.924 77.6941 246.037 77.6941 246.176V247.223C77.6941 247.362 77.8071 247.475 77.9465 247.475Z" fill="#3F3D56"/>
<path d="M72.7766 247.475H74.857C74.9964 247.475 75.1094 247.362 75.1094 247.223V246.176C75.1094 246.037 74.9964 245.924 74.857 245.924H72.7766C72.6372 245.924 72.5242 246.037 72.5242 246.176V247.223C72.5242 247.362 72.6372 247.475 72.7766 247.475Z" fill="#3F3D56"/>
<path d="M150.394 250.061H152.474C152.614 250.061 152.727 249.948 152.727 249.808V248.762C152.727 248.622 152.614 248.509 152.474 248.509H150.394C150.254 248.509 150.141 248.622 150.141 248.762V249.808C150.141 249.948 150.254 250.061 150.394 250.061Z" fill="#3F3D56"/>
<path d="M145.223 250.061H147.303C147.443 250.061 147.556 249.948 147.556 249.808V248.762C147.556 248.622 147.443 248.509 147.303 248.509H145.223C145.083 248.509 144.97 248.622 144.97 248.762V249.808C144.97 249.948 145.083 250.061 145.223 250.061Z" fill="#3F3D56"/>
<path d="M140.053 250.061H142.133C142.273 250.061 142.386 249.948 142.386 249.808V248.762C142.386 248.622 142.273 248.509 142.133 248.509H140.053C139.914 248.509 139.801 248.622 139.801 248.762V249.808C139.801 249.948 139.914 250.061 140.053 250.061Z" fill="#3F3D56"/>
<path d="M134.882 250.061H136.962C137.102 250.061 137.215 249.948 137.215 249.808V248.762C137.215 248.622 137.102 248.509 136.962 248.509H134.882C134.743 248.509 134.63 248.622 134.63 248.762V249.808C134.63 249.948 134.743 250.061 134.882 250.061Z" fill="#3F3D56"/>
<path d="M129.712 250.061H131.793C131.932 250.061 132.045 249.948 132.045 249.808V248.762C132.045 248.622 131.932 248.509 131.793 248.509H129.712C129.573 248.509 129.46 248.622 129.46 248.762V249.808C129.46 249.948 129.573 250.061 129.712 250.061Z" fill="#3F3D56"/>
<path d="M124.541 250.061H126.622C126.761 250.061 126.874 249.948 126.874 249.808V248.762C126.874 248.622 126.761 248.509 126.622 248.509H124.541C124.402 248.509 124.289 248.622 124.289 248.762V249.808C124.289 249.948 124.402 250.061 124.541 250.061Z" fill="#3F3D56"/>
<path d="M119.371 250.061H121.452C121.591 250.061 121.704 249.948 121.704 249.808V248.762C121.704 248.622 121.591 248.509 121.452 248.509H119.371C119.232 248.509 119.119 248.622 119.119 248.762V249.808C119.119 249.948 119.232 250.061 119.371 250.061Z" fill="#3F3D56"/>
<path d="M114.2 250.061H116.281C116.42 250.061 116.533 249.948 116.533 249.808V248.762C116.533 248.622 116.42 248.509 116.281 248.509H114.2C114.061 248.509 113.948 248.622 113.948 248.762V249.808C113.948 249.948 114.061 250.061 114.2 250.061Z" fill="#3F3D56"/>
<path d="M109.03 250.061H111.111C111.25 250.061 111.363 249.948 111.363 249.808V248.762C111.363 248.622 111.25 248.509 111.111 248.509H109.03C108.891 248.509 108.778 248.622 108.778 248.762V249.808C108.778 249.948 108.891 250.061 109.03 250.061Z" fill="#3F3D56"/>
<path d="M103.86 250.061H105.94C106.079 250.061 106.192 249.948 106.192 249.808V248.762C106.192 248.622 106.079 248.509 105.94 248.509H103.86C103.72 248.509 103.607 248.622 103.607 248.762V249.808C103.607 249.948 103.72 250.061 103.86 250.061Z" fill="#3F3D56"/>
<path d="M98.6897 250.061H100.77C100.909 250.061 101.022 249.948 101.022 249.808V248.762C101.022 248.622 100.909 248.509 100.77 248.509H98.6897C98.5503 248.509 98.4373 248.622 98.4373 248.762V249.808C98.4373 249.948 98.5503 250.061 98.6897 250.061Z" fill="#3F3D56"/>
<path d="M93.5188 250.061H95.5991C95.7386 250.061 95.8516 249.948 95.8516 249.808V248.762C95.8516 248.622 95.7386 248.509 95.5991 248.509H93.5188C93.3794 248.509 93.2664 248.622 93.2664 248.762V249.808C93.2664 249.948 93.3794 250.061 93.5188 250.061Z" fill="#3F3D56"/>
<path d="M88.3489 250.061H90.4292C90.5686 250.061 90.6816 249.948 90.6816 249.808V248.762C90.6816 248.622 90.5686 248.509 90.4292 248.509H88.3489C88.2094 248.509 88.0964 248.622 88.0964 248.762V249.808C88.0964 249.948 88.2094 250.061 88.3489 250.061Z" fill="#3F3D56"/>
<path d="M83.178 250.061H85.2583C85.3977 250.061 85.5107 249.948 85.5107 249.808V248.762C85.5107 248.622 85.3977 248.509 85.2583 248.509H83.178C83.0385 248.509 82.9255 248.622 82.9255 248.762V249.808C82.9255 249.948 83.0385 250.061 83.178 250.061Z" fill="#3F3D56"/>
<path d="M78.008 250.061H80.0884C80.2278 250.061 80.3408 249.948 80.3408 249.808V248.762C80.3408 248.622 80.2278 248.509 80.0884 248.509H78.008C77.8686 248.509 77.7556 248.622 77.7556 248.762V249.808C77.7556 249.948 77.8686 250.061 78.008 250.061Z" fill="#3F3D56"/>
<path d="M72.8371 250.061H74.9175C75.0569 250.061 75.1699 249.948 75.1699 249.808V248.762C75.1699 248.622 75.0569 248.509 74.9175 248.509H72.8371C72.6977 248.509 72.5847 248.622 72.5847 248.762V249.808C72.5847 249.948 72.6977 250.061 72.8371 250.061Z" fill="#3F3D56"/>
<path d="M107.479 253.164H127.656C127.795 253.164 127.908 253.051 127.908 252.911V251.865C127.908 251.725 127.795 251.612 127.656 251.612H107.479C107.34 251.612 107.227 251.725 107.227 251.865V252.911C107.227 253.051 107.34 253.164 107.479 253.164Z" fill="#3F3D56"/>
<path d="M50.2362 126.667H182.249C182.386 126.664 182.517 126.607 182.613 126.509C182.709 126.411 182.762 126.279 182.762 126.142C182.762 126.004 182.709 125.872 182.613 125.774C182.517 125.676 182.386 125.619 182.249 125.616H50.2362C50.099 125.619 49.9684 125.676 49.8724 125.774C49.7764 125.872 49.7227 126.004 49.7227 126.142C49.7227 126.279 49.7764 126.411 49.8724 126.509C49.9684 126.607 50.099 126.664 50.2362 126.667Z" fill="#3F3D56"/>
<path d="M173.263 122.936C174.962 122.936 176.34 121.527 176.34 119.79C176.34 118.053 174.962 116.644 173.263 116.644C171.564 116.644 170.187 118.053 170.187 119.79C170.187 121.527 171.564 122.936 173.263 122.936Z" fill="#3F3D56"/>
<path d="M162.634 122.936C164.333 122.936 165.711 121.527 165.711 119.79C165.711 118.053 164.333 116.644 162.634 116.644C160.935 116.644 159.558 118.053 159.558 119.79C159.558 121.527 160.935 122.936 162.634 122.936Z" fill="#3F3D56"/>
<path d="M152.006 122.936C153.705 122.936 155.083 121.527 155.083 119.79C155.083 118.053 153.705 116.644 152.006 116.644C150.307 116.644 148.93 118.053 148.93 119.79C148.93 121.527 150.307 122.936 152.006 122.936Z" fill="#3F3D56"/>
<path d="M56.0733 117.996C56.0729 118.07 56.0872 118.144 56.1153 118.213C56.1435 118.282 56.1849 118.344 56.2372 118.397C56.2895 118.45 56.3518 118.492 56.4203 118.521C56.4889 118.55 56.5625 118.565 56.6368 118.565H64.1856C64.3348 118.561 64.4768 118.5 64.5811 118.393C64.6854 118.286 64.7438 118.143 64.7438 117.994C64.7438 117.844 64.6854 117.701 64.5811 117.594C64.4768 117.487 64.3348 117.426 64.1856 117.422H56.6368C56.4861 117.424 56.3423 117.485 56.2367 117.593C56.1311 117.7 56.0723 117.845 56.0733 117.996Z" fill="#3F3D56"/>
<path d="M56.0733 120.142C56.0729 120.216 56.0872 120.29 56.1153 120.359C56.1435 120.428 56.1849 120.49 56.2372 120.543C56.2895 120.596 56.3518 120.638 56.4203 120.667C56.4889 120.696 56.5625 120.711 56.6368 120.711H64.1856C64.335 120.708 64.4771 120.646 64.5815 120.539C64.686 120.432 64.7445 120.289 64.7445 120.14C64.7445 119.99 64.686 119.847 64.5815 119.74C64.4771 119.633 64.335 119.571 64.1856 119.568H56.6368C56.4861 119.57 56.3423 119.631 56.2367 119.739C56.1311 119.846 56.0723 119.991 56.0733 120.142Z" fill="#3F3D56"/>
<path d="M56.0733 122.283C56.0723 122.434 56.1311 122.579 56.2367 122.686C56.3423 122.794 56.4861 122.855 56.6368 122.857H64.1856C64.3348 122.853 64.4768 122.792 64.5811 122.685C64.6854 122.578 64.7438 122.435 64.7438 122.286C64.7438 122.136 64.6854 121.993 64.5811 121.886C64.4768 121.779 64.3348 121.718 64.1856 121.714H56.6368C56.5625 121.714 56.4889 121.729 56.4203 121.758C56.3518 121.787 56.2895 121.829 56.2372 121.882C56.1849 121.935 56.1435 121.997 56.1153 122.066C56.0872 122.135 56.0729 122.209 56.0733 122.283Z" fill="#3F3D56"/>
<path d="M58.4056 138.869H55.6932C54.8708 138.869 54.2041 139.535 54.2041 140.358C54.2041 141.18 54.8708 141.847 55.6932 141.847H58.4056C59.228 141.847 59.8947 141.18 59.8947 140.358C59.8947 139.535 59.228 138.869 58.4056 138.869Z" fill="#E6E6E6"/>
<path d="M89.4281 138.869H86.7156C85.8932 138.869 85.2266 139.535 85.2266 140.358C85.2266 141.18 85.8932 141.847 86.7156 141.847H89.4281C90.2505 141.847 90.9172 141.18 90.9172 140.358C90.9172 139.535 90.2505 138.869 89.4281 138.869Z" fill="#E6E6E6"/>
<path d="M98.2181 138.869H95.5057C94.6833 138.869 94.0166 139.535 94.0166 140.358C94.0166 141.18 94.6833 141.847 95.5057 141.847H98.2181C99.0405 141.847 99.7072 141.18 99.7072 140.358C99.7072 139.535 99.0405 138.869 98.2181 138.869Z" fill="#E6E6E6"/>
<path d="M80.9902 138.62H64.1316C63.3093 138.62 62.6426 139.287 62.6426 140.11C62.6426 140.932 63.3093 141.599 64.1316 141.599H80.9902C81.8125 141.599 82.4792 140.932 82.4792 140.11C82.4792 139.287 81.8125 138.62 80.9902 138.62Z" fill="#E6E6E6"/>
<path d="M122.353 138.62H105.495C104.673 138.62 104.006 139.287 104.006 140.11C104.006 140.932 104.673 141.599 105.495 141.599H122.353C123.176 141.599 123.842 140.932 123.842 140.11C123.842 139.287 123.176 138.62 122.353 138.62Z" fill="#E6E6E6"/>
<path d="M66.6791 145.591H63.9666C63.1442 145.591 62.4775 146.258 62.4775 147.081C62.4775 147.903 63.1442 148.57 63.9666 148.57H66.6791C67.5015 148.57 68.1681 147.903 68.1681 147.081C68.1681 146.258 67.5015 145.591 66.6791 145.591Z" fill="#E6E6E6"/>
<path d="M97.7015 145.591H94.9891C94.1667 145.591 93.5 146.258 93.5 147.081C93.5 147.903 94.1667 148.57 94.9891 148.57H97.7015C98.5239 148.57 99.1906 147.903 99.1906 147.081C99.1906 146.258 98.5239 145.591 97.7015 145.591Z" fill="#E6E6E6"/>
<path d="M106.491 145.591H103.778C102.956 145.591 102.289 146.258 102.289 147.081C102.289 147.903 102.956 148.57 103.778 148.57H106.491C107.313 148.57 107.98 147.903 107.98 147.081C107.98 146.258 107.313 145.591 106.491 145.591Z" fill="#E6E6E6"/>
<path d="M89.2626 145.343H72.4041C71.5817 145.343 70.915 146.01 70.915 146.832C70.915 147.655 71.5817 148.322 72.4041 148.322H89.2626C90.085 148.322 90.7517 147.655 90.7517 146.832C90.7517 146.01 90.085 145.343 89.2626 145.343Z" fill="#E6E6E6"/>
<path d="M130.626 145.343H113.767C112.945 145.343 112.278 146.01 112.278 146.832C112.278 147.655 112.945 148.322 113.767 148.322H130.626C131.448 148.322 132.115 147.655 132.115 146.832C132.115 146.01 131.448 145.343 130.626 145.343Z" fill="#E6E6E6"/>
<path d="M74.9515 152.314H72.2391C71.4167 152.314 70.75 152.981 70.75 153.803C70.75 154.626 71.4167 155.293 72.2391 155.293H74.9515C75.7739 155.293 76.4406 154.626 76.4406 153.803C76.4406 152.981 75.7739 152.314 74.9515 152.314Z" fill="#E6E6E6"/>
<path d="M105.974 152.314H103.262C102.439 152.314 101.772 152.981 101.772 153.803C101.772 154.626 102.439 155.293 103.262 155.293H105.974C106.796 155.293 107.463 154.626 107.463 153.803C107.463 152.981 106.796 152.314 105.974 152.314Z" fill="#E6E6E6"/>
<path d="M114.763 152.314H112.051C111.228 152.314 110.562 152.981 110.562 153.803C110.562 154.626 111.228 155.293 112.051 155.293H114.763C115.585 155.293 116.252 154.626 116.252 153.803C116.252 152.981 115.585 152.314 114.763 152.314Z" fill="#E6E6E6"/>
<path d="M97.5351 152.065H80.6766C79.8542 152.065 79.1875 152.732 79.1875 153.555C79.1875 154.377 79.8542 155.044 80.6766 155.044H97.5351C98.3575 155.044 99.0241 154.377 99.0241 153.555C99.0241 152.732 98.3575 152.065 97.5351 152.065Z" fill="#E6E6E6"/>
<path d="M138.898 152.065H122.04C121.217 152.065 120.551 152.732 120.551 153.555C120.551 154.377 121.217 155.044 122.04 155.044H138.898C139.721 155.044 140.387 154.377 140.387 153.555C140.387 152.732 139.721 152.065 138.898 152.065Z" fill="#E6E6E6"/>
<path d="M83.224 159.036H80.5115C79.6891 159.036 79.0225 159.703 79.0225 160.526C79.0225 161.348 79.6891 162.015 80.5115 162.015H83.224C84.0464 162.015 84.7131 161.348 84.7131 160.526C84.7131 159.703 84.0464 159.036 83.224 159.036Z" fill="#E6E6E6"/>
<path d="M114.246 159.036H111.534C110.712 159.036 110.045 159.703 110.045 160.526C110.045 161.348 110.712 162.015 111.534 162.015H114.246C115.069 162.015 115.736 161.348 115.736 160.526C115.736 159.703 115.069 159.036 114.246 159.036Z" fill="#E6E6E6"/>
<path d="M123.037 159.036H120.324C119.502 159.036 118.835 159.703 118.835 160.526C118.835 161.348 119.502 162.015 120.324 162.015H123.037C123.859 162.015 124.526 161.348 124.526 160.526C124.526 159.703 123.859 159.036 123.037 159.036Z" fill="#E6E6E6"/>
<path d="M105.809 158.788H88.95C88.1276 158.788 87.4609 159.455 87.4609 160.277C87.4609 161.1 88.1276 161.767 88.95 161.767H105.809C106.631 161.767 107.298 161.1 107.298 160.277C107.298 159.455 106.631 158.788 105.809 158.788Z" fill="#E6E6E6"/>
<path d="M89.4281 185.768H86.7156C85.8932 185.768 85.2266 186.435 85.2266 187.257C85.2266 188.08 85.8932 188.747 86.7156 188.747H89.4281C90.2505 188.747 90.9172 188.08 90.9172 187.257C90.9172 186.435 90.2505 185.768 89.4281 185.768Z" fill="#E6E6E6"/>
<path d="M98.2181 185.768H95.5057C94.6833 185.768 94.0166 186.435 94.0166 187.257C94.0166 188.08 94.6833 188.747 95.5057 188.747H98.2181C99.0405 188.747 99.7072 188.08 99.7072 187.257C99.7072 186.435 99.0405 185.768 98.2181 185.768Z" fill="#E6E6E6"/>
<path d="M122.353 186.016H105.495C104.673 186.016 104.006 186.683 104.006 187.506C104.006 188.328 104.673 188.995 105.495 188.995H122.353C123.176 188.995 123.842 188.328 123.842 187.506C123.842 186.683 123.176 186.016 122.353 186.016Z" fill="#E6E6E6"/>
<path d="M58.4056 185.768H55.6932C54.8708 185.768 54.2041 186.435 54.2041 187.257C54.2041 188.08 54.8708 188.747 55.6932 188.747H58.4056C59.228 188.747 59.8947 188.08 59.8947 187.257C59.8947 186.435 59.228 185.768 58.4056 185.768Z" fill="#E6E6E6"/>
<path d="M80.9902 186.016H64.1316C63.3093 186.016 62.6426 186.683 62.6426 187.506C62.6426 188.328 63.3093 188.995 64.1316 188.995H80.9902C81.8125 188.995 82.4792 188.328 82.4792 187.506C82.4792 186.683 81.8125 186.016 80.9902 186.016Z" fill="#E6E6E6"/>
<path d="M66.6791 179.045H63.9666C63.1442 179.045 62.4775 179.712 62.4775 180.535C62.4775 181.357 63.1442 182.024 63.9666 182.024H66.6791C67.5015 182.024 68.1681 181.357 68.1681 180.535C68.1681 179.712 67.5015 179.045 66.6791 179.045Z" fill="#E6E6E6"/>
<path d="M97.7015 179.045H94.9891C94.1667 179.045 93.5 179.712 93.5 180.535C93.5 181.357 94.1667 182.024 94.9891 182.024H97.7015C98.5239 182.024 99.1906 181.357 99.1906 180.535C99.1906 179.712 98.5239 179.045 97.7015 179.045Z" fill="#E6E6E6"/>
<path d="M106.491 179.045H103.778C102.956 179.045 102.289 179.712 102.289 180.535C102.289 181.357 102.956 182.024 103.778 182.024H106.491C107.313 182.024 107.98 181.357 107.98 180.535C107.98 179.712 107.313 179.045 106.491 179.045Z" fill="#E6E6E6"/>
<path d="M89.2626 179.294H72.4041C71.5817 179.294 70.915 179.961 70.915 180.783C70.915 181.606 71.5817 182.273 72.4041 182.273H89.2626C90.085 182.273 90.7517 181.606 90.7517 180.783C90.7517 179.961 90.085 179.294 89.2626 179.294Z" fill="#E6E6E6"/>
<path d="M74.9515 172.323H72.2391C71.4167 172.323 70.75 172.99 70.75 173.812C70.75 174.635 71.4167 175.302 72.2391 175.302H74.9515C75.7739 175.302 76.4406 174.635 76.4406 173.812C76.4406 172.99 75.7739 172.323 74.9515 172.323Z" fill="#E6E6E6"/>
<path d="M105.974 172.323H103.262C102.439 172.323 101.772 172.99 101.772 173.812C101.772 174.635 102.439 175.302 103.262 175.302H105.974C106.796 175.302 107.463 174.635 107.463 173.812C107.463 172.99 106.796 172.323 105.974 172.323Z" fill="#E6E6E6"/>
<path d="M114.763 172.323H112.051C111.228 172.323 110.562 172.99 110.562 173.812C110.562 174.635 111.228 175.302 112.051 175.302H114.763C115.585 175.302 116.252 174.635 116.252 173.812C116.252 172.99 115.585 172.323 114.763 172.323Z" fill="#E6E6E6"/>
<path d="M97.5351 172.571H80.6766C79.8542 172.571 79.1875 173.238 79.1875 174.061C79.1875 174.883 79.8542 175.55 80.6766 175.55H97.5351C98.3575 175.55 99.0241 174.883 99.0241 174.061C99.0241 173.238 98.3575 172.571 97.5351 172.571Z" fill="#E6E6E6"/>
<path d="M83.224 165.6H80.5115C79.6891 165.6 79.0225 166.267 79.0225 167.09C79.0225 167.912 79.6891 168.579 80.5115 168.579H83.224C84.0464 168.579 84.7131 167.912 84.7131 167.09C84.7131 166.267 84.0464 165.6 83.224 165.6Z" fill="#E6E6E6"/>
<path d="M114.246 165.6H111.534C110.712 165.6 110.045 166.267 110.045 167.09C110.045 167.912 110.712 168.579 111.534 168.579H114.246C115.069 168.579 115.736 167.912 115.736 167.09C115.736 166.267 115.069 165.6 114.246 165.6Z" fill="#E6E6E6"/>
<path d="M123.037 165.6H120.324C119.502 165.6 118.835 166.267 118.835 167.09C118.835 167.912 119.502 168.579 120.324 168.579H123.037C123.859 168.579 124.526 167.912 124.526 167.09C124.526 166.267 123.859 165.6 123.037 165.6Z" fill="#E6E6E6"/>
<path d="M105.809 165.849H88.95C88.1276 165.849 87.4609 166.515 87.4609 167.338C87.4609 168.16 88.1276 168.827 88.95 168.827H105.809C106.631 168.827 107.298 168.16 107.298 167.338C107.298 166.515 106.631 165.849 105.809 165.849Z" fill="#E6E6E6"/>
<path d="M48.6533 282.885C48.9687 283.045 49.2893 283.205 49.6047 283.36C57.7739 287.446 64.3093 289.767 73.249 292.312C74.0038 283.883 74.7329 269.067 75.4412 259.883C75.6273 257.499 75.8135 255.498 75.9944 254.086C76.0401 253.336 76.1933 252.596 76.4494 251.888L76.4184 254.086L76.3408 259.883L75.891 293.036C87.0113 295.978 98.4345 297.625 109.933 297.943C110.533 297.959 111.122 297.969 111.691 297.979C111.893 297.984 112.089 297.99 112.286 297.99C112.932 297.995 113.573 298 114.219 298C126.337 298.009 138.41 296.545 150.174 293.641C149.921 285.299 149.668 270.65 149.425 259.883C149.373 257.778 149.326 255.819 149.275 254.086C149.176 250.384 149.073 247.715 148.975 246.821C149.062 246.979 149.13 247.148 149.176 247.322C149.655 249.552 149.982 251.812 150.154 254.086C150.335 255.819 150.516 257.778 150.696 259.883C151.658 271.068 152.661 286.277 153.695 292.725C159.85 291.045 165.89 288.967 171.776 286.504C174.878 285.212 177.926 283.817 180.918 282.321C180.349 278.598 179.754 274.424 179.144 270.096C178.668 266.74 178.177 263.291 177.676 259.883C176.9 254.619 165.375 217.831 164.646 216.435C164.021 215.24 163.426 214.113 162.862 213.074C161.497 210.55 160.339 208.538 159.481 207.266C155.893 201.822 150.551 197.77 144.342 195.781L144.187 195.74L144.078 195.786L133.505 192.539L131.959 192.063L130.92 191.742L127.259 188.955L125.268 187.44L123.402 186.018L119.752 183.241L97.1518 184.632L92.7517 195.228L82.8969 198.832L82.7263 198.755L82.5764 198.692L82.4213 198.734C76.2135 200.724 70.8722 204.777 67.2823 210.219C66.7964 210.948 66.2069 211.91 65.5399 213.074C64.9712 214.061 64.3507 215.189 63.6786 216.435C62.722 218.209 61.6776 220.21 60.5712 222.377C60.3282 222.852 60.08 223.338 59.8318 223.83C59.3716 224.74 58.9046 225.669 58.4306 226.617C57.3293 228.815 56.1918 231.111 55.0543 233.443C54.0668 235.465 53.0689 239.622 52.0865 244.913C51.2748 249.308 50.4682 254.49 49.6874 259.883C48.6637 266.875 49.7547 275.247 48.8292 281.68C48.7722 282.088 48.7102 282.486 48.6533 282.885Z" fill="#3F3D56"/>
<path opacity="0.2" d="M156.968 244.89L152.575 227.932L148.695 242.565L156.968 244.89Z" fill="black"/>
<path d="M40.0605 233.841C41.6324 255.498 40.0037 265.034 48.6796 282.89C56.5735 286.754 64.7959 289.907 73.2494 292.312C74.1284 292.56 75.0091 292.801 75.8915 293.036C87.0117 295.978 98.4349 297.625 109.933 297.943C110.533 297.959 111.123 297.969 111.691 297.979C111.893 297.984 112.09 297.99 112.286 297.99C112.932 297.995 113.573 298 114.22 298C126.337 298.009 138.411 296.545 150.175 293.641C151.354 293.351 152.527 293.046 153.696 292.725C159.851 291.045 165.89 288.967 171.777 286.504C174.879 285.212 177.926 283.817 180.918 282.321C181.595 281.98 182.273 281.638 182.94 281.287C186.368 275.257 188.317 267.924 188.358 259.113C185.985 243.93 45.3033 220.748 40.0605 233.841Z" fill="#FFB6B6"/>
<path opacity="0.5" d="M40.0647 237.55C39.9845 236.209 39.8947 234.824 39.79 233.382C45.0328 220.289 185.714 243.471 188.088 258.654C188.081 260.046 188.022 261.397 187.922 262.715C182.174 247.73 48.5249 225.697 40.0647 237.55Z" fill="#FF5900"/>
<path d="M8.18394 244.693C8.41173 245.356 8.84384 245.931 9.41822 246.333C9.9926 246.735 10.6797 246.945 11.3809 246.933L25.0782 246.58C25.7845 246.566 26.4674 246.324 27.0248 245.89C27.5822 245.456 27.9841 244.853 28.1705 244.172L30.1089 223.442C30.7966 223.754 31.5452 223.908 32.3001 223.892C33.6239 223.858 34.88 223.3 35.7923 222.34C36.7045 221.38 37.1983 220.097 37.1651 218.773C37.1319 217.449 36.5743 216.192 35.615 215.279C34.6557 214.366 33.3732 213.871 32.0493 213.903C31.7476 213.902 31.4467 213.934 31.1517 213.997C30.8308 213.65 30.4408 213.374 30.0067 213.186C29.5727 212.999 29.1043 212.905 28.6316 212.909L7.56189 213.453C7.38711 213.46 7.21322 213.482 7.04217 213.518C6.58011 213.604 6.14187 213.788 5.75693 214.058C5.372 214.328 5.0493 214.677 4.81057 215.082C4.57184 215.487 4.42261 215.938 4.37293 216.406C4.32325 216.873 4.37426 217.346 4.52254 217.792L8.18394 244.693ZM30.5064 222.035L31.8856 217.095C32.0425 216.524 32.0462 215.922 31.8962 215.35C31.9631 215.349 32.0221 215.318 32.0891 215.318C33.0348 215.298 33.9497 215.654 34.6331 216.308C35.3166 216.962 35.7128 217.861 35.735 218.807C35.7571 219.753 35.4034 220.669 34.7513 221.354C34.0992 222.039 33.202 222.438 32.2564 222.463C31.645 222.482 31.0399 222.334 30.5064 222.035Z" fill="#2F2E41"/>
<path d="M7.04297 213.518C7.49185 216.085 12.5386 217.89 18.607 217.576C24.1873 217.319 28.7501 215.359 29.586 213.037C29.2766 212.945 28.9549 212.902 28.6324 212.909L7.56269 213.454C7.38791 213.46 7.21402 213.482 7.04297 213.518Z" fill="#E6E7E8"/>
<path d="M19.7192 233.302C19.747 233.295 19.7734 233.283 19.7973 233.268L22.7719 231.32C22.8078 231.297 22.8374 231.265 22.8578 231.227C22.8783 231.189 22.889 231.147 22.889 231.104C22.8891 231.061 22.8784 231.019 22.8579 230.981C22.8375 230.943 22.808 230.911 22.772 230.888L19.6802 228.862C19.6519 228.844 19.6201 228.831 19.5867 228.824C19.5533 228.818 19.5189 228.818 19.4856 228.825C19.4523 228.832 19.4206 228.845 19.3925 228.864C19.3643 228.883 19.3402 228.908 19.3216 228.936C19.3029 228.965 19.2901 228.997 19.2838 229.03C19.2775 229.064 19.2778 229.098 19.2848 229.131C19.2918 229.164 19.3053 229.196 19.3246 229.224C19.3438 229.252 19.3684 229.276 19.397 229.295L22.1584 231.104L19.5143 232.835C19.4631 232.868 19.4254 232.919 19.408 232.978C19.3905 233.036 19.3945 233.099 19.4191 233.155C19.4436 233.211 19.4873 233.257 19.5423 233.284C19.5972 233.31 19.6599 233.317 19.7192 233.302Z" fill="#FF5900"/>
<path d="M15.0206 233.519C15.0705 233.506 15.1155 233.479 15.1498 233.441C15.1842 233.402 15.2062 233.354 15.2132 233.303C15.2202 233.252 15.2118 233.2 15.1891 233.154C15.1664 233.108 15.1304 233.07 15.0857 233.044L12.3439 231.472L14.994 229.503C15.0212 229.483 15.0442 229.457 15.0616 229.428C15.079 229.399 15.0906 229.367 15.0955 229.333C15.1004 229.3 15.0987 229.265 15.0905 229.232C15.0822 229.2 15.0675 229.169 15.0473 229.141C15.027 229.114 15.0016 229.091 14.9725 229.074C14.9434 229.056 14.9112 229.045 14.8776 229.04C14.844 229.035 14.8098 229.037 14.7769 229.045C14.744 229.053 14.7131 229.068 14.6858 229.088L11.7187 231.292C11.6843 231.318 11.6567 231.352 11.6385 231.391C11.6204 231.429 11.6122 231.472 11.6147 231.515C11.6172 231.558 11.6304 231.599 11.653 231.636C11.6756 231.672 11.7069 231.703 11.7442 231.724L14.8285 233.492C14.8866 233.526 14.9555 233.535 15.0206 233.519Z" fill="#FF5900"/>
<path d="M19.423 235.008C19.448 235.002 19.4719 234.992 19.4938 234.979C19.5228 234.961 19.5481 234.938 19.5682 234.91C19.5883 234.883 19.6027 234.852 19.6108 234.819C19.6188 234.786 19.6203 234.752 19.6151 234.718C19.6099 234.684 19.5981 234.652 19.5804 234.623L15.3637 227.69C15.3278 227.631 15.2704 227.59 15.2039 227.574C15.1374 227.558 15.0673 227.569 15.0088 227.604C14.9504 227.64 14.9085 227.697 14.8922 227.763C14.8759 227.83 14.8866 227.9 14.9219 227.959L19.1387 234.892C19.1674 234.94 19.2106 234.976 19.2617 234.997C19.3129 235.018 19.3694 235.022 19.423 235.008Z" fill="#FF5900"/>
<path d="M346.938 205.909H300.922V246.244H346.938V205.909Z" fill="#3F3D56"/>
<path d="M353.759 149.569C352.906 154.626 353.656 159.823 355.902 164.432C356.734 166.128 357.764 168.17 356.751 169.764C356.467 170.163 356.097 170.493 355.669 170.73C355.241 170.967 354.766 171.106 354.277 171.135C353.3 171.187 352.322 171.06 351.391 170.761" fill="#CCCCCC"/>
<path d="M313.331 134.03C314.188 134.03 314.883 133.451 314.883 132.737C314.883 132.023 314.188 131.444 313.331 131.444C312.475 131.444 311.78 132.023 311.78 132.737C311.78 133.451 312.475 134.03 313.331 134.03Z" fill="#3F3D56"/>
<path d="M319.019 134.547C319.876 134.547 320.57 133.968 320.57 133.254C320.57 132.54 319.876 131.961 319.019 131.961C318.162 131.961 317.468 132.54 317.468 133.254C317.468 133.968 318.162 134.547 319.019 134.547Z" fill="#3F3D56"/>
<path d="M324.706 137.132C325.563 137.132 326.258 136.554 326.258 135.84C326.258 135.126 325.563 134.547 324.706 134.547C323.85 134.547 323.155 135.126 323.155 135.84C323.155 136.554 323.85 137.132 324.706 137.132Z" fill="#3F3D56"/>
<path d="M331.427 135.581C332.284 135.581 332.978 135.002 332.978 134.288C332.978 133.574 332.284 132.995 331.427 132.995C330.57 132.995 329.876 133.574 329.876 134.288C329.876 135.002 330.57 135.581 331.427 135.581Z" fill="#3F3D56"/>
<path d="M190.237 160.084C197.77 157.992 206.161 160.234 211.983 165.369C215.124 168.158 217.429 171.765 218.641 175.788C220.128 180.576 220.374 185.626 220.529 190.603C220.701 196.106 220.851 201.61 221.011 207.113C221.164 212.36 221.182 217.632 221.532 222.871C221.826 227.267 222.529 231.83 224.881 235.643C227.062 239.177 230.507 241.564 234.401 242.879C238.347 244.213 242.602 244.523 246.741 244.496C251.559 244.481 256.369 244.1 261.129 243.357C270.171 241.908 279.102 238.213 284.624 230.59C287.166 227.128 288.595 222.975 288.72 218.681C288.837 213.678 287.238 208.833 285.488 204.211C283.784 199.715 281.942 195.284 280.863 190.582C279.862 186.182 279.385 181.679 279.442 177.167C279.534 168.14 281.697 159.254 285.765 151.195C287.823 147.056 290.435 143.215 293.528 139.779C296.717 136.309 300.666 133.443 305.362 132.504C307.654 132.029 310.028 132.124 312.274 132.782C313.232 133.069 313.642 131.572 312.686 131.286C308.034 129.893 302.98 130.952 298.855 133.37C294.799 135.748 291.594 139.315 288.874 143.097C283.648 150.512 280.168 159.014 278.697 167.967C277.226 176.919 277.801 186.088 280.38 194.786C283.14 203.83 289.144 213.244 286.564 223.031C284.307 231.598 276.486 237.42 268.408 240.05C263.506 241.646 258.368 242.321 253.242 242.67C248.911 242.965 244.52 243.153 240.201 242.596C236.234 242.084 232.153 240.872 229.078 238.208C225.706 235.289 224.165 231.094 223.494 226.789C222.736 221.918 222.847 216.895 222.704 211.98L222.215 195.203C221.939 185.727 222.177 175.226 216.013 167.374C213.549 164.315 210.419 161.858 206.863 160.191C203.306 158.523 199.416 157.689 195.489 157.751C193.573 157.795 191.671 158.076 189.824 158.588C189.632 158.648 189.471 158.78 189.375 158.957C189.279 159.134 189.255 159.341 189.308 159.535C189.362 159.729 189.488 159.895 189.662 159.997C189.835 160.099 190.041 160.131 190.237 160.084Z" fill="#3F3D56"/>
<path d="M80.1237 150.269C81.2217 158.083 85.3763 165.141 91.6746 169.893C97.973 174.645 105.9 176.702 113.713 175.611C121.527 174.521 128.588 170.373 133.346 164.079C138.103 157.784 140.168 149.858 139.086 142.042L139.027 141.62C137.768 133.909 133.528 127.003 127.224 122.39C120.919 117.778 113.054 115.828 105.325 116.963C97.5967 118.098 90.6238 122.226 85.9109 128.457C81.198 134.687 79.1227 142.521 80.1328 150.268L80.1237 150.269Z" fill="#FFB6B6"/>
<path d="M106.365 174.886C104.826 171.786 103.245 168.457 103.663 165.021C104.081 161.585 107.438 158.29 110.748 159.3C112.728 159.904 114.229 161.852 116.296 161.945C119.141 162.073 120.761 158.812 121.637 156.102L125.206 145.065C132.09 150.474 123.372 144.804 131.899 142.824C135.244 142.047 138.621 140.543 140.575 137.719C142.53 134.895 142.503 130.524 139.803 128.402C138.478 127.362 136.719 126.971 135.453 125.86C134.668 125.171 134.125 124.248 133.906 123.227C133.686 122.205 133.801 121.14 134.233 120.189C134.666 119.238 135.393 118.452 136.307 117.946C137.221 117.441 138.274 117.243 139.309 117.382L130.226 116.278L132.915 111.376C130.971 112.919 128.259 113.135 125.815 112.703C123.371 112.271 121.067 111.273 118.676 110.61C107.194 107.428 93.8803 113.072 88.1818 123.537C85.9452 122.799 83.537 122.757 81.2763 123.418C79.0156 124.079 77.009 125.412 75.5226 127.239C73.1026 130.332 72.4554 134.452 72.3744 138.378C72.2236 146.121 73.937 153.786 77.3703 160.727C78.4403 162.885 79.7051 165.001 81.5239 166.579C83.3427 168.157 103.897 176.898 106.269 176.486" fill="#2F2E41"/>
<path d="M321.087 154.456C321.091 155.798 320.919 157.135 320.575 158.433V158.438C320.57 158.464 320.56 158.489 320.555 158.515C319.51 162.357 317.018 165.057 314.107 165.057C311.212 165.057 308.73 162.378 307.67 158.567C307.597 158.303 307.535 158.04 307.479 157.765C307.406 157.46 307.349 157.145 307.303 156.819C307.261 156.561 307.23 156.297 307.205 156.028C307.168 155.656 307.142 155.283 307.137 154.895V154.89C307.127 154.745 307.127 154.601 307.127 154.456V154.327L307.132 154.321C307.133 153.666 307.176 153.011 307.261 152.362C307.298 152.088 307.339 151.824 307.391 151.56C307.453 151.239 307.52 150.924 307.603 150.614C307.67 150.34 307.747 150.076 307.83 149.812C307.944 149.461 308.068 149.119 308.208 148.793C308.295 148.581 308.389 148.375 308.482 148.173C309.754 145.556 311.801 143.855 314.107 143.855C317.297 143.855 319.986 147.108 320.818 151.545C320.829 151.612 320.844 151.679 320.849 151.746V151.751C321.009 152.644 321.088 153.549 321.087 154.456Z" fill="#E6E6E6"/>
<path d="M308.548 148.4C308.545 148.495 308.51 148.586 308.448 148.658C308.385 148.729 308.3 148.777 308.207 148.793C308.295 148.581 308.388 148.375 308.481 148.173C308.524 148.241 308.547 148.32 308.548 148.4Z" fill="#FF5900"/>
<path d="M314.662 147.929H310.112C309.89 147.929 309.71 148.109 309.71 148.331C309.71 148.553 309.89 148.733 310.112 148.733H314.662C314.884 148.733 315.064 148.553 315.064 148.331C315.064 148.109 314.884 147.929 314.662 147.929Z" fill="#FF5900"/>
<path d="M308.409 150.21C308.409 150.317 308.366 150.42 308.291 150.495C308.215 150.571 308.113 150.613 308.006 150.614H307.603C307.67 150.339 307.747 150.076 307.83 149.812H308.006C308.112 149.812 308.214 149.854 308.289 149.928C308.365 150.003 308.408 150.104 308.409 150.21Z" fill="#FF5900"/>
<path d="M310.38 149.811H309.648C309.426 149.811 309.246 149.991 309.246 150.213C309.246 150.435 309.426 150.615 309.648 150.615H310.38C310.602 150.615 310.782 150.435 310.782 150.213C310.782 149.991 310.602 149.811 310.38 149.811Z" fill="#FF5900"/>
<path d="M316.894 149.744H312.344C312.122 149.744 311.942 149.924 311.942 150.146C311.942 150.368 312.122 150.548 312.344 150.548H316.894C317.116 150.548 317.296 150.368 317.296 150.146C317.296 149.924 317.116 149.744 316.894 149.744Z" fill="#FF5900"/>
<path d="M310.24 151.625H309.508C309.286 151.625 309.106 151.805 309.106 152.027C309.106 152.249 309.286 152.429 309.508 152.429H310.24C310.462 152.429 310.642 152.249 310.642 152.027C310.642 151.805 310.462 151.625 310.24 151.625Z" fill="#FF5900"/>
<path d="M312.612 151.625H311.88C311.658 151.625 311.479 151.805 311.479 152.027C311.479 152.249 311.658 152.429 311.88 152.429H312.612C312.834 152.429 313.014 152.249 313.014 152.027C313.014 151.805 312.834 151.625 312.612 151.625Z" fill="#FF5900"/>
<path d="M308.367 151.958C308.367 152.065 308.325 152.168 308.249 152.243C308.173 152.319 308.071 152.361 307.964 152.362H307.261C307.297 152.088 307.338 151.824 307.39 151.56H307.964C308.017 151.56 308.069 151.569 308.118 151.589C308.166 151.609 308.211 151.638 308.248 151.675C308.286 151.712 308.316 151.756 308.336 151.805C308.356 151.853 308.367 151.906 308.367 151.958Z" fill="#FF5900"/>
<path d="M319.127 151.558H314.577C314.355 151.558 314.175 151.738 314.175 151.96C314.175 152.182 314.355 152.362 314.577 152.362H319.127C319.349 152.362 319.528 152.182 319.528 151.96C319.528 151.738 319.349 151.558 319.127 151.558Z" fill="#FF5900"/>
<path d="M308.549 154.606C308.549 154.658 308.538 154.711 308.518 154.759C308.497 154.808 308.467 154.852 308.43 154.889C308.393 154.926 308.348 154.955 308.299 154.975C308.25 154.995 308.198 155.004 308.146 155.004H307.416C307.313 155.004 307.213 154.966 307.137 154.895V154.89C307.127 154.745 307.127 154.601 307.127 154.456V154.326L307.132 154.321C307.169 154.284 307.214 154.254 307.262 154.233C307.311 154.213 307.364 154.202 307.416 154.202H308.146C308.252 154.203 308.355 154.245 308.431 154.321C308.506 154.396 308.549 154.499 308.549 154.606Z" fill="#FFB6B6"/>
<path d="M314.662 154.135H310.112C309.89 154.135 309.71 154.315 309.71 154.537C309.71 154.759 309.89 154.939 310.112 154.939H314.662C314.884 154.939 315.064 154.759 315.064 154.537C315.064 154.315 314.884 154.135 314.662 154.135Z" fill="#FFB6B6"/>
<path d="M308.409 156.416C308.409 156.523 308.366 156.625 308.291 156.701C308.215 156.776 308.112 156.819 308.006 156.819H307.302C307.261 156.56 307.23 156.297 307.204 156.028C307.227 156.019 307.252 156.016 307.276 156.017H308.005C308.112 156.017 308.213 156.059 308.289 156.134C308.365 156.208 308.408 156.31 308.409 156.416Z" fill="#FFB6B6"/>
<path d="M310.38 156.016H309.648C309.426 156.016 309.246 156.196 309.246 156.418C309.246 156.64 309.426 156.82 309.648 156.82H310.38C310.602 156.82 310.782 156.64 310.782 156.418C310.782 156.196 310.602 156.016 310.38 156.016Z" fill="#FFB6B6"/>
<path d="M316.894 155.949H312.344C312.122 155.949 311.942 156.129 311.942 156.351C311.942 156.573 312.122 156.753 312.344 156.753H316.894C317.116 156.753 317.296 156.573 317.296 156.351C317.296 156.129 317.116 155.949 316.894 155.949Z" fill="#FFB6B6"/>
<path d="M310.24 157.831H309.508C309.286 157.831 309.106 158.011 309.106 158.232C309.106 158.454 309.286 158.634 309.508 158.634H310.24C310.462 158.634 310.642 158.454 310.642 158.232C310.642 158.011 310.462 157.831 310.24 157.831Z" fill="#FFB6B6"/>
<path d="M312.612 157.831H311.88C311.658 157.831 311.479 158.011 311.479 158.232C311.479 158.454 311.658 158.634 311.88 158.634H312.612C312.834 158.634 313.014 158.454 313.014 158.232C313.014 158.011 312.834 157.831 312.612 157.831Z" fill="#FFB6B6"/>
<path d="M319.127 157.763H314.577C314.355 157.763 314.175 157.943 314.175 158.165C314.175 158.387 314.355 158.567 314.577 158.567H319.127C319.349 158.567 319.528 158.387 319.528 158.165C319.528 157.943 319.349 157.763 319.127 157.763Z" fill="#FFB6B6"/>
</svg>
