<svg width="302" height="287" viewBox="0 0 302 287" fill="none" xmlns="http://www.w3.org/2000/svg">
<path d="M183.592 68.1009H182.02V24.9656C182.02 18.3443 179.393 11.9942 174.718 7.31225C170.042 2.6303 163.701 8.35475e-06 157.088 0H65.8251C62.551 -8.27356e-06 59.309 0.645736 56.2842 1.90036C53.2594 3.15499 50.511 4.99394 48.1958 7.3122C45.8807 9.63046 44.0443 12.3826 42.7914 15.4116C41.5384 18.4405 40.8936 21.687 40.8936 24.9655V261.609C40.8936 264.888 41.5384 268.134 42.7913 271.163C44.0443 274.192 45.8807 276.944 48.1958 279.263C50.5109 281.581 53.2593 283.42 56.2841 284.674C59.309 285.929 62.551 286.575 65.825 286.575H157.088C163.7 286.575 170.042 283.945 174.717 279.263C179.393 274.581 182.02 268.231 182.02 261.609V98.8053H183.592L183.592 68.1009Z" fill="#FFB6B6"/>
<path d="M158.095 6.49518H146.182C146.73 7.84015 146.939 9.29938 146.791 10.7443C146.643 12.1893 146.142 13.5756 145.333 14.7812C144.524 15.9868 143.431 16.9747 142.151 17.6577C140.871 18.3408 139.443 18.6981 137.992 18.6982H85.7085C84.2579 18.6981 82.8297 18.3408 81.5495 17.6577C80.2693 16.9747 79.1765 15.9868 78.3674 14.7812C77.5583 13.5757 77.0577 12.1893 76.9097 10.7443C76.7617 9.29938 76.9708 7.84015 77.5187 6.49518H66.392C61.454 6.49518 56.7184 8.45944 53.2267 11.9559C49.735 15.4523 47.7734 20.1945 47.7734 25.1391V261.436C47.7734 263.884 48.255 266.308 49.1907 268.57C50.1264 270.832 51.4978 272.888 53.2267 274.619C54.9556 276.35 57.0081 277.723 59.267 278.66C61.5259 279.597 63.947 280.08 66.392 280.08H158.095C160.54 280.08 162.961 279.597 165.22 278.66C167.479 277.723 169.531 276.35 171.26 274.619C172.989 272.888 174.36 270.832 175.296 268.57C176.232 266.308 176.713 263.884 176.713 261.436V25.1391C176.713 22.6908 176.232 20.2664 175.296 18.0044C174.36 15.7424 172.989 13.6871 171.26 11.9559C169.531 10.2246 167.479 8.8513 165.22 7.91436C162.961 6.97742 160.54 6.49517 158.095 6.49518Z" fill="white"/>
<path d="M301.607 287H0.393229C0.288938 287 0.188919 286.959 0.115174 286.885C0.0414291 286.811 0 286.711 0 286.606C0 286.502 0.0414291 286.402 0.115174 286.328C0.188919 286.254 0.288938 286.213 0.393229 286.213H301.607C301.711 286.213 301.811 286.254 301.885 286.328C301.959 286.402 302 286.502 302 286.606C302 286.711 301.959 286.811 301.885 286.885C301.811 286.959 301.711 287 301.607 287Z" fill="#FF5900"/>
<path d="M167.838 71.8639H56.6038C56.0577 71.8632 55.5342 71.6457 55.148 71.259C54.7618 70.8723 54.5446 70.3481 54.5439 69.8012V42.171C54.5446 41.6241 54.7618 41.0998 55.148 40.7131C55.5342 40.3264 56.0577 40.1089 56.6038 40.1083H167.838C168.384 40.1089 168.908 40.3264 169.294 40.7131C169.68 41.0998 169.897 41.6241 169.898 42.171V69.8012C169.897 70.3481 169.68 70.8724 169.294 71.259C168.908 71.6457 168.384 71.8632 167.838 71.8639ZM56.6038 40.9333C56.2762 40.9337 55.962 41.0642 55.7303 41.2962C55.4986 41.5283 55.3682 41.8429 55.3679 42.171V69.8012C55.3682 70.1293 55.4986 70.4439 55.7303 70.6759C55.962 70.908 56.2762 71.0385 56.6038 71.0388H167.838C168.166 71.0385 168.48 70.908 168.712 70.6759C168.943 70.4439 169.074 70.1293 169.074 69.8012V42.171C169.074 41.8429 168.943 41.5283 168.712 41.2962C168.48 41.0642 168.166 40.9337 167.838 40.9333H56.6038Z" fill="#3F3D56"/>
<path d="M167.838 181.187H56.6038C56.0577 181.187 55.5342 180.969 55.148 180.582C54.7618 180.196 54.5446 179.672 54.5439 179.125V127.98C54.5446 127.433 54.7618 126.908 55.148 126.522C55.5342 126.135 56.0577 125.918 56.6038 125.917H167.838C168.384 125.918 168.908 126.135 169.294 126.522C169.68 126.908 169.897 127.433 169.898 127.98V179.125C169.897 179.672 169.68 180.196 169.294 180.582C168.908 180.969 168.384 181.187 167.838 181.187ZM56.6038 126.742C56.2762 126.742 55.962 126.873 55.7303 127.105C55.4986 127.337 55.3682 127.651 55.3679 127.98V179.125C55.3682 179.453 55.4986 179.767 55.7303 179.999C55.962 180.231 56.2762 180.362 56.6038 180.362H167.838C168.166 180.362 168.48 180.231 168.712 179.999C168.943 179.767 169.074 179.453 169.074 179.125V127.98C169.074 127.651 168.943 127.337 168.712 127.105C168.48 126.873 168.166 126.742 167.838 126.742L56.6038 126.742Z" fill="#3F3D56"/>
<path d="M167.014 114.768H117.576C117.03 114.768 116.507 114.55 116.121 114.163C115.734 113.777 115.517 113.252 115.517 112.705V85.0753C115.517 84.5284 115.734 84.0041 116.121 83.6174C116.507 83.2307 117.03 83.0132 117.576 83.0126H167.014C167.56 83.0132 168.084 83.2307 168.47 83.6174C168.856 84.0041 169.073 84.5284 169.074 85.0753V112.705C169.073 113.252 168.856 113.777 168.47 114.163C168.084 114.55 167.56 114.768 167.014 114.768ZM117.576 83.8376C117.249 83.838 116.935 83.9685 116.703 84.2005C116.471 84.4326 116.341 84.7471 116.341 85.0753V112.705C116.341 113.034 116.471 113.348 116.703 113.58C116.935 113.812 117.249 113.943 117.576 113.943H167.014C167.342 113.943 167.656 113.812 167.888 113.58C168.119 113.348 168.25 113.034 168.25 112.705V85.0753C168.25 84.7471 168.119 84.4325 167.888 84.2005C167.656 83.9685 167.342 83.838 167.014 83.8376L117.576 83.8376Z" fill="#F2A7AA"/>
<path d="M106.041 248.019H56.6038C56.0577 248.018 55.5342 247.801 55.148 247.414C54.7618 247.027 54.5446 246.503 54.5439 245.956V194.399C54.5446 193.852 54.7618 193.328 55.148 192.941C55.5342 192.554 56.0577 192.337 56.6038 192.336H106.041C106.588 192.337 107.111 192.554 107.497 192.941C107.883 193.328 108.101 193.852 108.101 194.399V245.956C108.101 246.503 107.883 247.028 107.497 247.414C107.111 247.801 106.588 248.018 106.041 248.019ZM56.6038 193.161C56.2762 193.161 55.962 193.292 55.7303 193.524C55.4986 193.756 55.3682 194.071 55.3679 194.399V245.956C55.3682 246.284 55.4986 246.599 55.7303 246.831C55.962 247.063 56.2762 247.194 56.6038 247.194H106.041C106.369 247.194 106.683 247.063 106.915 246.831C107.147 246.599 107.277 246.284 107.277 245.956V194.399C107.277 194.071 107.147 193.756 106.915 193.524C106.683 193.292 106.369 193.161 106.041 193.161H56.6038Z" fill="#F2A7AA"/>
<path d="M167.014 248.019H117.576C117.03 248.018 116.507 247.801 116.121 247.414C115.734 247.027 115.517 246.503 115.517 245.956V194.399C115.517 193.852 115.734 193.328 116.121 192.941C116.507 192.554 117.03 192.337 117.576 192.336H167.014C167.56 192.337 168.084 192.554 168.47 192.941C168.856 193.328 169.073 193.852 169.074 194.399V245.956C169.073 246.503 168.856 247.027 168.47 247.414C168.084 247.801 167.56 248.018 167.014 248.019ZM117.576 193.161C117.249 193.161 116.935 193.292 116.703 193.524C116.471 193.756 116.341 194.071 116.341 194.399V245.956C116.341 246.284 116.471 246.599 116.703 246.831C116.935 247.063 117.249 247.194 117.576 247.194H167.014C167.342 247.194 167.656 247.063 167.888 246.831C168.119 246.599 168.25 246.284 168.25 245.956V194.399C168.25 194.071 168.119 193.756 167.888 193.524C167.656 193.292 167.342 193.161 167.014 193.161H117.576Z" fill="#FFB6B6"/>
<path d="M73.0638 152.437C77.6979 152.437 81.4547 148.675 81.4547 144.035C81.4547 139.394 77.6979 135.632 73.0638 135.632C68.4296 135.632 64.6729 139.394 64.6729 144.035C64.6729 148.675 68.4296 152.437 73.0638 152.437Z" fill="#FF5900"/>
<path d="M92.4424 138.433C92.0715 138.433 91.7158 138.581 91.4535 138.843C91.1913 139.106 91.0439 139.462 91.0439 139.834C91.0439 140.205 91.1913 140.561 91.4535 140.824C91.7158 141.086 92.0715 141.234 92.4424 141.234H158.371C158.741 141.233 159.096 141.085 159.358 140.823C159.619 140.56 159.766 140.204 159.766 139.834C159.766 139.463 159.619 139.107 159.358 138.845C159.096 138.582 158.741 138.434 158.371 138.433H92.4424Z" fill="#FF5900"/>
<path d="M92.4424 146.836C92.2588 146.835 92.0769 146.871 91.9071 146.941C91.7372 147.011 91.5828 147.114 91.4527 147.244C91.3226 147.373 91.2192 147.528 91.1486 147.697C91.078 147.867 91.0414 148.049 91.041 148.233C91.0406 148.417 91.0764 148.599 91.1463 148.769C91.2163 148.939 91.319 149.094 91.4485 149.224C91.5781 149.354 91.7321 149.458 91.9016 149.529C92.0711 149.599 92.2529 149.636 92.4366 149.636H120.812C120.996 149.637 121.178 149.601 121.348 149.53C121.518 149.46 121.672 149.357 121.802 149.227C121.932 149.097 122.035 148.942 122.106 148.772C122.176 148.602 122.213 148.42 122.213 148.236C122.213 148.052 122.176 147.87 122.106 147.7C122.035 147.529 121.932 147.375 121.802 147.245C121.672 147.115 121.518 147.012 121.348 146.941C121.178 146.871 120.996 146.835 120.812 146.836H92.4424Z" fill="#FF5900"/>
<path d="M66.6277 160.269C65.5639 160.269 64.6982 160.897 64.6982 161.669C64.6982 162.441 65.5639 163.069 66.6277 163.069H157.589C158.653 163.069 159.518 162.441 159.518 161.669C159.518 160.897 158.653 160.269 157.589 160.269H66.6277Z" fill="#CCCCCC"/>
<path d="M66.6277 168.671C65.5639 168.671 64.6982 169.299 64.6982 170.071C64.6982 170.843 65.5639 171.472 66.6277 171.472H157.589C158.653 171.472 159.518 170.843 159.518 170.071C159.518 169.299 158.653 168.671 157.589 168.671H66.6277Z" fill="#CCCCCC"/>
<path d="M73.887 63.3283C78.5212 63.3283 82.2779 59.5664 82.2779 54.9259C82.2779 50.2854 78.5212 46.5236 73.887 46.5236C69.2528 46.5236 65.4961 50.2854 65.4961 54.9259C65.4961 59.5664 69.2528 63.3283 73.887 63.3283Z" fill="#FF5900"/>
<path d="M93.2663 49.3243C92.8959 49.3252 92.5411 49.4731 92.2795 49.7357C92.018 49.9982 91.8711 50.3539 91.8711 50.7247C91.8711 51.0956 92.018 51.4513 92.2795 51.7138C92.5411 51.9763 92.8959 52.1243 93.2663 52.1251H159.195C159.379 52.1257 159.561 52.09 159.731 52.0201C159.901 51.9502 160.055 51.8474 160.186 51.7176C160.316 51.5878 160.419 51.4336 160.49 51.2637C160.561 51.0939 160.597 50.9117 160.598 50.7277C160.598 50.5437 160.562 50.3614 160.492 50.1912C160.422 50.0211 160.319 49.8664 160.19 49.7361C160.06 49.6057 159.906 49.5023 159.736 49.4316C159.566 49.361 159.384 49.3245 159.201 49.3243C159.199 49.3243 159.197 49.3243 159.195 49.3243H93.2663Z" fill="#FF5900"/>
<path d="M93.2663 57.7267C92.8959 57.7276 92.5411 57.8755 92.2795 58.138C92.018 58.4006 91.8711 58.7562 91.8711 59.1271C91.8711 59.4979 92.018 59.8536 92.2795 60.1161C92.5411 60.3787 92.8959 60.5266 93.2663 60.5275H121.636C121.819 60.5281 122.001 60.4924 122.171 60.4224C122.341 60.3525 122.496 60.2497 122.626 60.1199C122.757 59.9902 122.86 59.8359 122.931 59.6661C123.001 59.4962 123.038 59.3141 123.038 59.13C123.039 58.946 123.003 58.7637 122.933 58.5936C122.863 58.4234 122.76 58.2687 122.63 58.1384C122.501 58.0081 122.347 57.9046 122.177 57.834C122.007 57.7633 121.825 57.7269 121.641 57.7267C121.639 57.7267 121.637 57.7267 121.636 57.7267H93.2663Z" fill="#FF5900"/>
<path d="M105.998 114.773H59.6211L70.5351 95.8435C70.7307 95.5042 71.012 95.2224 71.3508 95.0265C71.6897 94.8306 72.074 94.7275 72.4652 94.7275C72.8565 94.7275 73.2408 94.8306 73.5796 95.0265C73.9184 95.2224 74.1998 95.5042 74.3954 95.8435L79.0577 103.93L86.9852 90.1803C87.2301 89.7555 87.5824 89.4028 88.0066 89.1575C88.4307 88.9123 88.9119 88.7831 89.4018 88.7831C89.8916 88.7831 90.3728 88.9123 90.797 89.1575C91.2212 89.4028 91.5734 89.7555 91.8183 90.1803L105.998 114.773ZM61.0481 113.948H104.571L91.1047 90.5928C90.9321 90.2935 90.6839 90.0449 90.385 89.872C90.0861 89.6992 89.747 89.6082 89.4018 89.6082C89.0567 89.6082 88.7176 89.6992 88.4187 89.872C88.1197 90.0449 87.8715 90.2935 87.699 90.5928L79.0577 105.58L73.6817 96.256C73.5584 96.0422 73.3811 95.8645 73.1676 95.7411C72.9541 95.6176 72.7118 95.5526 72.4653 95.5526C72.2187 95.5526 71.9765 95.6176 71.7629 95.7411C71.5494 95.8645 71.3721 96.0422 71.2488 96.256L61.0481 113.948Z" fill="#F2A7AA"/>
<path d="M165.323 114.773H118.946L129.86 95.8435C130.056 95.5042 130.337 95.2225 130.676 95.0266C131.015 94.8307 131.399 94.7275 131.79 94.7275C132.182 94.7275 132.566 94.8307 132.905 95.0266C133.244 95.2225 133.525 95.5042 133.721 95.8435L138.383 103.93L146.31 90.1803C146.555 89.7556 146.908 89.4028 147.332 89.1576C147.756 88.9123 148.237 88.7832 148.727 88.7832C149.217 88.7832 149.698 88.9123 150.122 89.1576C150.546 89.4028 150.899 89.7556 151.144 90.1803L165.323 114.773ZM120.373 113.948H163.896L150.43 90.5929C150.257 90.2935 150.009 90.0449 149.71 89.8721C149.411 89.6992 149.072 89.6083 148.727 89.6083C148.382 89.6083 148.043 89.6992 147.744 89.8721C147.445 90.0449 147.197 90.2935 147.024 90.5929L138.383 105.58L133.007 96.256C132.884 96.0422 132.706 95.8646 132.493 95.7411C132.279 95.6176 132.037 95.5526 131.79 95.5526C131.544 95.5526 131.302 95.6176 131.088 95.7411C130.875 95.8646 130.697 96.0422 130.574 96.256L120.373 113.948Z" fill="#F2A7AA"/>
<path d="M106.041 114.768H56.6038C56.0577 114.768 55.5342 114.55 55.148 114.163C54.7618 113.777 54.5446 113.252 54.5439 112.705V85.0753C54.5446 84.5284 54.7618 84.0041 55.148 83.6174C55.5342 83.2307 56.0577 83.0132 56.6038 83.0126H106.041C106.588 83.0132 107.111 83.2307 107.497 83.6174C107.883 84.0041 108.101 84.5284 108.101 85.0753V112.705C108.101 113.252 107.883 113.777 107.497 114.163C107.111 114.55 106.588 114.768 106.041 114.768ZM56.6038 83.8376C56.2761 83.838 55.962 83.9685 55.7303 84.2005C55.4986 84.4326 55.3682 84.7471 55.3679 85.0753V112.705C55.3682 113.034 55.4986 113.348 55.7303 113.58C55.962 113.812 56.2761 113.943 56.6038 113.943H106.041C106.369 113.943 106.683 113.812 106.915 113.58C107.147 113.348 107.277 113.034 107.277 112.705V85.0753C107.277 84.7471 107.147 84.4325 106.915 84.2005C106.683 83.9685 106.369 83.838 106.041 83.8376L56.6038 83.8376Z" fill="#F2A7AA"/>
<path d="M67.1381 202.968C66.9543 202.968 66.7722 203.004 66.6022 203.074C66.4323 203.144 66.2779 203.247 66.1477 203.377C66.0176 203.508 65.9144 203.662 65.844 203.832C65.7736 204.002 65.7373 204.184 65.7373 204.369C65.7373 204.553 65.7736 204.735 65.844 204.905C65.9144 205.075 66.0176 205.23 66.1477 205.36C66.2779 205.49 66.4323 205.593 66.6022 205.663C66.7722 205.733 66.9543 205.769 67.1381 205.769H95.5074C95.8783 205.769 96.234 205.621 96.4963 205.359C96.7585 205.096 96.9059 204.74 96.9059 204.369C96.9059 203.997 96.7585 203.641 96.4963 203.378C96.234 203.116 95.8783 202.968 95.5074 202.968H67.1381Z" fill="#F2A7AA"/>
<path d="M67.1381 211.219C66.9543 211.219 66.7722 211.255 66.6022 211.325C66.4323 211.395 66.2779 211.498 66.1477 211.628C66.0176 211.758 65.9144 211.913 65.844 212.083C65.7736 212.253 65.7373 212.435 65.7373 212.619C65.7373 212.803 65.7736 212.986 65.844 213.156C65.9144 213.326 66.0176 213.48 66.1477 213.61C66.2779 213.741 66.4323 213.844 66.6022 213.914C66.7722 213.984 66.9543 214.02 67.1381 214.02H95.5074C95.8779 214.019 96.233 213.871 96.4948 213.609C96.7565 213.346 96.9035 212.99 96.9035 212.619C96.9035 212.248 96.7565 211.893 96.4948 211.63C96.233 211.367 95.8779 211.22 95.5074 211.219H67.1381Z" fill="#F2A7AA"/>
<path d="M81.3224 237.387C79.5813 237.387 77.8794 236.87 76.4318 235.901C74.9842 234.933 73.8559 233.556 73.1896 231.945C72.5233 230.335 72.349 228.562 72.6887 226.852C73.0283 225.142 73.8667 223.572 75.0978 222.339C76.3289 221.106 77.8974 220.267 79.605 219.927C81.3126 219.586 83.0826 219.761 84.6911 220.428C86.2996 221.095 87.6744 222.225 88.6417 223.675C89.6089 225.124 90.1252 226.829 90.1252 228.572C90.1226 230.909 89.1943 233.15 87.544 234.802C85.8937 236.455 83.6562 237.384 81.3224 237.387ZM81.3224 220.582C79.7443 220.582 78.2017 221.051 76.8895 221.929C75.5774 222.807 74.5548 224.055 73.9509 225.515C73.347 226.974 73.1889 228.581 73.4968 230.131C73.8047 231.681 74.5646 233.104 75.6805 234.222C76.7963 235.339 78.218 236.1 79.7658 236.408C81.3135 236.717 82.9178 236.558 84.3758 235.954C85.8337 235.349 87.0798 234.325 87.9566 233.011C88.8333 231.697 89.3012 230.152 89.3012 228.572C89.2988 226.454 88.4573 224.423 86.9616 222.925C85.4658 221.427 83.4377 220.585 81.3224 220.582Z" fill="#F2A7AA"/>
<path d="M156.48 237.387C156.664 237.387 156.846 237.351 157.016 237.281C157.186 237.211 157.34 237.108 157.47 236.978C157.6 236.847 157.703 236.693 157.774 236.523C157.844 236.353 157.881 236.171 157.881 235.986C157.881 235.802 157.844 235.62 157.774 235.45C157.703 235.28 157.6 235.125 157.47 234.995C157.34 234.865 157.186 234.762 157.016 234.692C156.846 234.622 156.664 234.586 156.48 234.586H128.11C127.74 234.586 127.384 234.734 127.122 234.996C126.859 235.259 126.712 235.615 126.712 235.986C126.712 236.358 126.859 236.714 127.122 236.977C127.384 237.239 127.74 237.387 128.11 237.387H156.48Z" fill="#FFB6B6"/>
<path d="M156.48 229.136C156.664 229.136 156.846 229.1 157.016 229.03C157.186 228.96 157.34 228.857 157.47 228.727C157.6 228.597 157.703 228.442 157.774 228.272C157.844 228.102 157.881 227.92 157.881 227.736C157.881 227.552 157.844 227.369 157.774 227.199C157.703 227.029 157.6 226.875 157.47 226.745C157.34 226.615 157.186 226.511 157.016 226.441C156.846 226.371 156.664 226.335 156.48 226.335H128.11C127.74 226.335 127.384 226.483 127.122 226.745C126.859 227.008 126.712 227.364 126.712 227.736C126.712 228.107 126.859 228.463 127.122 228.726C127.384 228.989 127.74 229.136 128.11 229.136H156.48Z" fill="#FFB6B6"/>
<path d="M142.295 202.968C144.036 202.968 145.738 203.485 147.186 204.454C148.633 205.422 149.761 206.799 150.428 208.41C151.094 210.02 151.268 211.793 150.929 213.503C150.589 215.213 149.751 216.783 148.52 218.016C147.288 219.249 145.72 220.088 144.012 220.428C142.305 220.769 140.535 220.594 138.926 219.927C137.318 219.26 135.943 218.13 134.976 216.68C134.008 215.231 133.492 213.526 133.492 211.783C133.495 209.446 134.423 207.205 136.073 205.553C137.724 203.9 139.961 202.971 142.295 202.968ZM142.295 219.773C143.873 219.773 145.416 219.304 146.728 218.426C148.04 217.548 149.063 216.301 149.667 214.841C150.27 213.381 150.428 211.774 150.121 210.224C149.813 208.674 149.053 207.251 147.937 206.133C146.821 205.016 145.399 204.255 143.852 203.947C142.304 203.638 140.7 203.797 139.242 204.401C137.784 205.006 136.538 206.03 135.661 207.344C134.784 208.658 134.316 210.203 134.316 211.783C134.319 213.901 135.16 215.932 136.656 217.43C138.152 218.928 140.18 219.77 142.295 219.773Z" fill="#FFB6B6"/>
<path d="M232 281.041H225.635L222.607 256.457L232.002 256.457L232 281.041Z" fill="#FFB8B8"/>
<path d="M219.213 279.22H233.364V286.96H213.359V285.082C213.359 283.527 213.976 282.036 215.074 280.937C216.172 279.838 217.661 279.22 219.213 279.22Z" fill="#FF5900"/>
<path d="M257.44 281.041H251.075L248.047 256.457L257.441 256.457L257.44 281.041Z" fill="#FFB8B8"/>
<path d="M244.653 279.22H258.803V286.96H238.799V285.082C238.799 283.527 239.416 282.036 240.513 280.937C241.611 279.838 243.1 279.22 244.653 279.22Z" fill="#FF5900"/>
<path d="M220.911 210.17C221.43 209.683 221.836 209.087 222.1 208.425C222.365 207.764 222.481 207.052 222.441 206.34C222.401 205.629 222.206 204.935 221.869 204.307C221.532 203.679 221.062 203.133 220.491 202.707L223.218 191.907L217.068 188.646L213.431 203.953C212.779 204.96 212.52 206.171 212.701 207.357C212.882 208.543 213.491 209.622 214.413 210.388C215.335 211.155 216.506 211.556 217.703 211.516C218.901 211.475 220.042 210.997 220.911 210.17Z" fill="#FFB8B8"/>
<path d="M259.703 191.306L259.184 227.698L258.665 275.528L247.243 274.488L241.532 208.462L234.264 274.488H222.472L221.284 207.943L225.438 193.386L259.703 191.306Z" fill="#2F2E41"/>
<path d="M224.299 193.608L224.132 193.532L230.641 148.947L227.332 135.471C227.16 134.77 227.251 134.03 227.587 133.392C227.924 132.753 228.482 132.26 229.157 132.007L235.112 129.771L237.215 123.978L253.812 125.769L254.22 130.296C256.018 130.874 270.829 135.813 269.807 141.441C268.798 146.995 262.843 164.471 262.541 165.357L261.498 190.42L261.369 190.484C261.215 190.562 249.775 196.194 237.348 196.193C232.971 196.193 228.47 195.494 224.299 193.608Z" fill="#FF5900"/>
<path d="M222.433 198.884L213.331 198.196L218.547 164.769C218.578 164.572 221.674 144.942 222.701 138.774C223.226 135.618 224.705 134.033 226.048 133.234C226.722 132.834 227.365 132.629 227.842 132.524C228.08 132.472 228.277 132.445 228.415 132.43C228.484 132.423 228.538 132.42 228.576 132.418C228.595 132.417 228.609 132.416 228.619 132.416L228.631 132.415C228.633 132.415 228.635 132.415 228.635 132.415L228.635 132.415H231.264L234.411 146.596L228.173 175.224L228.172 175.226L222.433 198.884Z" fill="#FF5900" stroke="black" stroke-width="0.2"/>
<path d="M247.156 194.978C247.189 194.266 247.378 193.57 247.71 192.939C248.041 192.309 248.506 191.758 249.073 191.327C249.64 190.896 250.294 190.594 250.989 190.444C251.685 190.293 252.405 190.297 253.099 190.455L259.537 181.37L266.005 183.941L256.733 196.644C256.391 197.793 255.639 198.777 254.62 199.409C253.601 200.041 252.386 200.276 251.206 200.071C250.025 199.865 248.961 199.234 248.214 198.295C247.468 197.356 247.091 196.176 247.156 194.978Z" fill="#FFB8B8"/>
<path d="M279.073 168.979L259.704 194.141L254.339 187.158L265.751 167.938L265.776 167.897L265.759 167.852L261.108 155.434L267.41 138.606L267.548 138.665L267.548 138.665C267.681 138.723 271.255 140.31 271.785 146.037L271.786 146.047L271.79 146.058L279.073 168.979Z" fill="#FF5900" stroke="black" stroke-width="0.2"/>
<path d="M255.349 114.885C258.515 109.086 256.386 101.815 250.595 98.6454C244.805 95.4755 237.544 97.6066 234.378 103.405C231.213 109.204 233.341 116.475 239.132 119.645C244.923 122.815 252.183 120.684 255.349 114.885Z" fill="#FFB8B8"/>
<path d="M236.84 103.317C238.077 104.783 240.171 105.196 242.102 105.366C246.024 105.71 251.727 105.152 255.56 104.265C255.833 106.92 255.087 109.783 256.649 111.967C257.381 109.323 257.807 106.603 257.917 103.862C257.965 102.686 257.946 101.47 257.469 100.39C256.992 99.3111 255.951 98.3949 254.753 98.3853C255.643 97.709 256.686 97.2626 257.79 97.0854L253.995 95.176L254.97 94.1743L248.1 93.7534L250.09 92.4877C247.095 92.0756 244.066 91.9799 241.051 92.202C239.651 92.3052 238.188 92.5025 237.054 93.3147C235.919 94.1269 235.264 95.7411 235.968 96.9335C235.087 97.0785 234.257 97.4464 233.557 98.0024C232.857 98.5584 232.311 99.2842 231.969 100.111C231.464 101.395 231.51 102.82 231.666 104.188C231.924 106.376 232.432 108.527 233.179 110.599" fill="#2F2E41"/>
</svg>
