<svg width="393" height="311" viewBox="0 0 393 311" fill="none" xmlns="http://www.w3.org/2000/svg">
<path d="M46.0448 233.945C45.7084 233.96 45.3754 233.872 45.0909 233.692C44.8064 233.512 44.5841 233.249 44.4542 232.939C44.3243 232.629 44.2931 232.286 44.3647 231.957C44.4363 231.629 44.6073 231.33 44.8546 231.102C44.896 230.937 44.9257 230.819 44.9671 230.655C44.9523 230.619 44.9374 230.583 44.9224 230.548C44.5835 229.748 44.0157 229.067 43.2902 228.588C42.5647 228.11 41.714 227.857 40.8448 227.86C39.9756 227.863 39.1268 228.123 38.4049 228.607C37.683 229.09 37.1203 229.776 36.7874 230.578C35.4568 233.779 33.7628 236.985 33.3457 240.369C33.162 241.865 33.2395 243.381 33.5748 244.851C30.4497 238.042 28.827 230.642 28.8166 223.152C28.8159 221.272 28.9204 219.394 29.1297 217.526C29.3027 215.995 29.5426 214.474 29.8496 212.965C31.5245 204.775 35.1207 197.098 40.3428 190.566C42.8703 189.188 44.9143 187.07 46.1994 184.497C46.665 183.572 46.994 182.584 47.1763 181.565C46.8912 181.602 46.6014 181.626 46.3163 181.644C46.2274 181.649 46.134 181.654 46.0452 181.658L46.0117 181.66C45.6983 181.674 45.3876 181.597 45.1169 181.439C44.8461 181.281 44.627 181.048 44.4858 180.768C44.3446 180.488 44.2874 180.174 44.321 179.862C44.3546 179.551 44.4777 179.256 44.6754 179.012C44.7985 178.861 44.9216 178.71 45.0449 178.559C45.2319 178.325 45.4235 178.096 45.6104 177.863C45.632 177.841 45.6523 177.817 45.6712 177.793C45.8862 177.527 46.1012 177.265 46.3162 176.999C45.9238 176.391 45.3959 175.881 44.7738 175.51C42.6191 174.25 39.6463 175.123 38.0899 177.069C36.5287 179.016 36.2343 181.747 36.7764 184.179C37.3096 186.249 38.1916 188.213 39.3846 189.987C39.2677 190.136 39.1462 190.281 39.0294 190.43C36.8933 193.174 35.0315 196.12 33.4708 199.226C33.8504 195.746 33.3974 192.226 32.1491 188.955C30.884 185.907 28.5128 183.34 26.4246 180.704C23.9163 177.539 18.773 178.921 18.3311 182.933C18.3268 182.972 18.3226 183.011 18.3186 183.05C18.6287 183.224 18.9323 183.41 19.2294 183.606C19.6026 183.855 19.8917 184.211 20.059 184.627C20.2263 185.043 20.2638 185.5 20.1667 185.937C20.0697 186.375 19.8425 186.773 19.515 187.08C19.1874 187.386 18.7749 187.587 18.3313 187.655L18.2859 187.662C18.3964 188.779 18.5917 189.885 18.8701 190.972C19.6769 194.006 21.1027 196.841 23.058 199.3C25.0132 201.758 27.4559 203.786 30.2327 205.257C30.415 205.351 30.5927 205.444 30.775 205.533C29.2069 209.971 28.2234 214.594 27.849 219.286C27.6371 222.054 27.6496 224.835 27.8864 227.601L27.8724 227.503C27.274 224.427 25.6313 221.652 23.2216 219.646C19.6427 216.709 14.5863 215.628 10.7252 213.267C10.3148 213.004 9.83772 212.864 9.35008 212.863C8.86245 212.861 8.38464 213 7.97302 213.261C7.56141 213.522 7.23314 213.895 7.02694 214.336C6.82074 214.778 6.74521 215.269 6.80926 215.752C6.81444 215.786 6.81971 215.82 6.82505 215.855C7.40062 216.089 7.96103 216.359 8.50302 216.662C8.81319 216.837 9.1168 217.023 9.41387 217.219C9.78705 217.468 10.0762 217.824 10.2435 218.24C10.4107 218.656 10.4483 219.112 10.3512 219.55C10.2541 219.988 10.0269 220.386 9.69942 220.692C9.37191 220.999 8.95933 221.2 8.51575 221.268L8.4703 221.275C8.43758 221.279 8.40954 221.284 8.37687 221.289C9.36031 223.634 10.7406 225.793 12.4573 227.671C14.578 229.943 17.1411 231.76 19.9896 233.008C22.838 234.256 25.9117 234.91 29.0222 234.93H29.0269C29.8712 238.595 31.0946 242.162 32.6773 245.574H45.718C45.7647 245.429 45.8068 245.28 45.8489 245.135C44.6418 245.211 43.43 245.139 42.2404 244.921C43.208 243.735 44.1755 242.54 45.143 241.354C45.1646 241.332 45.1849 241.308 45.2038 241.284C45.6946 240.677 46.19 240.075 46.6808 239.468L46.6811 239.467C46.7072 237.607 46.4935 235.751 46.0452 233.945L46.0448 233.945Z" fill="#F2F2F2"/>
<path d="M199.834 245.75C199.834 245.821 199.82 245.891 199.793 245.957C199.766 246.023 199.726 246.082 199.676 246.133C199.626 246.183 199.566 246.223 199.5 246.25C199.434 246.277 199.364 246.29 199.293 246.29H0.540866C0.39742 246.29 0.259854 246.233 0.158422 246.132C0.0569901 246.031 0 245.893 0 245.75C0 245.607 0.0569901 245.469 0.158422 245.368C0.259854 245.267 0.39742 245.21 0.540866 245.21H199.293C199.364 245.21 199.434 245.223 199.5 245.251C199.566 245.278 199.626 245.317 199.676 245.368C199.726 245.418 199.766 245.477 199.793 245.543C199.82 245.609 199.834 245.679 199.834 245.75Z" fill="#FF5900"/>
<path d="M104.075 176.357C103.326 176.178 102.547 176.165 101.793 176.32C101.039 176.474 100.328 176.791 99.7104 177.249C99.0925 177.708 98.5827 178.296 98.217 178.972C97.8513 179.649 97.6385 180.397 97.5936 181.164L86.2314 185.114L86.9504 192.596L102.918 186.793C104.213 186.783 105.46 186.298 106.422 185.431C107.384 184.564 107.994 183.375 108.137 182.088C108.28 180.802 107.945 179.508 107.196 178.452C106.447 177.395 105.337 176.65 104.075 176.357Z" fill="#FFB6B6"/>
<path d="M85.5571 198.103C81.0393 201.248 73.08 202.857 62.2474 202.784C61.6477 202.785 61.0542 202.662 60.5044 202.423C59.9547 202.184 59.4607 201.833 59.0538 201.393C56.1553 198.378 56.2685 191.496 56.2866 190.832L53.1096 178.873C53.0415 178.69 51.283 173.784 53.072 170.357C53.4527 169.641 53.9839 169.016 54.6293 168.525C55.2746 168.034 56.0188 167.688 56.8107 167.511C63.5294 165.731 69.8453 183.694 70.6479 186.067L80.0767 184.463L86.5882 184.196L93.2129 180.544L96.9427 189.46L87.7124 196.197C87.0756 196.919 86.3516 197.559 85.5571 198.103Z" fill="#2F2E41"/>
<path d="M103.75 296.983L110.695 297.307L115.252 270.705L105.002 270.226L103.75 296.983Z" fill="#FFB6B6"/>
<path d="M102.188 293.481L113.197 293.339L112.977 298.037L123.078 305.725C123.577 306.105 123.942 306.634 124.118 307.235C124.295 307.836 124.275 308.478 124.06 309.066C123.846 309.655 123.449 310.16 122.926 310.507C122.404 310.855 121.785 311.026 121.158 310.997L108.087 310.386L106.052 305.634L104.955 310.24L100.026 310.01L102.188 293.481Z" fill="#FF5900"/>
<path d="M176.264 239.864L178.794 233.395L155.019 220.57L143.008 228.11L176.264 239.864Z" fill="#FFB6B6"/>
<path d="M172.441 240.221L175.83 229.758L180.217 231.469L190.742 224.372C191.261 224.021 191.88 223.845 192.506 223.871C193.133 223.896 193.735 224.121 194.225 224.512C194.715 224.903 195.067 225.441 195.229 226.046C195.391 226.651 195.356 227.292 195.128 227.876L190.365 240.049L185.206 240.454L189.224 242.966L187.428 247.556L172.441 240.221Z" fill="#FF5900"/>
<path d="M39.6768 220.612C39.6768 220.612 42.5613 239.005 56.1965 240.367C69.8318 241.729 82.4006 235.593 82.4006 235.593L120.579 223.849C120.579 223.849 161.188 235.373 168.006 237.189C168.006 237.189 172.708 226.528 172.551 225.84C171.101 219.504 169.212 223.79 169.212 223.79L126.033 204.724C126.033 204.724 119.216 202.908 107.399 207.901C95.5813 212.895 63.9232 224.932 63.9232 224.932L39.6768 220.612Z" fill="#2F2E41"/>
<path d="M39.8345 219.485C39.8345 219.485 37.5605 241.518 50.8429 244.884C63.4689 248.084 80.885 244.802 80.885 244.802L101.648 242.637C101.648 242.637 102.557 269.282 102.557 282.447C106.775 283.02 111.026 283.323 115.283 283.355C116.192 283.355 116.252 282.879 116.252 282.879L118.012 236.828C118.136 234.826 117.839 232.82 117.139 230.939C116.44 229.059 115.354 227.345 113.952 225.909C112.55 224.473 110.862 223.346 108.997 222.601C107.133 221.855 105.132 221.508 103.125 221.581C102.145 221.619 101.117 221.688 100.041 221.789C87.268 223.013 71.4111 220.412 71.4111 220.412L39.8345 219.485Z" fill="#2F2E41"/>
<path d="M76.6763 187.52C76.6763 187.52 82.0686 220.089 78.4245 222.689C74.7804 225.289 69.7831 225.299 69.7831 225.299L68.6211 207.317L76.6763 187.52Z" fill="#2F2E41"/>
<path d="M67.6826 147.521L74.8923 154.364C78.2434 157.544 80.4646 161.73 81.2192 166.285C81.9738 170.84 81.2206 175.517 79.0737 179.606L75.6273 186.17L67.6826 147.521Z" fill="#2F2E41"/>
<path d="M66.0701 148.672L75.8392 159.786C77.9833 162.225 79.3119 165.271 79.64 168.501C79.7889 169.967 79.729 171.447 79.4621 172.897L75.7805 192.886L73.0132 221.755C73.0132 221.755 51.6498 228.22 49.4632 218.236C47.2765 208.253 66.0701 148.672 66.0701 148.672Z" fill="#FF5900"/>
<path d="M56.9008 224.468C42.8574 222.13 39.4172 221.666 39.2029 221.584L38.9883 221.502L40.3959 213.066L46.3398 198.478C46.7258 193.706 49.2294 187.24 47.7972 182.047C43.6335 166.95 50.3981 145.615 53.4917 143.981L62.0678 138.365L65.0783 141.122L70.2981 148.42C74.5928 167.528 77.559 185.338 77.4147 186.427L74.764 205.133L71.6406 212.308C62.1652 216.875 68.5368 226.404 56.9008 224.468Z" fill="#2F2E41"/>
<path d="M82.3256 210.744L104.376 204.852L106.317 204.392L107.702 204.064L109.315 203.683L109.328 203.68C109.562 203.626 109.808 203.667 110.013 203.793L118.2 213.598C118.274 213.644 118.339 213.702 118.393 213.771C118.415 213.789 118.434 213.809 118.451 213.832C118.542 213.955 118.6 214.099 118.622 214.251C118.644 214.402 118.628 214.557 118.576 214.701C118.524 214.845 118.438 214.974 118.324 215.076C118.21 215.179 118.073 215.252 117.924 215.289L85.0301 222.85C84.8596 222.889 84.6817 222.878 84.5169 222.82C84.3522 222.762 84.2072 222.658 84.0988 222.522L83.7649 222.09L81.9446 213.335L81.8151 212.198C81.7325 212.093 81.6743 211.97 81.6445 211.84C81.5915 211.605 81.6333 211.358 81.7607 211.153C81.8881 210.948 82.0909 210.801 82.3256 210.744Z" fill="#E6E6E6"/>
<path opacity="0.17" d="M83.7646 222.089L84.1004 222.522C84.2086 222.659 84.3532 222.762 84.5175 222.82C84.6819 222.878 84.8593 222.889 85.0294 222.851L117.925 215.29C118.073 215.253 118.211 215.179 118.324 215.077C118.438 214.974 118.525 214.845 118.576 214.702C118.628 214.558 118.644 214.403 118.622 214.252C118.6 214.1 118.541 213.957 118.45 213.833C118.434 213.81 118.415 213.789 118.393 213.772L83.7646 222.089Z" fill="black"/>
<path d="M109.151 203.619L108.555 161.734C108.53 161.482 108.607 161.23 108.768 161.034L112.983 152.272L113.421 151.741C113.583 151.546 113.816 151.423 114.068 151.398L114.986 151.313C115.238 151.288 115.491 151.365 115.687 151.526C115.883 151.686 116.007 151.919 116.032 152.171L116.859 196.489L116.859 196.492L117.269 200.759L117.754 205.826L117.755 205.832L118.512 213.716C118.526 213.851 118.511 213.987 118.467 214.116C118.424 214.244 118.353 214.361 118.259 214.459C118.168 214.559 118.056 214.638 117.932 214.691C117.808 214.744 117.674 214.77 117.539 214.767L116.942 214.755C116.713 214.749 116.494 214.663 116.322 214.511L115.988 214.212L115.834 214.071L109.467 204.241C109.286 204.081 109.173 203.859 109.151 203.619Z" fill="#E6E6E6"/>
<path opacity="0.17" d="M112.984 152.272L115.833 214.072L115.989 214.211L116.321 214.51C116.493 214.662 116.712 214.749 116.942 214.755L117.539 214.766C117.675 214.769 117.809 214.743 117.933 214.689C118.058 214.636 118.169 214.558 118.261 214.459C118.353 214.359 118.423 214.242 118.466 214.114C118.51 213.986 118.525 213.85 118.513 213.716L116.031 152.172C116.007 151.92 115.883 151.687 115.687 151.526C115.491 151.364 115.239 151.287 114.986 151.311L114.067 151.399C113.942 151.411 113.821 151.447 113.71 151.506C113.6 151.564 113.502 151.645 113.422 151.742L112.984 152.272Z" fill="black"/>
<path d="M113.224 154.769L109.369 164.273L109.846 192.703L114.019 198.731L113.224 154.769Z" fill="#6C63FF"/>
<path d="M84.8672 210.493C84.6562 210.553 84.4778 210.695 84.3711 210.886C84.2644 211.078 84.2382 211.303 84.2982 211.514L85.9964 218.583L87.5876 218.13L85.8894 211.062C85.8292 210.851 85.6877 210.673 85.4961 210.566C85.3044 210.46 85.0782 210.433 84.8672 210.493Z" fill="#2F2E41"/>
<path d="M88.0488 209.588C87.8379 209.648 87.6594 209.79 87.5527 209.981C87.446 210.173 87.4198 210.398 87.4798 210.609L87.8423 211.881L89.4335 211.428L89.071 210.157C89.0108 209.946 88.8694 209.768 88.6777 209.661C88.486 209.555 88.2598 209.528 88.0488 209.588Z" fill="#2F2E41"/>
<path d="M91.2315 208.683C91.0205 208.743 90.8421 208.885 90.7354 209.076C90.6286 209.268 90.6024 209.493 90.6624 209.704L91.0249 210.976L92.6161 210.523L92.2536 209.252C92.1935 209.041 92.052 208.863 91.8603 208.756C91.6687 208.65 91.4425 208.623 91.2315 208.683Z" fill="#2F2E41"/>
<path d="M94.4141 207.778C94.2031 207.838 94.0247 207.979 93.918 208.171C93.8113 208.362 93.785 208.588 93.845 208.799L94.2075 210.07L95.7987 209.618L95.4362 208.346C95.3761 208.136 95.2346 207.958 95.0429 207.851C94.8513 207.744 94.6251 207.718 94.4141 207.778Z" fill="#2F2E41"/>
<path d="M97.5967 206.873C97.3857 206.933 97.2073 207.074 97.1006 207.266C96.9939 207.457 96.9677 207.683 97.0277 207.894L97.3901 209.165L98.9813 208.713L98.6188 207.441C98.5587 207.231 98.4172 207.052 98.2256 206.946C98.0339 206.839 97.8077 206.813 97.5967 206.873Z" fill="#2F2E41"/>
<path d="M100.779 205.968C100.568 206.028 100.39 206.169 100.283 206.361C100.176 206.552 100.15 206.778 100.21 206.989L100.573 208.26L102.164 207.808L101.801 206.536C101.741 206.326 101.6 206.147 101.408 206.041C101.217 205.934 100.99 205.908 100.779 205.968Z" fill="#2F2E41"/>
<path d="M103.961 205.063C103.75 205.123 103.572 205.264 103.465 205.456C103.358 205.647 103.332 205.873 103.392 206.084L103.754 207.355L105.346 206.903L104.983 205.631C104.923 205.421 104.782 205.242 104.59 205.136C104.398 205.029 104.172 205.003 103.961 205.063Z" fill="#2F2E41"/>
<path d="M107.144 204.158C106.933 204.218 106.754 204.359 106.647 204.551C106.541 204.742 106.515 204.968 106.575 205.179L106.937 206.45L108.528 205.998L108.166 204.726C108.106 204.516 107.964 204.337 107.772 204.231C107.581 204.124 107.355 204.098 107.144 204.158Z" fill="#2F2E41"/>
<path d="M88.7168 212.487C88.5059 212.547 88.3274 212.688 88.2207 212.88C88.114 213.071 88.0878 213.297 88.1478 213.508L88.5102 214.779L90.1014 214.327L89.739 213.055C89.6788 212.845 89.5374 212.666 89.3457 212.56C89.154 212.453 88.9278 212.427 88.7168 212.487Z" fill="#2F2E41"/>
<path d="M91.8994 211.582C91.6885 211.642 91.51 211.783 91.4033 211.975C91.2966 212.166 91.2704 212.392 91.3304 212.603L91.6928 213.874L93.284 213.422L92.9216 212.15C92.8614 211.94 92.72 211.761 92.5283 211.655C92.3366 211.548 92.1104 211.522 91.8994 211.582Z" fill="#2F2E41"/>
<path d="M95.0821 210.677C94.8711 210.737 94.6926 210.878 94.5859 211.07C94.4792 211.261 94.453 211.487 94.513 211.698L94.8755 212.969L96.4667 212.517L96.1042 211.245C96.044 211.034 95.9026 210.856 95.7109 210.75C95.5192 210.643 95.2931 210.617 95.0821 210.677Z" fill="#2F2E41"/>
<path d="M98.2647 209.772C98.0537 209.832 97.8753 209.973 97.7686 210.165C97.6619 210.356 97.6356 210.582 97.6956 210.793L98.0581 212.064L99.6493 211.612L99.2868 210.34C99.2267 210.129 99.0852 209.951 98.8935 209.845C98.7019 209.738 98.4757 209.712 98.2647 209.772Z" fill="#2F2E41"/>
<path d="M101.446 208.867C101.235 208.927 101.057 209.068 100.95 209.26C100.843 209.451 100.817 209.677 100.877 209.888L101.24 211.159L102.831 210.707L102.468 209.435C102.408 209.224 102.267 209.046 102.075 208.94C101.884 208.833 101.657 208.807 101.446 208.867Z" fill="#2F2E41"/>
<path d="M104.629 207.962C104.418 208.022 104.24 208.163 104.133 208.354C104.026 208.546 104 208.772 104.06 208.982L104.422 210.254L106.014 209.801L105.651 208.53C105.591 208.319 105.449 208.141 105.258 208.034C105.066 207.928 104.84 207.902 104.629 207.962Z" fill="#2F2E41"/>
<path d="M107.812 207.057C107.601 207.117 107.422 207.258 107.315 207.449C107.209 207.641 107.182 207.867 107.242 208.077L107.605 209.349L109.196 208.896L108.834 207.625C108.774 207.414 108.632 207.236 108.44 207.129C108.249 207.023 108.023 206.997 107.812 207.057Z" fill="#2F2E41"/>
<path d="M89.3848 215.386C89.1738 215.446 88.9954 215.587 88.8887 215.778C88.782 215.97 88.7557 216.196 88.8157 216.407L89.1782 217.678L90.7694 217.225L90.4069 215.954C90.3468 215.743 90.2053 215.565 90.0137 215.458C89.822 215.352 89.5958 215.326 89.3848 215.386Z" fill="#2F2E41"/>
<path d="M92.5674 214.48C92.3564 214.541 92.178 214.682 92.0713 214.873C91.9646 215.065 91.9384 215.291 91.9984 215.501L92.3608 216.773L93.952 216.32L93.5895 215.049C93.5294 214.838 93.3879 214.66 93.1963 214.553C93.0046 214.447 92.7784 214.421 92.5674 214.48Z" fill="#2F2E41"/>
<path d="M95.75 213.575C95.5391 213.636 95.3606 213.777 95.2539 213.968C95.1472 214.16 95.121 214.386 95.181 214.596L95.5434 215.868L97.1346 215.415L96.7722 214.144C96.712 213.933 96.5706 213.755 96.3789 213.648C96.1872 213.542 95.961 213.516 95.75 213.575Z" fill="#2F2E41"/>
<path d="M98.9326 212.67C98.7217 212.731 98.5432 212.872 98.4365 213.063C98.3298 213.255 98.3036 213.481 98.3636 213.691L98.726 214.963L100.317 214.51L99.9548 213.239C99.8946 213.028 99.7532 212.85 99.5615 212.743C99.3698 212.637 99.1436 212.611 98.9326 212.67Z" fill="#2F2E41"/>
<path d="M102.114 211.765C101.903 211.825 101.725 211.967 101.618 212.158C101.511 212.35 101.485 212.575 101.545 212.786L101.908 214.058L103.499 213.605L103.136 212.334C103.076 212.123 102.935 211.945 102.743 211.838C102.551 211.732 102.325 211.705 102.114 211.765Z" fill="#2F2E41"/>
<path d="M105.297 210.86C105.086 210.92 104.907 211.062 104.801 211.253C104.694 211.444 104.668 211.67 104.728 211.881L105.09 213.153L106.682 212.7L106.319 211.429C106.259 211.218 106.117 211.04 105.926 210.933C105.734 210.827 105.508 210.8 105.297 210.86Z" fill="#2F2E41"/>
<path d="M108.479 209.955C108.269 210.015 108.09 210.156 107.983 210.348C107.877 210.539 107.85 210.765 107.91 210.976L108.273 212.247L109.864 211.795L109.502 210.523C109.442 210.313 109.3 210.135 109.108 210.028C108.917 209.921 108.691 209.895 108.479 209.955Z" fill="#2F2E41"/>
<path d="M99.1299 204.47C98.703 203.83 98.141 203.291 97.4833 202.892C96.8256 202.493 96.0882 202.243 95.3232 202.159C94.5581 202.075 93.7839 202.16 93.0552 202.407C92.3265 202.654 91.6609 203.058 91.1053 203.59L80.0871 198.765L75.5186 204.738L91.1742 211.333C92.1309 212.206 93.375 212.698 94.6707 212.716C95.9664 212.734 97.2237 212.277 98.2043 211.431C99.1849 210.585 99.8208 209.409 99.9914 208.126C100.162 206.843 99.8554 205.542 99.1299 204.47Z" fill="#FFB6B6"/>
<path d="M70.7459 207.829C65.2924 207.064 58.3625 202.836 50.4725 195.422C50.0318 195.016 49.6804 194.523 49.4405 193.974C49.2006 193.425 49.0775 192.832 49.0789 192.233C49.0075 188.054 53.7772 183.087 54.2431 182.612L60.0587 171.688C60.1334 171.507 62.1862 166.716 65.8311 165.42C66.5975 165.154 67.4126 165.057 68.2202 165.135C69.0278 165.213 69.8088 165.465 70.5096 165.874C76.6472 169.133 69.043 186.591 68.0147 188.877L76.0182 194.107L80.9733 198.335L88.3166 200.159L84.9784 209.228L73.6241 207.895C72.6656 207.992 71.6989 207.969 70.7459 207.829Z" fill="#2F2E41"/>
<path d="M81.4994 125.199C82.4186 117.536 77.08 110.596 69.5754 109.698C62.0707 108.8 55.2418 114.284 54.3226 121.946C53.4034 129.609 58.7419 136.549 66.2466 137.447C73.7513 138.345 80.5802 132.861 81.4994 125.199Z" fill="#FFB6B6"/>
<path d="M32.2714 113.204C34.9038 110.79 36.4301 107.352 38.6431 104.518C40.856 101.684 44.3973 99.3342 47.7066 100.451C49.9878 101.221 51.5488 103.5 52.1885 105.909C52.8281 108.318 52.6955 110.874 52.5579 113.378C53.1137 108.266 57.0746 103.72 61.9086 102.646C66.7423 101.572 72.0755 104.054 74.4982 108.504C75.9114 107.478 77.652 107.006 79.3903 107.178C81.1285 107.349 82.7435 108.151 83.929 109.432C86.2569 112.071 86.3025 116.57 84.0291 119.309C81.7557 122.048 77.4707 122.657 74.6212 120.646L73.4253 121.507C73.7775 123.698 72.3015 126.059 70.2292 126.62C68.5488 127.075 66.2989 126.696 65.4976 128.305C64.9376 129.428 65.5708 130.775 66.2959 131.777C67.0209 132.779 67.8986 133.828 67.8489 135.089C67.7742 136.99 65.6672 138.076 63.8482 138.262C59.4619 138.709 54.9595 136.166 52.9493 132.106C52.9106 132.028 52.8677 131.949 52.8207 131.87C51.6511 129.94 50.8877 127.793 50.5771 125.559C50.2665 123.325 50.4152 121.051 51.0141 118.876C51.257 118.022 51.1951 117.358 50.6191 117.08C48.1297 115.879 40.6315 116.878 38.2274 118.304C35.8232 119.73 33.7921 121.755 31.4559 123.3C29.1195 124.845 26.2509 125.909 23.6172 125.097C21.5079 124.447 19.861 122.664 18.8533 120.63C17.8458 118.596 17.3994 116.313 17.0254 114.052C21.4637 117.374 28.1278 117.003 32.2714 113.204Z" fill="#2F2E41"/>
<path d="M392.197 15.6545H185.717C185.502 15.65 185.298 15.5615 185.147 15.4082C184.997 15.2549 184.913 15.0489 184.913 14.8344C184.913 14.6199 184.997 14.4139 185.147 14.2606C185.298 14.1073 185.502 14.0189 185.717 14.0143H392.197C392.412 14.0189 392.616 14.1073 392.766 14.2606C392.917 14.4139 393.001 14.6199 393.001 14.8344C393.001 15.0489 392.917 15.2549 392.766 15.4082C392.616 15.5615 392.412 15.65 392.197 15.6545Z" fill="#CACACA"/>
<path d="M199.772 9.82688C202.43 9.82688 204.584 7.62706 204.584 4.91344C204.584 2.19982 202.43 0 199.772 0C197.114 0 194.96 2.19982 194.96 4.91344C194.96 7.62706 197.114 9.82688 199.772 9.82688Z" fill="#3F3D56"/>
<path d="M216.396 9.82688C219.054 9.82688 221.208 7.62706 221.208 4.91344C221.208 2.19982 219.054 0 216.396 0C213.738 0 211.584 2.19982 211.584 4.91344C211.584 7.62706 213.738 9.82688 216.396 9.82688Z" fill="#3F3D56"/>
<path d="M233.019 9.82688C235.677 9.82688 237.831 7.62706 237.831 4.91344C237.831 2.19982 235.677 0 233.019 0C230.361 0 228.207 2.19982 228.207 4.91344C228.207 7.62706 230.361 9.82688 233.019 9.82688Z" fill="#3F3D56"/>
<path d="M382.188 1.21783H370.379C370.145 1.22249 369.922 1.31863 369.759 1.4856C369.595 1.65257 369.503 1.87707 369.503 2.11088C369.503 2.3447 369.595 2.5692 369.759 2.73617C369.922 2.90314 370.145 2.99928 370.379 3.00393H382.188C382.422 2.99928 382.645 2.90314 382.809 2.73617C382.973 2.5692 383.065 2.3447 383.065 2.11088C383.065 1.87707 382.973 1.65257 382.809 1.4856C382.645 1.31863 382.422 1.22249 382.188 1.21783Z" fill="#3F3D56"/>
<path d="M382.188 4.57007H370.379C370.145 4.57472 369.922 4.67086 369.759 4.83783C369.595 5.0048 369.503 5.2293 369.503 5.46312C369.503 5.69694 369.595 5.92143 369.759 6.0884C369.922 6.25538 370.145 6.35151 370.379 6.35617H382.188C382.422 6.35151 382.645 6.25538 382.809 6.0884C382.973 5.92143 383.065 5.69694 383.065 5.46312C383.065 5.2293 382.973 5.0048 382.809 4.83783C382.645 4.67086 382.422 4.57472 382.188 4.57007Z" fill="#3F3D56"/>
<path d="M382.188 7.91791H370.38C370.145 7.92253 369.923 8.01865 369.759 8.18563C369.595 8.3526 369.503 8.57712 369.503 8.81096C369.503 9.04479 369.595 9.26931 369.759 9.43628C369.923 9.60326 370.145 9.69937 370.38 9.704H382.188C382.422 9.69937 382.645 9.60326 382.809 9.43628C382.973 9.26931 383.065 9.04479 383.065 8.81096C383.065 8.57712 382.973 8.3526 382.809 8.18563C382.645 8.01865 382.422 7.92253 382.188 7.91791Z" fill="#3F3D56"/>
<path d="M30.2021 204.15L30.2093 204.141L30.2021 204.16V204.15Z" fill="#2F2E41"/>
<path d="M313.849 47.6137C317.134 47.6137 319.798 44.9533 319.798 41.6716C319.798 38.3899 317.134 35.7295 313.849 35.7295C310.563 35.7295 307.899 38.3899 307.899 41.6716C307.899 44.9533 310.563 47.6137 313.849 47.6137Z" fill="#E6E7E8"/>
<path d="M363.991 54.8294H309.671C309.438 54.8298 309.207 54.7843 308.992 54.6956C308.777 54.6068 308.581 54.4765 308.416 54.3122C308.252 54.1479 308.121 53.9527 308.032 53.7378C307.942 53.5229 307.896 53.2926 307.896 53.06C307.896 52.8274 307.942 52.5971 308.032 52.3822C308.121 52.1674 308.252 51.9722 308.416 51.8078C308.581 51.6435 308.777 51.5132 308.992 51.4245C309.207 51.3357 309.438 51.2902 309.671 51.2906H363.991C364.224 51.2902 364.455 51.3357 364.67 51.4245C364.885 51.5132 365.081 51.6435 365.246 51.8078C365.41 51.9722 365.541 52.1674 365.63 52.3822C365.72 52.5971 365.765 52.8274 365.765 53.06C365.765 53.2926 365.72 53.5229 365.63 53.7378C365.541 53.9527 365.41 54.1479 365.246 54.3122C365.081 54.4765 364.885 54.6068 364.67 54.6956C364.455 54.7843 364.224 54.8298 363.991 54.8294Z" fill="#E6E7E8"/>
<path d="M323.163 61.8213H309.671C309.201 61.8213 308.751 61.6349 308.418 61.303C308.086 60.9712 307.899 60.5211 307.899 60.0518C307.899 59.5825 308.086 59.1324 308.418 58.8006C308.751 58.4687 309.201 58.2823 309.671 58.2823H323.163C323.632 58.2823 324.083 58.4687 324.415 58.8006C324.748 59.1324 324.934 59.5825 324.934 60.0518C324.934 60.5211 324.748 60.9712 324.415 61.303C324.083 61.6349 323.632 61.8213 323.163 61.8213Z" fill="#E6E7E8"/>
<path d="M313.849 140.36C317.134 140.36 319.798 137.7 319.798 134.418C319.798 131.137 317.134 128.476 313.849 128.476C310.563 128.476 307.899 131.137 307.899 134.418C307.899 137.7 310.563 140.36 313.849 140.36Z" fill="#E6E7E8"/>
<path d="M363.991 147.576H309.671C309.201 147.576 308.751 147.39 308.418 147.058C308.086 146.726 307.899 146.276 307.899 145.807C307.899 145.337 308.086 144.887 308.418 144.555C308.751 144.224 309.201 144.037 309.671 144.037H363.991C364.461 144.037 364.912 144.224 365.244 144.555C365.576 144.887 365.763 145.337 365.763 145.807C365.763 146.276 365.576 146.726 365.244 147.058C364.912 147.39 364.461 147.576 363.991 147.576Z" fill="#E6E7E8"/>
<path d="M323.163 154.568H309.671C309.201 154.568 308.751 154.382 308.418 154.05C308.086 153.718 307.899 153.268 307.899 152.798C307.899 152.329 308.086 151.879 308.418 151.547C308.751 151.215 309.201 151.029 309.671 151.029H323.163C323.632 151.029 324.083 151.215 324.415 151.547C324.748 151.879 324.934 152.329 324.934 152.798C324.934 153.268 324.748 153.718 324.415 154.05C324.083 154.382 323.632 154.568 323.163 154.568Z" fill="#E6E7E8"/>
<path d="M218.1 126.286C221.385 126.286 224.049 123.626 224.049 120.344C224.049 117.062 221.385 114.402 218.1 114.402C214.814 114.402 212.15 117.062 212.15 120.344C212.15 123.626 214.814 126.286 218.1 126.286Z" fill="#E6E7E8"/>
<path d="M268.242 133.502H213.922C213.452 133.502 213.001 133.315 212.669 132.983C212.337 132.652 212.15 132.202 212.15 131.732C212.15 131.263 212.337 130.813 212.669 130.481C213.001 130.149 213.452 129.963 213.922 129.963H268.242C268.712 129.963 269.163 130.149 269.495 130.481C269.827 130.813 270.014 131.263 270.014 131.732C270.014 132.202 269.827 132.652 269.495 132.983C269.163 133.315 268.712 133.502 268.242 133.502Z" fill="#E6E7E8"/>
<path d="M227.414 140.494H213.922C213.452 140.494 213.002 140.307 212.669 139.975C212.337 139.644 212.15 139.193 212.15 138.724C212.15 138.255 212.337 137.805 212.669 137.473C213.002 137.141 213.452 136.955 213.922 136.955H227.414C227.883 136.955 228.334 137.141 228.666 137.473C228.999 137.805 229.185 138.255 229.185 138.724C229.185 139.193 228.999 139.644 228.666 139.975C228.334 140.307 227.883 140.494 227.414 140.494Z" fill="#E6E7E8"/>
<path d="M313.849 90.491C317.134 90.491 319.798 87.8307 319.798 84.549C319.798 81.2672 317.134 78.6069 313.849 78.6069C310.563 78.6069 307.899 81.2672 307.899 84.549C307.899 87.8307 310.563 90.491 313.849 90.491Z" fill="#E6E7E8"/>
<path d="M363.991 97.7068H309.671C309.201 97.7068 308.751 97.5204 308.418 97.1886C308.086 96.8567 307.899 96.4067 307.899 95.9374C307.899 95.4681 308.086 95.0181 308.418 94.6862C308.751 94.3544 309.201 94.168 309.671 94.168H363.991C364.461 94.168 364.912 94.3544 365.244 94.6862C365.576 95.0181 365.763 95.4681 365.763 95.9374C365.763 96.4067 365.576 96.8567 365.244 97.1886C364.912 97.5204 364.461 97.7068 363.991 97.7068Z" fill="#E6E7E8"/>
<path d="M342.312 104.699H309.671C309.201 104.699 308.751 104.512 308.418 104.18C308.086 103.849 307.899 103.398 307.899 102.929C307.899 102.46 308.086 102.01 308.418 101.678C308.751 101.346 309.201 101.16 309.671 101.16H342.312C342.782 101.16 343.233 101.346 343.565 101.678C343.897 102.01 344.084 102.46 344.084 102.929C344.084 103.398 343.897 103.849 343.565 104.18C343.233 104.512 342.782 104.699 342.312 104.699Z" fill="#E6E7E8"/>
<path d="M333.218 111.691H309.671C309.201 111.691 308.751 111.504 308.418 111.172C308.086 110.841 307.899 110.39 307.899 109.921C307.899 109.452 308.086 109.002 308.418 108.67C308.751 108.338 309.201 108.152 309.671 108.152H333.218C333.687 108.152 334.138 108.338 334.47 108.67C334.803 109.002 334.989 109.452 334.989 109.921C334.989 110.39 334.803 110.841 334.47 111.172C334.138 111.504 333.687 111.691 333.218 111.691Z" fill="#E6E7E8"/>
<path d="M259.607 45.9356V108.323C259.607 108.758 259.433 109.175 259.125 109.483C258.817 109.791 258.4 109.965 257.964 109.966H225.052C221.411 106.594 218.424 102.579 216.241 98.1247C216.097 97.8377 215.96 97.5484 215.83 97.2547C213.841 92.9434 212.636 88.3124 212.274 83.579C212.249 83.2875 212.229 82.9983 212.216 82.7045C212.171 81.9534 212.15 81.191 212.15 80.4264C212.144 75.337 213.106 70.2927 214.986 65.5623C215.098 65.2685 215.217 64.977 215.341 64.6878C217.816 58.8754 221.621 53.7237 226.451 49.6466C226.738 49.4022 227.029 49.1645 227.322 48.9335L227.389 48.8797C231.169 45.8909 235.852 44.2719 240.673 44.2875H257.964C258.4 44.2889 258.818 44.4632 259.127 44.7721C259.435 45.0811 259.607 45.4996 259.607 45.9356Z" fill="#FF5900"/>
<path opacity="0.2" d="M259.695 65.5623V64.6878H245.017V44.2875H244.144V64.6878H227.322V48.9336C227.028 49.1645 226.738 49.4022 226.451 49.6466V64.6878H215.341C215.217 64.9771 215.098 65.2686 214.986 65.5623H226.451V82.7045H212.216C212.229 82.9982 212.249 83.2875 212.274 83.579H226.451V97.2547H215.83C215.96 97.5484 216.097 97.8377 216.241 98.1247H226.451V109.621H227.322V98.1247H244.144V109.621H245.017V98.1247H259.695V97.2547H245.017C245.017 95.4587 245.371 93.6802 246.059 92.0208C246.747 90.3614 247.755 88.8537 249.027 87.5837C250.298 86.3138 251.808 85.3064 253.469 84.6193C255.131 83.9322 256.911 83.5787 258.709 83.579H259.695V82.7045H245.017V65.5623H259.695ZM244.144 97.2547H227.322V83.579H244.144V97.2547ZM244.144 82.7045H227.322V82.3615C227.322 80.1552 227.758 77.9706 228.603 75.9324C229.449 73.8941 230.688 72.0421 232.25 70.4822C233.812 68.9222 235.666 67.6849 237.707 66.8407C239.748 65.9966 241.935 65.5621 244.144 65.5623V82.7045Z" fill="black"/>
<path d="M258.039 97.475C257.687 97.4912 257.339 97.3989 257.041 97.2107C256.744 97.0225 256.511 96.7475 256.375 96.4229C256.239 96.0983 256.207 95.7398 256.282 95.396C256.357 95.0522 256.535 94.7398 256.794 94.5009C256.837 94.329 256.869 94.2055 256.912 94.0335C256.896 93.9961 256.881 93.9587 256.865 93.9213C255.283 90.1544 245.191 100.655 244.755 104.195C244.562 105.76 244.644 107.346 244.994 108.884C241.725 101.761 240.028 94.0196 240.017 86.1842C240.016 84.218 240.125 82.2533 240.344 80.2993C240.525 78.6974 240.776 77.107 241.097 75.5279C242.849 66.9601 246.611 58.9296 252.074 52.096C255.199 52.2701 257.937 51.7948 258.201 45.7472C258.248 44.6714 259.047 43.74 259.223 42.6802C258.925 42.7193 258.621 42.7437 258.323 42.7632C258.23 42.7681 258.133 42.773 258.04 42.7779L258.005 42.7794C257.677 42.7941 257.352 42.7139 257.069 42.5483C256.785 42.3828 256.556 42.139 256.408 41.8464C256.261 41.5537 256.201 41.2247 256.236 40.8988C256.271 40.573 256.4 40.2642 256.607 40.0097C256.735 39.8515 256.864 39.6932 256.993 39.5351C257.189 39.2909 257.389 39.0516 257.585 38.8074C257.607 38.7842 257.629 38.7598 257.648 38.7341C257.873 38.4558 258.098 38.1823 258.323 37.9039C257.913 37.2674 257.36 36.7343 256.71 36.3461C254.456 35.0275 251.346 35.9407 249.718 37.9772C248.084 40.0137 247.776 42.8707 248.344 45.4151C248.901 47.5801 249.824 49.6345 251.072 51.4904C250.95 51.6467 250.823 51.798 250.7 51.9543C248.466 54.8242 246.518 57.906 244.886 61.1553C245.347 57.5515 239.699 44.5367 237.514 41.7799C234.891 38.4687 229.51 39.9138 229.048 44.1113C229.043 44.152 229.039 44.1926 229.035 44.2332C229.359 44.416 229.677 44.6101 229.988 44.8154C230.378 45.0759 230.68 45.4481 230.855 45.8833C231.03 46.3184 231.07 46.7962 230.968 47.2541C230.866 47.7119 230.629 48.1285 230.286 48.4491C229.944 48.7697 229.512 48.9795 229.048 49.051L229 49.0583C224.657 55.252 238.58 71.3727 242.065 67.7531C240.425 72.3961 239.396 77.2324 239.005 82.1405C238.783 85.0361 238.796 87.9448 239.044 90.8383L239.029 90.7358C238.255 84.4337 224.97 75.0638 221.091 75.8443C218.856 76.2939 216.655 76.1917 216.995 78.4431C217 78.4791 217.006 78.515 217.011 78.551C217.613 78.7959 218.2 79.0781 218.767 79.3958C219.091 79.5787 219.409 79.7727 219.719 79.978C220.11 80.2385 220.412 80.6107 220.587 81.0459C220.762 81.4811 220.801 81.9589 220.7 82.4167C220.598 82.8746 220.361 83.2911 220.018 83.6117C219.676 83.9324 219.244 84.1422 218.78 84.2136L218.732 84.2209C218.698 84.2258 218.669 84.2307 218.635 84.2356C216.658 91.0297 231.319 101.995 240.232 98.5057H240.237C241.12 102.339 242.4 106.071 244.055 109.641H257.697C257.746 109.489 257.79 109.333 257.834 109.181C256.572 109.261 255.304 109.185 254.059 108.957C255.072 107.716 256.084 106.466 257.096 105.226C257.118 105.202 257.14 105.178 257.159 105.152C257.673 104.518 258.191 103.888 258.705 103.253L258.705 103.252C258.732 101.306 258.509 99.3643 258.04 97.4752L258.039 97.475ZM242.417 66.7812L242.425 66.7715L242.417 66.791V66.7812ZM239.396 93.9883L239.278 93.7246C239.283 93.5341 239.283 93.3437 239.278 93.1483C239.278 93.0946 239.269 93.0409 239.269 92.9871C239.313 93.3241 239.352 93.6611 239.401 93.9981L239.396 93.9883Z" fill="#2F2E41"/>
</svg>
